<svg width="192" height="71" viewBox="0 0 192 71" fill="none" xmlns="http://www.w3.org/2000/svg">
<path d="M13.7479 0.0499268H178.009C185.597 0.0499268 191.757 6.21054 191.757 13.7978V56.533C191.757 64.1203 185.597 70.2809 178.009 70.2809H13.7479C6.16061 70.2809 0 64.1203 0 56.533V13.7978C0 6.21054 6.16061 0.0499268 13.7479 0.0499268Z" fill="black"/>
<path d="M17.5743 29.2966C16.4718 29.2966 15.564 30.2045 15.564 31.3069V41.1639C15.564 42.2663 16.4718 43.1742 17.5743 43.1742C18.6767 43.1742 19.5846 42.2663 19.5846 41.1639V31.3069C19.5846 30.2045 18.7415 29.2966 17.5743 29.2966Z" fill="#3DDC84"/>
<path d="M49.3497 29.2966C48.2472 29.2966 47.3394 30.2045 47.3394 31.3069V41.1639C47.3394 42.2663 48.2472 43.1742 49.3497 43.1742C50.4521 43.1742 51.36 42.2663 51.36 41.1639V31.3069C51.4248 30.2045 50.4521 29.2966 49.3497 29.2966Z" fill="#3DDC84"/>
<path d="M39.428 16.9105L41.568 12.8899L41.114 12.6305L38.974 16.6511C37.3528 15.8081 35.4722 15.3542 33.5268 15.3542C31.6462 15.3542 29.8952 15.8081 28.3389 16.5214L26.2637 12.5657L25.8098 12.8251L27.8849 16.716C24.1237 18.7263 21.5946 22.682 21.5298 27.2863H45.5237C45.4589 22.8766 42.9947 18.9857 39.428 16.9105ZM27.3013 22.682C26.6528 22.682 26.134 22.1633 26.134 21.5148C26.134 20.8663 26.6528 20.3475 27.3013 20.3475C27.9498 20.3475 28.4686 20.8663 28.4686 21.5148C28.4686 22.1633 27.9498 22.682 27.3013 22.682ZM39.4928 22.682C38.8443 22.682 38.3904 22.1633 38.3904 21.5148C38.3904 20.8663 38.9092 20.3475 39.4928 20.3475C40.0765 20.3475 40.6601 20.8663 40.6601 21.5148C40.6601 22.1633 40.0765 22.682 39.4928 22.682Z" fill="#3DDC84"/>
<path d="M45.5889 29.2966H21.4004V47.519C21.4004 49.2051 22.7622 50.5669 24.4483 50.5669H27.6907V55.7548C27.6907 56.8572 28.5986 57.7651 29.701 57.7651C30.8034 57.7651 31.7113 56.8572 31.7113 55.7548V50.5669H35.1483V55.7548C35.1483 56.8572 36.0562 57.7651 37.1586 57.7651C38.261 57.7651 39.1689 56.8572 39.1689 55.7548V50.5669H42.4113C44.0974 50.5669 45.4592 49.2051 45.4592 47.519L45.5889 29.2966Z" fill="#3DDC84"/>
<path d="M85.4709 12.8899V18.0129H82.1637V15.8081H65.6273V18.0129H62.4497V12.8899H72.7606C72.5661 12.3063 72.3067 11.7226 72.1121 11.2687L75.2897 10.5554C75.6788 11.2687 76.0679 12.1117 76.2624 12.8899H85.4709ZM68.9346 26.5081H83.0067V35.1978H79.7643V34.2251H68.9346V35.2627H65.6921V17.3645H82.034V24.7572H68.8697V26.5081H68.9346ZM68.9346 20.0881V22.0984H78.9212V20.0881H68.9346ZM68.9346 29.2317V31.5014H79.7643V29.2317H68.9346Z" fill="#29E387"/>
<path d="M98.7646 18.0129C98.6997 19.0505 98.6349 20.1529 98.5052 21.1905H109.789C109.789 21.1905 109.789 22.1632 109.659 22.5523C109.205 29.6856 108.622 32.6038 107.519 33.7711C106.741 34.6141 105.898 34.8735 104.666 35.0032C103.628 35.1329 101.877 35.0681 100.126 35.0032C100.062 34.0953 99.6076 32.7984 99.024 31.8905C100.84 32.085 102.655 32.085 103.434 32.085C104.017 32.085 104.342 32.0202 104.731 31.7608C105.444 31.1772 105.898 28.9075 106.287 24.1735H97.9864C97.0785 28.5832 95.133 32.6687 90.3991 35.4572C89.9452 34.6141 88.9724 33.5117 88.1294 32.8632C94.4846 29.4911 94.9385 23.5899 95.1979 18.0129H88.5833V14.9002H99.7373C99.2833 13.8626 98.6997 12.5656 98.1809 11.5281L101.294 10.3608C102.007 11.5281 102.785 13.1493 103.174 14.122L101.359 14.9002H112.188V18.0129H98.7646Z" fill="#29E387"/>
<path d="M122.435 15.419H125.612L134.432 35.8463H130.281L128.401 31.1772H119.516L117.636 35.8463H113.55L122.435 15.419ZM127.039 28.0645L123.861 19.7639L120.684 28.0645H127.039Z" fill="#29E387"/>
<path d="M136.701 15.419H143.575C144.547 15.419 145.52 15.4839 146.428 15.6784C147.336 15.8729 148.179 16.1972 148.827 16.6511C149.541 17.1051 150.059 17.6887 150.513 18.4669C150.903 19.2451 151.162 20.1529 151.162 21.3202C151.162 22.6172 150.967 23.6548 150.513 24.433C150.059 25.2111 149.476 25.8596 148.698 26.2487C147.919 26.7027 147.076 26.962 146.104 27.1566C145.131 27.3511 144.093 27.416 142.991 27.416H140.397V35.9111H136.766V15.419H136.701ZM142.537 24.3033C143.056 24.3033 143.575 24.3033 144.158 24.2384C144.742 24.1736 145.261 24.1087 145.715 23.9142C146.169 23.7196 146.558 23.4602 146.882 23.0711C147.206 22.682 147.336 22.1633 147.336 21.4499C147.336 20.8014 147.206 20.2826 146.947 19.9584C146.687 19.6342 146.298 19.3099 145.909 19.1154C145.455 18.9208 145.001 18.7911 144.483 18.7263C143.964 18.6614 143.445 18.6614 142.991 18.6614H140.397V24.433H142.537V24.3033Z" fill="#29E387"/>
<path d="M154.34 15.419H157.971V24.1087H158.166L166.661 15.419H171.59L162.057 24.8869L172.238 35.9111H167.115L158.231 25.8596H158.036V35.9111H154.34V15.419Z" fill="#29E387"/>
<path d="M63.499 44.6882V45.4922H73.195V44.6882H63.499ZM62.995 52.0802V52.8842H73.675V52.0802H62.995ZM65.203 46.3802C65.659 48.0002 66.187 50.1362 66.367 51.5162L67.207 51.3242C67.003 49.9202 66.487 47.8322 65.995 46.2002L65.203 46.3802ZM70.675 46.2002C70.255 48.0242 69.451 50.7242 68.755 52.2602L69.547 52.4402C70.219 50.9042 71.035 48.3242 71.587 46.3562L70.675 46.2002ZM67.519 42.5642C67.747 43.1882 67.999 43.9922 68.095 44.5202L68.911 44.2682C68.803 43.7522 68.527 42.9722 68.287 42.3602L67.519 42.5642ZM75.955 45.4322V46.1642H79.723V45.4322H75.955ZM75.943 43.0562V43.7762H79.387V47.9402H75.943V48.6722H80.191V43.0562H75.943ZM75.499 53.0282C75.751 52.8242 76.159 52.6682 79.531 51.4562C79.471 51.2882 79.387 51.0002 79.327 50.7722L75.811 51.9482L75.439 52.2962L75.499 53.0282ZM78.139 49.6682C78.751 50.6642 79.471 52.0082 79.795 52.8002L80.503 52.4042C80.179 51.6122 79.447 50.3162 78.811 49.3322L78.139 49.6682ZM75.499 53.0282C75.499 52.7042 76.459 52.2722 76.459 52.2722V43.0562H75.655V51.4562C75.655 51.9122 75.355 52.1162 75.151 52.2122C75.283 52.4162 75.439 52.8002 75.499 53.0282ZM84.463 43.1282V50.0402C84.463 50.1962 84.415 50.2562 84.235 50.2562C84.067 50.2682 83.491 50.2682 82.843 50.2442C82.963 50.4722 83.059 50.8082 83.095 51.0242C83.983 51.0242 84.523 51.0242 84.847 50.8802C85.159 50.7482 85.267 50.4962 85.267 50.0402V43.1282H84.463ZM81.355 43.1282V53.4122H82.159V43.8722H84.919V43.1282H81.355ZM86.815 48.7562L87.055 49.5362C88.219 49.2482 89.767 48.8402 91.243 48.4442L91.147 47.7002C89.575 48.1082 87.919 48.5162 86.815 48.7562ZM86.959 44.7962V45.5522H91.159V44.7962H86.959ZM88.759 42.4442V52.3802C88.759 52.5482 88.699 52.5962 88.531 52.6082C88.375 52.6082 87.847 52.6202 87.259 52.5962C87.367 52.8122 87.487 53.1362 87.523 53.3402C88.339 53.3402 88.831 53.3282 89.131 53.1962C89.419 53.0762 89.551 52.8482 89.551 52.3802V42.4442H88.759ZM91.279 51.7202V52.4642H96.739V51.7202H91.279ZM91.651 47.3762V48.1682H96.787V47.3762H91.651ZM91.363 43.5482V44.2922H96.367V53.3882H97.135V43.5482H91.363ZM108.811 47.6882V47.8202C108.559 50.9522 108.283 52.1642 107.923 52.5002C107.815 52.6202 107.695 52.6442 107.479 52.6322C107.263 52.6322 106.711 52.6322 106.123 52.5722C106.243 52.7762 106.327 53.1002 106.339 53.3162C106.927 53.3522 107.479 53.3522 107.779 53.3402C108.139 53.3162 108.355 53.2322 108.583 52.9922C109.003 52.5602 109.279 51.3122 109.567 48.0602C109.579 47.9402 109.591 47.6882 109.591 47.6882H108.811ZM103.663 43.1282V43.8722H108.115V43.1282H103.663ZM104.239 44.6762C104.155 45.8402 103.987 47.4362 103.843 48.3842H104.587C104.731 47.4722 104.899 45.9122 104.983 44.7242L104.239 44.6762ZM104.059 47.6882V48.3842H109.051V47.6882H104.059ZM103.231 50.0402V50.7722H107.863V50.0402H103.231ZM107.779 43.1282V43.2362C107.695 44.3522 107.455 46.6082 107.239 48.1562L107.995 48.2042C108.211 46.6562 108.439 44.5442 108.547 43.1522L107.995 43.0922L107.863 43.1282H107.779ZM98.947 43.0682V43.8122H103.039V43.0682H98.947ZM100.099 46.7522V47.4842H101.971V51.1682H100.099V51.8882H102.679V46.7522H100.099ZM100.519 43.4282C100.195 45.4562 99.619 47.3522 98.695 48.6002C98.827 48.8042 99.031 49.2482 99.091 49.4282C100.171 48.0002 100.855 45.8522 101.275 43.5842L100.519 43.4282ZM99.751 46.7522V52.8602H100.447V46.7522H99.751ZM111.007 43.2962V44.1122H121.663V43.2962H111.007ZM115.675 43.9082V53.4002H116.515V43.9082H115.675ZM116.143 46.7402C117.619 47.4962 119.503 48.6362 120.439 49.3802L120.991 48.6482C120.031 47.9282 118.123 46.8362 116.671 46.1282L116.143 46.7402ZM131.167 43.0682C131.719 43.5122 132.355 44.1722 132.655 44.6042L133.243 44.1842C132.955 43.7402 132.295 43.1042 131.731 42.6842L131.167 43.0682ZM122.995 45.1442V45.8042H133.723V45.1442H122.995ZM123.619 43.4042V44.0522H128.875V43.4042H123.619ZM125.947 42.3962V45.4682H126.727V42.3962H125.947ZM129.667 42.4202C129.703 48.4202 130.423 53.3162 132.643 53.3162C133.447 53.3162 133.723 52.7522 133.867 50.9642C133.663 50.8922 133.387 50.7242 133.219 50.5562C133.147 51.9842 133.027 52.5242 132.715 52.5242C131.263 52.5242 130.423 48.2642 130.471 42.4202H129.667ZM132.439 46.4522C131.719 49.0322 130.339 51.5042 128.431 52.8722C128.623 53.0162 128.863 53.2562 129.007 53.4242C130.975 51.9122 132.367 49.3802 133.147 46.6562L132.439 46.4522ZM123.187 47.0642V47.7362H129.343V47.0642H123.187ZM126.379 48.1322V53.3522H127.135V48.1322H126.379ZM123.811 50.0162C123.811 49.8482 124.327 49.5962 124.327 49.5962V49.5842C124.963 48.6842 125.647 47.3762 126.139 46.0682L125.347 45.8522C124.987 47.0522 124.315 48.3242 124.111 48.6602C123.919 48.9962 123.751 49.2362 123.559 49.2722C123.667 49.4642 123.775 49.8482 123.811 50.0162ZM123.811 50.0162C123.919 49.9202 124.267 49.8482 124.783 49.8482H129.079L129.091 49.1522H124.291L123.811 49.3922V50.0162ZM123.127 51.4082L123.211 52.1522C124.783 51.9962 127.147 51.7562 129.367 51.5162L129.379 50.8442C127.039 51.0722 124.627 51.2882 123.127 51.4082Z" fill="#3DDC84"/>
</svg>
