<svg width="423" height="112" viewBox="0 0 423 112" fill="none" xmlns="http://www.w3.org/2000/svg">
<rect width="423" height="112" rx="18" fill="black"/>
<path d="M54.0231 44.4826C51.8169 44.4826 50 46.2995 50 48.5057V68.2319C50 70.4381 51.8169 72.2549 54.0231 72.2549C56.2293 72.2549 58.0462 70.4381 58.0462 68.2319V48.5057C58.0462 46.2995 56.3591 44.4826 54.0231 44.4826Z" fill="#3DDC84"/>
<path d="M117.613 44.4826C115.407 44.4826 113.59 46.2995 113.59 48.5057V68.2319C113.59 70.4381 115.407 72.2549 117.613 72.2549C119.819 72.2549 121.636 70.4381 121.636 68.2319V48.5057C121.766 46.2995 119.819 44.4826 117.613 44.4826Z" fill="#3DDC84"/>
<path d="M97.7575 19.6951L102.04 11.6489L101.132 11.1298L96.8491 19.176C93.6046 17.4889 89.8411 16.5804 85.9478 16.5804C82.1842 16.5804 78.6802 17.4889 75.5656 18.9164L71.4127 11L70.5043 11.5191L74.6571 19.3057C67.1301 23.3288 62.0687 31.2453 61.939 40.4595H109.957C109.827 31.6346 104.895 23.848 97.7575 19.6951ZM73.4891 31.2453C72.1914 31.2453 71.1532 30.207 71.1532 28.9093C71.1532 27.6115 72.1914 26.5733 73.4891 26.5733C74.7869 26.5733 75.8251 27.6115 75.8251 28.9093C75.8251 30.207 74.7869 31.2453 73.4891 31.2453ZM97.8873 31.2453C96.5895 31.2453 95.6811 30.207 95.6811 28.9093C95.6811 27.6115 96.7193 26.5733 97.8873 26.5733C99.0553 26.5733 100.223 27.6115 100.223 28.9093C100.223 30.207 99.0553 31.2453 97.8873 31.2453Z" fill="#3DDC84"/>
<path d="M110.087 44.4826H61.6797V80.95C61.6797 84.3242 64.405 87.0496 67.7792 87.0496H74.2681V97.4317C74.2681 99.638 76.085 101.455 78.2912 101.455C80.4974 101.455 82.3143 99.638 82.3143 97.4317V87.0496H89.1925V97.4317C89.1925 99.638 91.0094 101.455 93.2156 101.455C95.4218 101.455 97.2387 99.638 97.2387 97.4317V87.0496H103.728C107.102 87.0496 109.827 84.3242 109.827 80.95L110.087 44.4826Z" fill="#3DDC84"/>
<path d="M188.541 20.3046V29.5491H182.574V25.5705H152.734V29.5491H147V20.3046H165.606C165.255 19.2515 164.787 18.1983 164.436 17.3792L170.17 16.092C170.872 17.3792 171.574 18.9004 171.925 20.3046H188.541V20.3046ZM158.702 44.8785H184.095V60.5589H178.244V58.8036H158.702V60.6759H152.851V28.3789H182.339V41.719H158.585V44.8785H158.702ZM158.702 33.2937V36.9212H176.723V33.2937H158.702ZM158.702 49.7932V53.8889H178.244V49.7932H158.702Z" fill="#3DDC84"/>
<path d="M212.53 29.5491C212.413 31.4213 212.296 33.4107 212.062 35.2829H232.423C232.423 35.2829 232.423 37.0382 232.189 37.7403C231.37 50.6123 230.317 55.8782 228.327 57.9845C226.923 59.5057 225.402 59.9738 223.179 60.2078C221.306 60.4419 218.147 60.3248 214.987 60.2078C214.87 58.5696 214.051 56.2292 212.998 54.5909C216.274 54.942 219.551 54.942 220.955 54.942C222.008 54.942 222.593 54.825 223.296 54.3569C224.583 53.3038 225.402 49.2081 226.104 40.6658H211.126C209.487 48.623 205.977 55.9952 197.435 61.0269C196.615 59.5057 194.86 57.5164 193.339 56.3462C204.807 50.2613 205.626 39.6126 206.094 29.5491H194.158V23.9322H214.285C213.466 22.0599 212.413 19.7195 211.477 17.8472L217.094 15.7409C218.381 17.8472 219.785 20.7727 220.487 22.528L217.211 23.9322H236.753V29.5491H212.53V29.5491Z" fill="#3DDC84"/>
<path d="M255.241 24.8683H260.975L276.89 61.729H269.401L266.007 53.3037H249.976L246.582 61.729H239.21L255.241 24.8683ZM263.55 47.6868L257.816 32.7085L252.082 47.6868H263.55Z" fill="#3DDC84"/>
<path d="M280.985 24.8683H293.389C295.144 24.8683 296.899 24.9853 298.538 25.3364C300.176 25.6874 301.697 26.2725 302.867 27.0916C304.154 27.9108 305.091 28.9639 305.91 30.3681C306.612 31.7724 307.08 33.4106 307.08 35.5169C307.08 37.8573 306.729 39.7296 305.91 41.1338C305.091 42.538 304.037 43.7082 302.633 44.4103C301.229 45.2295 299.708 45.6975 297.953 46.0486C296.197 46.3996 294.325 46.5167 292.336 46.5167H287.655V61.846H281.102V24.8683H280.985ZM291.517 40.8998C292.453 40.8998 293.389 40.8998 294.442 40.7828C295.495 40.6657 296.431 40.5487 297.25 40.1977C298.07 39.8466 298.772 39.3785 299.357 38.6764C299.942 37.9743 300.176 37.0382 300.176 35.751C300.176 34.5808 299.942 33.6447 299.474 33.0596C299.006 32.4745 298.304 31.8894 297.601 31.5383C296.782 31.1873 295.963 30.9532 295.027 30.8362C294.091 30.7192 293.155 30.7192 292.336 30.7192H287.655V41.1338H291.517V40.8998Z" fill="#3DDC84"/>
<path d="M312.814 24.8683H319.367V40.5487H319.718L335.047 24.8683H343.941L326.739 41.9529L345.111 61.846H335.867L319.835 43.7082H319.484V61.846H312.814V24.8683Z" fill="#3DDC84"/>
<path d="M149.134 77.744V79.218H166.91V77.744H149.134ZM148.21 91.296V92.77H167.79V91.296H148.21ZM152.258 80.846C153.094 83.816 154.062 87.732 154.392 90.262L155.932 89.91C155.558 87.336 154.612 83.508 153.71 80.516L152.258 80.846ZM162.29 80.516C161.52 83.86 160.046 88.81 158.77 91.626L160.222 91.956C161.454 89.14 162.95 84.41 163.962 80.802L162.29 80.516ZM156.504 73.85C156.922 74.994 157.384 76.468 157.56 77.436L159.056 76.974C158.858 76.028 158.352 74.598 157.912 73.476L156.504 73.85ZM171.97 79.108V80.45H178.878V79.108H171.97ZM171.948 74.752V76.072H178.262V83.706H171.948V85.048H179.736V74.752H171.948ZM171.134 93.034C171.596 92.66 172.344 92.374 178.526 90.152C178.416 89.844 178.262 89.316 178.152 88.898L171.706 91.054L171.024 91.692L171.134 93.034ZM175.974 86.874C177.096 88.7 178.416 91.164 179.01 92.616L180.308 91.89C179.714 90.438 178.372 88.062 177.206 86.258L175.974 86.874ZM171.134 93.034C171.134 92.44 172.894 91.648 172.894 91.648V74.752H171.42V90.152C171.42 90.988 170.87 91.362 170.496 91.538C170.738 91.912 171.024 92.616 171.134 93.034ZM187.568 74.884V87.556C187.568 87.842 187.48 87.952 187.15 87.952C186.842 87.974 185.786 87.974 184.598 87.93C184.818 88.348 184.994 88.964 185.06 89.36C186.688 89.36 187.678 89.36 188.272 89.096C188.844 88.854 189.042 88.392 189.042 87.556V74.884H187.568ZM181.87 74.884V93.738H183.344V76.248H188.404V74.884H181.87ZM192.232 75.192V76.688H211.768V75.192H192.232ZM200.79 76.314V93.716H202.33V76.314H200.79ZM201.648 81.506C204.354 82.892 207.808 84.982 209.524 86.346L210.536 85.004C208.776 83.684 205.278 81.682 202.616 80.384L201.648 81.506ZM229.192 74.774C230.204 75.588 231.37 76.798 231.92 77.59L232.998 76.82C232.47 76.006 231.26 74.84 230.226 74.07L229.192 74.774ZM214.21 78.58V79.79H233.878V78.58H214.21ZM215.354 75.39V76.578H224.99V75.39H215.354ZM219.622 73.542V79.174H221.052V73.542H219.622ZM226.442 73.586C226.508 84.586 227.828 93.562 231.898 93.562C233.372 93.562 233.878 92.528 234.142 89.25C233.768 89.118 233.262 88.81 232.954 88.502C232.822 91.12 232.602 92.11 232.03 92.11C229.368 92.11 227.828 84.3 227.916 73.586H226.442ZM231.524 80.978C230.204 85.708 227.674 90.24 224.176 92.748C224.528 93.012 224.968 93.452 225.232 93.76C228.84 90.988 231.392 86.346 232.822 81.352L231.524 80.978ZM214.562 82.1V83.332H225.848V82.1H214.562ZM220.414 84.058V93.628H221.8V84.058H220.414ZM215.706 87.512C215.706 87.204 216.652 86.742 216.652 86.742V86.72C217.818 85.07 219.072 82.672 219.974 80.274L218.522 79.878C217.862 82.078 216.63 84.41 216.256 85.026C215.904 85.642 215.596 86.082 215.244 86.148C215.442 86.5 215.64 87.204 215.706 87.512ZM215.706 87.512C215.904 87.336 216.542 87.204 217.488 87.204H225.364L225.386 85.928H216.586L215.706 86.368V87.512ZM214.452 90.064L214.606 91.428C217.488 91.142 221.822 90.702 225.892 90.262L225.914 89.03C221.624 89.448 217.202 89.844 214.452 90.064Z" fill="#3DDC84"/>
</svg>
