<svg width="71" height="70" viewBox="0 0 71 70" fill="none" xmlns="http://www.w3.org/2000/svg">
<path fill-rule="evenodd" clip-rule="evenodd" d="M35.125 0C54.445 0 70.125 15.68 70.125 35C70.125 54.32 54.445 70 35.125 70C15.805 70 0.125 54.32 0.125 35C0.125 15.68 15.805 0 35.125 0Z" fill="white"/>
<path fill-rule="evenodd" clip-rule="evenodd" d="M27.6207 33.102L30.8275 29.6741L28.2842 21.0491C27.1784 20.4962 25.8515 20.3856 24.6352 20.6068C8.49096 29.7847 38.789 61.0779 50.3995 49.025C50.8418 47.6981 50.9524 46.3712 50.9524 44.9337L43.3226 40.5106L39.3419 44.4914C34.6976 43.1644 30.8275 39.4048 27.6207 33.102Z" fill="#FF4521"/>
</svg>
