<svg width="51" height="50" viewBox="0 0 51 50" fill="none" xmlns="http://www.w3.org/2000/svg">
<path d="M49.0952 24.991C49.0952 11.7477 38.3476 1 25.1043 1C11.861 1 1.11328 11.7477 1.11328 24.991C1.11328 38.2343 11.861 48.982 25.1043 48.982C38.3476 48.982 49.0952 38.2343 49.0952 24.991Z" fill="#FF4521" stroke="white" stroke-width="2"/>
<path d="M30.8184 21.0029C28.4103 21.0316 26.1009 21.9643 24.3483 23.616C23.4684 24.438 22.7939 25.4552 22.3794 26.5857C21.9649 27.7162 21.8219 28.9283 21.962 30.1243C20.9802 30.0026 20.0861 29.8685 19.1869 29.7932C18.8639 29.7567 18.5372 29.8121 18.2443 29.9531C17.3709 30.446 16.5335 31.0018 15.5414 31.6227C15.724 30.7977 15.8415 30.0758 16.0498 29.3849C16.1455 29.1839 16.1586 28.9534 16.0863 28.7429C16.014 28.5323 15.8621 28.3585 15.6631 28.2587C12.6478 26.1302 11.3762 22.9437 12.3281 19.6633C12.739 18.2585 13.5054 16.9835 14.5532 15.9616C15.601 14.9396 16.8947 14.2053 18.3093 13.8295C20.2441 13.187 22.3289 13.1499 24.2854 13.7232C26.2418 14.2964 27.9769 15.4527 29.2591 17.0377C30.1512 18.1809 30.6928 19.5582 30.8184 21.0029V21.0029ZM19.2581 19.9809C19.2583 19.6813 19.1424 19.3932 18.9347 19.1773C18.727 18.9613 18.4437 18.8343 18.1443 18.8228C17.9959 18.8167 17.8477 18.8401 17.7083 18.8916C17.569 18.9431 17.4412 19.0217 17.3324 19.1229C17.2235 19.224 17.1358 19.3457 17.0743 19.481C17.0128 19.6162 16.9786 19.7623 16.9738 19.9108C16.9682 20.0594 16.9924 20.2076 17.0451 20.3466C17.0978 20.4857 17.1779 20.6127 17.2806 20.7203C17.3833 20.8278 17.5066 20.9136 17.6431 20.9726C17.7796 21.0316 17.9265 21.0626 18.0752 21.0637C18.375 21.0744 18.667 20.9669 18.8882 20.7643C19.1095 20.5618 19.2423 20.2804 19.2581 19.9809V19.9809ZM25.2898 18.8228C24.9897 18.8292 24.7038 18.9517 24.4922 19.1646C24.2807 19.3776 24.1599 19.6643 24.1555 19.9644C24.1587 20.1137 24.1913 20.261 24.2516 20.3976C24.3118 20.5343 24.3985 20.6577 24.5066 20.7608C24.6147 20.8639 24.742 20.9447 24.8814 20.9984C25.0208 21.0522 25.1694 21.0779 25.3187 21.074C25.4662 21.0721 25.6118 21.0411 25.7473 20.9828C25.8828 20.9246 26.0055 20.8402 26.1084 20.7345C26.2113 20.6288 26.2924 20.5039 26.347 20.3669C26.4016 20.2299 26.4287 20.0835 26.4268 19.936C26.4248 19.7886 26.3938 19.6429 26.3356 19.5074C26.2773 19.3719 26.1929 19.2492 26.0873 19.1463C25.9816 19.0434 25.8567 18.9623 25.7197 18.9077C25.5827 18.8531 25.4363 18.826 25.2888 18.828L25.2898 18.8228Z" fill="white"/>
<path d="M36.461 36.6635C35.7453 36.2303 34.9697 35.9047 34.1593 35.6973C33.348 35.7706 32.5455 35.9208 31.7627 36.1459C30.5905 36.2936 29.4001 36.1803 28.2769 35.8139C27.1536 35.4475 26.1254 34.8372 25.2658 34.0266C21.8008 30.8215 22.2958 25.9087 26.3053 23.2821C28.077 22.16 30.1933 21.7127 32.2676 22.0216C34.3418 22.3306 36.2358 23.3754 37.6036 24.9651C38.6757 26.2575 39.1985 27.9186 39.0599 29.592C38.9213 31.2655 38.1323 32.8179 36.8622 33.9163C36.0877 34.6031 35.8093 35.1682 36.3053 36.0747C36.3804 36.2641 36.4327 36.4618 36.461 36.6635V36.6635ZM27.4077 27.8979C27.5306 27.8983 27.6524 27.8745 27.7661 27.8279C27.8798 27.7812 27.9832 27.7126 28.0703 27.626C28.1575 27.5394 28.2268 27.4365 28.2742 27.3231C28.3216 27.2097 28.3462 27.0881 28.3466 26.9652C28.347 26.8423 28.3232 26.7205 28.2766 26.6068C28.2299 26.4931 28.1613 26.3897 28.0747 26.3025C27.9881 26.2153 27.8852 26.1461 27.7718 26.0986C27.6584 26.0512 27.5368 26.0266 27.4139 26.0262C27.2884 26.0217 27.1633 26.0424 27.046 26.0872C26.9286 26.1319 26.8215 26.1999 26.731 26.2869C26.6405 26.3739 26.5684 26.4782 26.519 26.5937C26.4696 26.7091 26.4439 26.8333 26.4435 26.9589C26.4431 27.0844 26.4679 27.2088 26.5165 27.3246C26.5652 27.4404 26.6366 27.5452 26.7266 27.6328C26.8165 27.7204 26.9232 27.789 27.0402 27.8346C27.1572 27.8801 27.2822 27.9017 27.4077 27.8979V27.8979ZM33.2446 26.0283C33.0046 26.0302 32.7746 26.1241 32.6019 26.2906C32.4292 26.4572 32.327 26.6837 32.3164 26.9234C32.3102 27.0479 32.3292 27.1724 32.3724 27.2893C32.4156 27.4062 32.482 27.5131 32.5677 27.6037C32.6534 27.6942 32.7566 27.7664 32.8709 27.8159C32.9853 27.8654 33.1086 27.8912 33.2332 27.8917C33.4737 27.8959 33.7061 27.805 33.8799 27.6387C34.0537 27.4724 34.1548 27.2443 34.1613 27.0038C34.1679 26.8788 34.1491 26.7537 34.106 26.6362C34.0629 26.5186 33.9965 26.411 33.9108 26.3197C33.8251 26.2285 33.7217 26.1555 33.6071 26.1053C33.4924 26.055 33.3687 26.0285 33.2435 26.0273L33.2446 26.0283Z" fill="white"/>
</svg>
