<svg width="272" height="50" viewBox="0 0 272 50" fill="none" xmlns="http://www.w3.org/2000/svg">
<path d="M22.5767 10.9231L22.5889 10.9338L30.9089 19.2934L39.1816 10.9795C39.7445 10.4133 40.2317 9.77651 40.6308 9.08496C41.1205 8.23048 41.4459 7.29188 41.5903 6.31769C38.6891 3.73932 35.2277 1.87135 31.48 0.861545C27.7322 -0.148264 23.801 -0.272251 19.9971 0.499446V4.75105C19.9755 6.16545 20.3118 7.56233 20.9749 8.81188C21.4016 9.59048 21.9408 10.3019 22.5751 10.9231" fill="#A4E22D"/>
<path d="M45.4141 10.5952C45.0798 11.3148 44.6783 12.0013 44.2151 12.6455C43.7586 13.2934 43.2483 13.9017 42.6896 14.4638H42.6819L34.3711 22.7427L42.7308 31.0779C43.2719 31.624 43.7663 32.2144 44.209 32.8429C45.2883 34.3595 46.0306 36.0895 46.3858 37.9167C48.8955 33.7593 50.1403 28.9611 49.9683 24.108C49.7962 19.2549 48.2148 14.5569 45.4171 10.5876" fill="#FF4521"/>
<path d="M19.0455 14.4715C18.3857 13.8121 17.7915 13.0902 17.2714 12.3159C15.7916 10.0808 15.0206 7.45119 15.0594 4.77089V2.0647C10.5859 4.00347 6.7769 7.20787 4.10123 11.2836C1.42556 15.3594 0 20.1286 0 25.0042C0 29.8797 1.42556 34.6488 4.10123 38.7246C6.7769 42.8004 10.5859 46.0048 15.0594 47.9436V40.8151C15.0192 38.1166 15.8043 35.4704 17.3095 33.2304C17.8233 32.4719 18.4098 31.7653 19.0608 31.1206L27.3777 22.764L19.0455 14.4715Z" fill="#FF4521"/>
<path d="M39.1875 34.481L30.927 26.2007L22.5765 34.5176C21.9389 35.1523 21.3991 35.8783 20.9747 36.6716C20.313 37.9496 19.9771 39.3712 19.9969 40.8102V49.5055C21.6397 49.8354 23.3112 50.0011 24.9868 49.9998C31.164 50.0053 37.123 47.716 41.7076 43.576L41.7748 40.83C41.7837 39.2908 41.3949 37.7754 40.6459 36.4306C40.2429 35.7262 39.7529 35.0753 39.1875 34.4932" fill="#FF4521"/>
<path d="M104.309 24.8279L109.28 19.9311C110.078 19.1516 110.708 18.2176 111.132 17.1863C111.557 16.155 111.766 15.048 111.748 13.9329V9.60205H106.795V13.9329C106.809 14.3974 106.725 14.8596 106.549 15.2898C106.373 15.7199 106.108 16.1083 105.773 16.4301L100.832 21.3452L95.7628 16.2486L95.7475 16.2288C95.4098 15.9157 95.1427 15.5344 94.9638 15.1102C94.785 14.6859 94.6985 14.2284 94.7102 13.7681V9.60205H89.7569V13.7773C89.739 14.8934 89.9492 16.0013 90.3747 17.0333C90.8001 18.0653 91.4319 18.9994 92.2312 19.7785L97.2959 24.8324L92.2008 29.9932C91.3997 30.7684 90.7659 31.6994 90.3385 32.7289C89.9112 33.7585 89.6992 34.8646 89.7157 35.9792V40.3878H94.669V35.9777C94.6582 35.5051 94.7445 35.0354 94.9224 34.5975C95.1002 34.1596 95.366 33.7628 95.7033 33.4316L100.821 28.2953L105.776 33.2669C106.114 33.6011 106.381 34.0007 106.559 34.4413C106.738 34.8819 106.825 35.3544 106.815 35.8297V40.3878H111.767V35.8297C111.786 34.7153 111.58 33.6084 111.161 32.5757C110.741 31.543 110.117 30.6059 109.326 29.8208L104.309 24.8279Z" fill="#15211F"/>
<path d="M116.729 9.60205V14.511H125.271V40.3893H130.225V14.511H138.833V9.60205H116.729Z" fill="#15211F"/>
<path d="M171.608 9.60205H165.223L157.697 24.8111L150.198 9.60205H143.791V40.3893H148.697V17.6123L155.929 31.7811H159.488L166.707 17.6123V40.3893H171.61L171.608 9.60205Z" fill="#15211F"/>
<path d="M74.0096 14.5004H84.7994V9.60205H74.2583C73.0807 9.60205 71.9146 9.83398 70.8267 10.2847C69.7388 10.7355 68.7503 11.3962 67.9178 12.229C67.0852 13.0618 66.4249 14.0505 65.9745 15.1385C65.5242 16.2266 65.2926 17.3927 65.293 18.5703V40.3848H70.2478V27.284H82.1709V22.3764H70.2478V18.2576C70.3094 17.2806 70.7254 16.3597 71.4177 15.6677C72.11 14.9756 73.0311 14.56 74.0081 14.4988" fill="#15211F"/>
<path d="M186.544 8.73096H185.838V40.3894H186.544V8.73096Z" fill="#979C9C"/>
<path d="M210.77 9.16711L216.137 8.72168C216.38 9.37866 216.655 10.1923 216.962 11.1625H228.87V18.4985H224.616V14.3065H203.526V18.4985H199.27V11.1716H211.591C211.295 10.4058 211.021 9.73764 210.77 9.16711ZM200.639 27.8727H227.378V40.3527H223.154V39.088H204.894V40.3588H200.638L200.639 27.8727ZM203.213 19.6793H224.805V26.5073H203.208L203.213 19.6793ZM223.854 18.3445H204.256V15.6459H223.85L223.854 18.3445ZM204.896 32.1593H211.882V30.5712H204.896V32.1593ZM204.896 36.3833H211.882V34.7954H204.896V36.3833ZM220.487 22.3794H207.532V23.8073H220.487V22.3794ZM223.156 30.5728H216.138V32.1608H223.156V30.5728ZM216.138 36.3849H223.156V34.7968H216.138V36.3849Z" fill="#15211F"/>
<path d="M240.714 14.2484H244.111V9.13501H248.494V14.2484H251.797V18.3123H248.494V22.1718L251.638 21.0749C251.616 22.2394 251.647 23.711 251.733 25.4897C250.674 25.8385 249.594 26.2092 248.494 26.6018V36.3191C248.526 36.7882 248.464 37.2589 248.313 37.7041C248.161 38.1492 247.923 38.5599 247.612 38.9124C246.848 39.5796 245.863 39.9389 244.848 39.9208C243.593 39.995 242.447 40.0428 241.411 40.0642C241.198 38.5387 240.923 37.0671 240.586 35.6495C241.348 35.7135 242.11 35.7455 242.874 35.7455C243.045 35.7677 243.218 35.7498 243.381 35.6933C243.544 35.6368 243.691 35.5432 243.811 35.4199C243.931 35.2966 244.021 35.147 244.073 34.983C244.126 34.819 244.139 34.6449 244.113 34.4748V28.1867C243.064 28.5671 241.996 28.9693 240.909 29.3934L240.369 24.7575C241.554 24.4188 242.803 24.0374 244.116 23.6133V18.3107H240.718L240.714 14.2484ZM254.687 40.0291V29.5826C254.094 30.3128 253.481 31.0221 252.846 31.7106C251.787 30.4404 250.644 29.1911 249.415 27.9625C253.506 24.4103 256.571 19.8278 258.292 14.6908H252.465V10.6269H271.838V14.6908H262.931C262.029 17.2489 260.93 19.7333 259.644 22.1215H270.79V40.0016H266.472V38.255H259.009V40.0322L254.687 40.0291ZM266.469 26.1197H259.006V34.249H266.469V26.1197Z" fill="#15211F"/>
</svg>
