<svg width="70" height="71" viewBox="0 0 70 71" fill="none" xmlns="http://www.w3.org/2000/svg">
<path d="M35 70.5C54.33 70.5 70 54.83 70 35.5C70 16.17 54.33 0.5 35 0.5C15.67 0.5 0 16.17 0 35.5C0 54.83 15.67 70.5 35 70.5Z" fill="white"/>
<path fill-rule="evenodd" clip-rule="evenodd" d="M17 24.6641L28.9367 34.7084L17 44.7527V24.6641Z" fill="#FF4521"/>
<path fill-rule="evenodd" clip-rule="evenodd" d="M51.2092 23.5L34.9054 37.1835C34.9054 37.1835 34.9054 37.1835 34.7599 37.1835L18.4561 23.5H51.2092Z" fill="#FF4521"/>
<path fill-rule="evenodd" clip-rule="evenodd" d="M52.5187 44.6072L40.582 34.5629L52.5187 24.5186V44.6072Z" fill="#FF4521"/>
<path fill-rule="evenodd" clip-rule="evenodd" d="M39.4175 35.8735L52.0821 46.5001H17.4365L30.1011 35.8735L34.177 39.3672C34.6137 39.6583 35.0504 39.6583 35.4872 39.3672L39.4175 35.8735Z" fill="#FF4521"/>
</svg>
