<svg width="92" height="93" viewBox="0 0 92 93" fill="none" xmlns="http://www.w3.org/2000/svg">
<path d="M46.2404 92.1957C71.4358 92.1957 91.8607 71.7708 91.8607 46.5754C91.8607 21.38 71.4358 0.955078 46.2404 0.955078C21.045 0.955078 0.620117 21.38 0.620117 46.5754C0.620117 71.7708 21.045 92.1957 46.2404 92.1957Z" fill="#FF4521"/>
<path fill-rule="evenodd" clip-rule="evenodd" d="M22.7788 32.4514L38.3376 45.5435L22.7788 58.6356V32.4514Z" fill="white"/>
<path fill-rule="evenodd" clip-rule="evenodd" d="M67.3679 30.9341L46.117 48.7697C46.117 48.7697 46.117 48.7697 45.9272 48.7697L24.6763 30.9341H67.3679Z" fill="white"/>
<path fill-rule="evenodd" clip-rule="evenodd" d="M69.0754 58.446L53.5166 45.3538L69.0754 32.2617V58.446Z" fill="white"/>
<path fill-rule="evenodd" clip-rule="evenodd" d="M51.999 47.0623L68.5065 60.9133H23.3481L39.8556 47.0623L45.1683 51.616C45.7376 51.9955 46.3068 51.9955 46.876 51.616L51.999 47.0623Z" fill="white"/>
</svg>
