<svg width="210" height="31" viewBox="0 0 210 31" fill="none" xmlns="http://www.w3.org/2000/svg">
<path d="M0.455932 3.48353C0.139323 3.86657 -0.0189809 4.35687 0.00363396 4.86249V26.6271C-0.0265192 27.125 0.131785 27.623 0.448393 28.006L0.516238 28.075L12.5097 15.8942V15.6107L0.516238 3.42224L0.448393 3.49119L0.455932 3.48353Z" fill="url(#paint0_linear_90_83)"/>
<path d="M16.4824 19.9544L12.5098 15.8942V15.6107L16.4824 11.5351L16.5729 11.5811L21.3296 14.3237C22.6865 15.0974 22.6865 16.3768 21.3296 17.1659L16.5955 19.9008L16.49 19.9468L16.4824 19.9544Z" fill="url(#paint1_linear_90_83)"/>
<path d="M16.6026 19.8931L12.5168 15.7409L0.455566 27.9984C1.02848 28.504 1.87276 28.5346 2.46829 28.0596L16.6101 19.8931" fill="url(#paint2_linear_90_83)"/>
<path d="M16.6028 11.5887L2.46097 3.4222C1.86544 2.94722 1.01361 2.97021 0.448242 3.48349L12.517 15.7409L16.6028 11.5887Z" fill="url(#paint3_linear_90_83)"/>
<path opacity="0.2" d="M16.4822 19.8089L2.45343 27.9218C1.88052 28.3584 1.089 28.3584 0.516087 27.9218L0.448242 27.9907L0.516087 28.0597C1.089 28.4963 1.88052 28.4963 2.45343 28.0597L16.5953 19.8932L16.4822 19.8012V19.8089Z" fill="black"/>
<path opacity="0.12" d="M0.00391481 26.6807C0.0189914 27.1173 0.177296 27.531 0.456212 27.8681L0.524057 27.9447L0.456212 28.0137C0.147143 27.6383 -0.0111618 27.1633 0.00391481 26.6807ZM16.4826 19.7935L21.3222 17.005C21.8197 16.7521 22.1816 16.2848 22.2871 15.7256C22.2343 16.3385 21.865 16.8824 21.3222 17.1429L16.5655 19.8778L16.4751 19.7935H16.4826Z" fill="black"/>
<path opacity="0.25" d="M2.46139 3.55995L21.3297 14.4614C21.8273 14.7142 22.1891 15.1815 22.2946 15.7408C22.2419 15.1279 21.8725 14.584 21.3297 14.3235L2.46139 3.42206C1.1045 2.64831 0.00390625 3.29182 0.00390625 4.8623V5.00786C0.0340594 3.42972 1.11957 2.77854 2.46139 3.55229V3.55995Z" fill="white"/>
<path d="M33.496 11.944V16.024H34.3V11.944H33.496ZM30.772 16.384H37.18V18.64H30.772V16.384ZM30.004 15.616V19.396H37.984V15.616H30.004ZM33.868 13.264V14.02H38.908V13.264H33.868ZM32.116 20.464C32.272 21.244 32.368 22.24 32.368 22.828L33.184 22.72C33.184 22.156 33.052 21.172 32.884 20.404L32.116 20.464ZM34.6 20.476C34.96 21.22 35.32 22.216 35.452 22.816L36.232 22.612C36.088 22.012 35.704 21.04 35.332 20.32L34.6 20.476ZM37.048 20.38C37.66 21.136 38.332 22.192 38.608 22.84L39.364 22.528C39.076 21.856 38.38 20.848 37.768 20.104L37.048 20.38ZM30.172 20.164C29.788 21.064 29.164 22.036 28.516 22.588L29.248 22.936C29.908 22.312 30.532 21.292 30.928 20.368L30.172 20.164ZM44.044 15.676V16.456H46.348V15.676H44.044ZM43.768 11.944V21.676L44.584 21.568V11.944H43.768ZM41.536 14.368V22.024L42.328 21.916V14.368H41.536ZM40.552 21.904L40.696 22.768C42.196 22.48 44.38 22.084 46.42 21.7L46.36 20.884C44.236 21.28 41.992 21.676 40.552 21.904ZM50.524 14.572C49.756 15.268 48.412 16.12 47.2 16.72C47.32 16.9 47.464 17.176 47.524 17.344C48.796 16.732 50.2 15.976 51.196 15.22L50.524 14.572ZM46.984 11.944V20.98C46.984 22.216 47.284 22.528 48.352 22.528C48.58 22.528 50.008 22.528 50.248 22.528C51.292 22.528 51.52 21.868 51.628 19.948C51.388 19.888 51.064 19.744 50.848 19.576C50.788 21.316 50.716 21.76 50.188 21.76C49.876 21.76 48.688 21.76 48.448 21.76C47.92 21.76 47.836 21.628 47.836 21.004V11.944H46.984ZM52.66 16.768V17.56H63.34V16.768H52.66ZM57.688 13.072V21.724C57.688 21.976 57.58 22.048 57.328 22.048C57.064 22.06 56.152 22.072 55.144 22.036C55.276 22.276 55.432 22.648 55.48 22.888C56.716 22.888 57.484 22.876 57.916 22.732C58.348 22.6 58.528 22.336 58.528 21.724V13.072H57.688ZM53.5 12.82V13.612H62.5V12.82H53.5ZM74.5881 22.21C76.1331 22.21 77.4381 21.61 78.1881 20.875V15.865H74.2431V17.68H76.2081V19.87C75.8931 20.14 75.3531 20.29 74.8131 20.29C72.6381 20.29 71.5281 18.835 71.5281 16.42C71.5281 14.035 72.8181 12.595 74.6631 12.595C75.6681 12.595 76.2981 13 76.8381 13.525L78.0231 12.115C77.3031 11.38 76.1931 10.69 74.5881 10.69C71.6331 10.69 69.2631 12.835 69.2631 16.495C69.2631 20.2 71.5581 22.21 74.5881 22.21ZM83.9001 22.21C86.0001 22.21 87.9351 20.59 87.9351 17.815C87.9351 15.01 86.0001 13.39 83.9001 13.39C81.8001 13.39 79.8651 15.01 79.8651 17.815C79.8651 20.59 81.8001 22.21 83.9001 22.21ZM83.9001 20.41C82.7601 20.41 82.1151 19.39 82.1151 17.815C82.1151 16.225 82.7601 15.19 83.9001 15.19C85.0401 15.19 85.6851 16.225 85.6851 17.815C85.6851 19.39 85.0401 20.41 83.9001 20.41ZM93.2897 22.21C95.3897 22.21 97.3247 20.59 97.3247 17.815C97.3247 15.01 95.3897 13.39 93.2897 13.39C91.1897 13.39 89.2547 15.01 89.2547 17.815C89.2547 20.59 91.1897 22.21 93.2897 22.21ZM93.2897 20.41C92.1497 20.41 91.5047 19.39 91.5047 17.815C91.5047 16.225 92.1497 15.19 93.2897 15.19C94.4297 15.19 95.0747 16.225 95.0747 17.815C95.0747 19.39 94.4297 20.41 93.2897 20.41ZM102.124 25.645C104.929 25.645 106.684 24.355 106.684 22.66C106.684 21.19 105.589 20.56 103.564 20.56H102.139C101.149 20.56 100.819 20.32 100.819 19.87C100.819 19.54 100.939 19.345 101.179 19.15C101.539 19.27 101.929 19.345 102.259 19.345C104.059 19.345 105.499 18.385 105.499 16.495C105.499 15.97 105.334 15.505 105.109 15.22H106.549V13.6H103.519C103.174 13.48 102.724 13.39 102.259 13.39C100.474 13.39 98.8694 14.455 98.8694 16.435C98.8694 17.41 99.4094 18.205 99.9794 18.625V18.685C99.4844 19.045 99.0494 19.63 99.0494 20.26C99.0494 20.95 99.3794 21.385 99.8144 21.67V21.745C99.0494 22.18 98.6144 22.78 98.6144 23.485C98.6144 24.97 100.144 25.645 102.124 25.645ZM102.259 17.98C101.524 17.98 100.939 17.425 100.939 16.435C100.939 15.445 101.509 14.89 102.259 14.89C103.009 14.89 103.564 15.445 103.564 16.435C103.564 17.425 102.994 17.98 102.259 17.98ZM102.454 24.25C101.224 24.25 100.444 23.845 100.444 23.14C100.444 22.795 100.624 22.465 100.999 22.165C101.299 22.24 101.659 22.285 102.169 22.285H103.189C104.089 22.285 104.584 22.435 104.584 23.035C104.584 23.695 103.714 24.25 102.454 24.25ZM110.19 22.21C110.7 22.21 111.075 22.12 111.33 22.015L111.06 20.38C110.91 20.41 110.85 20.41 110.76 20.41C110.55 20.41 110.31 20.245 110.31 19.75V10.03H108.12V19.645C108.12 21.205 108.66 22.21 110.19 22.21ZM116.496 22.21C117.546 22.21 118.611 21.85 119.436 21.28L118.686 19.93C118.086 20.305 117.486 20.515 116.796 20.515C115.551 20.515 114.651 19.795 114.471 18.415H119.646C119.706 18.22 119.751 17.815 119.751 17.41C119.751 15.085 118.551 13.39 116.241 13.39C114.231 13.39 112.326 15.085 112.326 17.815C112.326 20.575 114.156 22.21 116.496 22.21ZM114.441 16.96C114.606 15.73 115.386 15.1 116.271 15.1C117.351 15.1 117.861 15.82 117.861 16.96H114.441ZM125.145 22H127.365V18.055H128.85C131.235 18.055 133.14 16.915 133.14 14.38C133.14 11.755 131.25 10.9 128.79 10.9H125.145V22ZM127.365 16.3V12.655H128.625C130.155 12.655 130.965 13.09 130.965 14.38C130.965 15.655 130.23 16.3 128.7 16.3H127.365ZM137.04 22.21C137.55 22.21 137.925 22.12 138.18 22.015L137.91 20.38C137.76 20.41 137.7 20.41 137.61 20.41C137.4 20.41 137.16 20.245 137.16 19.75V10.03H134.97V19.645C134.97 21.205 135.51 22.21 137.04 22.21ZM141.772 22.21C142.732 22.21 143.572 21.73 144.307 21.1H144.352L144.517 22H146.317V17.095C146.317 14.665 145.222 13.39 143.092 13.39C141.772 13.39 140.572 13.885 139.582 14.5L140.377 15.955C141.157 15.505 141.907 15.16 142.687 15.16C143.722 15.16 144.082 15.79 144.112 16.615C140.737 16.975 139.282 17.92 139.282 19.72C139.282 21.145 140.272 22.21 141.772 22.21ZM142.492 20.485C141.847 20.485 141.382 20.2 141.382 19.54C141.382 18.79 142.072 18.235 144.112 17.965V19.66C143.587 20.185 143.122 20.485 142.492 20.485ZM149.299 25.375C151.174 25.375 152.074 24.235 152.809 22.255L155.794 13.6H153.679L152.524 17.5C152.329 18.28 152.119 19.09 151.924 19.87H151.849C151.609 19.06 151.399 18.25 151.144 17.5L149.809 13.6H147.589L150.859 21.85L150.709 22.345C150.469 23.08 149.989 23.62 149.134 23.62C148.939 23.62 148.699 23.56 148.549 23.515L148.144 25.21C148.474 25.315 148.804 25.375 149.299 25.375ZM161.963 15.748V22.924H162.743V16.444H170.783V15.748H161.963ZM170.363 15.748V22C170.363 22.18 170.291 22.24 170.087 22.24C169.895 22.252 169.199 22.264 168.419 22.24C168.527 22.42 168.635 22.684 168.671 22.876C169.715 22.876 170.315 22.864 170.651 22.768C170.999 22.648 171.107 22.444 171.107 22V15.748H170.363ZM164.711 18.688V19.3H167.999V20.788H164.711V21.388H168.683V18.688H164.711ZM164.315 18.688V21.976H165.011V18.688H164.315ZM161.267 13.264V13.972H171.791V13.264H161.267ZM163.835 14.26C164.099 14.704 164.435 15.304 164.591 15.676L165.323 15.364C165.167 15.016 164.819 14.44 164.543 14.008L163.835 14.26ZM168.491 14.08C168.251 14.632 167.783 15.436 167.423 15.928L168.083 16.132C168.467 15.664 168.947 14.932 169.343 14.284L168.491 14.08ZM165.839 12.112C166.067 12.616 166.343 13.276 166.463 13.696L167.267 13.444C167.135 13.036 166.859 12.4 166.607 11.908L165.839 12.112ZM167.267 17.104C168.071 17.668 169.115 18.46 169.643 18.964L170.123 18.388C169.583 17.92 168.527 17.152 167.747 16.612L167.267 17.104ZM165.251 16.684C164.711 17.296 163.883 17.932 163.163 18.388C163.283 18.544 163.487 18.88 163.559 19.012C164.315 18.496 165.239 17.692 165.863 16.972L165.251 16.684ZM179.051 16.108V16.84H183.431V16.108H179.051ZM176.435 21.58V22.3H182.495V21.58H176.435ZM178.667 14.62V19H179.483V14.62H178.667ZM176.003 18.568V22.792H176.795V19.312H182.039V22.768H182.843V18.568H176.003ZM174.383 13.432V14.2H183.827V13.432H174.383ZM174.047 13.432V16.588C174.047 18.328 173.951 20.764 172.907 22.492C173.099 22.576 173.459 22.816 173.603 22.948C174.695 21.136 174.863 18.436 174.863 16.588V13.432H174.047ZM178.127 12.184C178.487 12.7 178.835 13.396 178.955 13.876L179.783 13.624C179.651 13.168 179.279 12.484 178.907 11.98L178.127 12.184ZM185.195 12.832V13.648H195.851V12.832H185.195ZM189.863 13.444V22.936H190.703V13.444H189.863ZM190.331 16.276C191.807 17.032 193.691 18.172 194.627 18.916L195.179 18.184C194.219 17.464 192.311 16.372 190.859 15.664L190.331 16.276ZM205.355 12.604C205.907 13.048 206.543 13.708 206.843 14.14L207.431 13.72C207.143 13.276 206.483 12.64 205.919 12.22L205.355 12.604ZM197.183 14.68V15.34H207.911V14.68H197.183ZM197.807 12.94V13.588H203.063V12.94H197.807ZM200.135 11.932V15.004H200.915V11.932H200.135ZM203.855 11.956C203.891 17.956 204.611 22.852 206.831 22.852C207.635 22.852 207.911 22.288 208.055 20.5C207.851 20.428 207.575 20.26 207.407 20.092C207.335 21.52 207.215 22.06 206.903 22.06C205.451 22.06 204.611 17.8 204.659 11.956H203.855ZM206.627 15.988C205.907 18.568 204.527 21.04 202.619 22.408C202.811 22.552 203.051 22.792 203.195 22.96C205.163 21.448 206.555 18.916 207.335 16.192L206.627 15.988ZM197.375 16.6V17.272H203.531V16.6H197.375ZM200.567 17.668V22.888H201.323V17.668H200.567ZM197.999 19.552C197.999 19.384 198.515 19.132 198.515 19.132V19.12C199.151 18.22 199.835 16.912 200.327 15.604L199.535 15.388C199.175 16.588 198.503 17.86 198.299 18.196C198.107 18.532 197.939 18.772 197.747 18.808C197.855 19 197.963 19.384 197.999 19.552ZM197.999 19.552C198.107 19.456 198.455 19.384 198.971 19.384H203.267L203.279 18.688H198.479L197.999 18.928V19.552ZM197.315 20.944L197.399 21.688C198.971 21.532 201.335 21.292 203.555 21.052L203.567 20.38C201.227 20.608 198.815 20.824 197.315 20.944Z" fill="#4CB1FF"/>
<defs>
<linearGradient id="paint0_linear_90_83" x1="13.4019" y1="4.65151" x2="-5.86162" y2="9.68411" gradientUnits="userSpaceOnUse">
<stop stop-color="#00A1FF"/>
<stop offset="0.26" stop-color="#00BEFF"/>
<stop offset="0.51" stop-color="#00D2FF"/>
<stop offset="0.76" stop-color="#00DFFF"/>
<stop offset="1" stop-color="#00E3FF"/>
</linearGradient>
<linearGradient id="paint1_linear_90_83" x1="23.069" y1="15.7305" x2="-0.344149" y2="15.7305" gradientUnits="userSpaceOnUse">
<stop stop-color="#FFE000"/>
<stop offset="0.41" stop-color="#FFBD00"/>
<stop offset="0.78" stop-color="#FFA500"/>
<stop offset="1" stop-color="#FF9C00"/>
</linearGradient>
<linearGradient id="paint2_linear_90_83" x1="14.3242" y1="17.9352" x2="-1.46905" y2="44.0768" gradientUnits="userSpaceOnUse">
<stop stop-color="#FF3A44"/>
<stop offset="1" stop-color="#C31162"/>
</linearGradient>
<linearGradient id="paint3_linear_90_83" x1="-2.53466" y1="-3.85442" x2="4.50722" y2="7.78113" gradientUnits="userSpaceOnUse">
<stop stop-color="#32A071"/>
<stop offset="0.07" stop-color="#2DA771"/>
<stop offset="0.48" stop-color="#15CF74"/>
<stop offset="0.8" stop-color="#06E775"/>
<stop offset="1" stop-color="#00F076"/>
</linearGradient>
</defs>
</svg>
