<svg width="49" height="49" viewBox="0 0 49 49" fill="none" xmlns="http://www.w3.org/2000/svg">
<path d="M47.0952 24.554C47.0952 11.8575 36.8008 1.56299 24.1043 1.56299C11.4078 1.56299 1.11328 11.8575 1.11328 24.554C1.11328 37.2505 11.4078 47.545 24.1043 47.545C36.8008 47.545 47.0952 37.2505 47.0952 24.554Z" fill="#FF4521" stroke="white" stroke-width="2"/>
<path d="M33.2997 20.4359H23.6229V17.3476C23.6229 15.7005 23.0052 14.122 21.8385 12.9553C20.6718 11.7886 19.0933 11.1709 17.4462 11.1709C15.7991 11.1709 14.2206 11.7886 13.0539 12.9553C11.8872 14.122 11.2695 15.7005 11.2695 17.3476V20.5046C11.2695 20.7791 11.4068 20.985 11.5441 21.1908C11.7499 21.3967 11.9558 21.4654 12.2303 21.4654H13.3284C13.6029 21.4654 13.8088 21.3281 14.0147 21.1908C14.2206 20.985 14.2892 20.7791 14.2892 20.5046V17.3476C14.2892 16.524 14.6324 15.7691 15.1814 15.1514C15.7305 14.6024 16.554 14.2592 17.3776 14.2592C18.2011 14.2592 18.9561 14.6024 19.5737 15.1514C20.1228 15.7005 20.4659 16.524 20.4659 17.3476V20.4359H20.0541C19.3678 20.4359 18.6815 20.7104 18.2011 21.1908C17.7207 21.6713 17.4462 22.3576 17.4462 23.0439V33.1324C17.4462 33.8187 17.7207 34.505 18.2011 34.9854C18.6815 35.4658 19.3678 35.7404 20.0541 35.7404H33.2311C33.9174 35.7404 34.6037 35.4658 35.0841 34.9854C35.5645 34.505 35.839 33.8187 35.839 33.1324V23.1125C35.839 22.4262 35.5645 21.7399 35.0841 21.2595C34.7409 20.7104 34.0546 20.4359 33.2997 20.4359Z" fill="white"/>
<path d="M28.0836 27.6417L27.2601 28.4652V30.2496C27.2601 30.3182 27.2601 30.3869 27.2601 30.4555C27.2601 30.5241 27.1914 30.5928 27.1228 30.6614C27.0542 30.73 26.9855 30.73 26.9855 30.7987C26.9169 30.7987 26.8483 30.8673 26.7797 30.8673C26.711 30.8673 26.6424 30.8673 26.5738 30.7987C26.5051 30.7987 26.4365 30.73 26.4365 30.6614C26.3679 30.5928 26.3679 30.5241 26.2993 30.4555C26.2993 30.3869 26.2306 30.3182 26.2306 30.2496V28.4652L25.4071 27.6417C25.2698 27.5044 25.2012 27.2985 25.2012 27.0926C25.2012 26.6809 25.3384 26.2691 25.6816 25.9946C25.9561 25.72 26.3679 25.5142 26.7797 25.5142C27.1914 25.5142 27.6032 25.6514 27.8777 25.9946C28.1523 26.2691 28.3581 26.6809 28.3581 27.0926C28.2895 27.2985 28.2209 27.5044 28.0836 27.6417Z" fill="#FF4521"/>
</svg>
