<svg width="32" height="31" viewBox="0 0 32 31" fill="none" xmlns="http://www.w3.org/2000/svg">
<circle cx="15.8905" cy="15.4745" r="15.3745" stroke="#FF4521" stroke-width="0.2"/>
<path d="M10.007 15.5042C10.007 13.3165 10.0169 11.1288 10 8.94108C9.99574 8.38637 10.4245 7.99813 10.936 8.00001C14.0971 8.01128 17.2582 8.00565 20.419 8.00565C20.9758 8.00565 21.3296 8.36167 21.3296 8.92228C21.3298 11.2799 21.329 13.6376 21.332 15.9952C21.332 16.1195 21.2985 16.2132 21.217 16.3086C20.1436 17.5657 19.0742 18.8262 18.0037 20.086C17.7955 20.3309 17.5851 20.5736 17.3796 20.8209C17.2051 21.0308 17.087 21.2703 17.0406 21.541C16.9683 21.9639 16.9005 22.3875 16.8319 22.8112C16.8013 22.9992 16.8027 22.9997 16.6044 22.9997C14.9345 22.9997 13.2648 22.9997 11.5949 22.9997C11.3583 22.9997 11.1217 23.0005 10.8851 22.9994C10.3701 22.9968 10.0075 22.6356 10.0073 22.1207C10.0065 19.9152 10.007 17.7096 10.0067 15.5042H10.007ZM15.6679 12.8649C16.1901 12.8649 16.7124 12.8649 17.2346 12.8649C17.8549 12.8649 18.4755 12.8662 19.0959 12.8635C19.2976 12.8627 19.4474 12.7647 19.5299 12.5808C19.6103 12.4014 19.5811 12.2288 19.4557 12.0787C19.3437 11.9447 19.1902 11.9114 19.0219 11.9117C16.7858 11.913 14.5494 11.9125 12.3133 11.9125C12.2731 11.9125 12.2327 11.9114 12.193 11.9165C11.8546 11.9584 11.6598 12.3131 11.8171 12.605C11.9157 12.7881 12.074 12.8659 12.2804 12.8657C13.4095 12.8638 14.539 12.8649 15.6681 12.8649H15.6679ZM15.6829 9.78576C14.7097 9.78576 13.7364 9.78576 12.7629 9.78576C12.5711 9.78576 12.3784 9.77851 12.1871 9.79033C11.8428 9.81154 11.648 10.2078 11.8334 10.4992C11.9328 10.6554 12.074 10.7241 12.2613 10.7239C14.5293 10.7215 16.7973 10.7225 19.0653 10.7223C19.0967 10.7223 19.128 10.7217 19.1588 10.7188C19.4212 10.6941 19.6152 10.4299 19.5616 10.1713C19.5101 9.92323 19.3338 9.7863 19.0578 9.78603C17.9327 9.78523 16.8078 9.78576 15.6826 9.78549L15.6829 9.78576ZM15.6647 14.9929V14.9937C16.4415 14.9937 17.2183 14.994 17.9951 14.9937C18.3745 14.9937 18.7539 14.9983 19.1334 14.9892C19.4249 14.9819 19.6267 14.6981 19.5551 14.4157C19.4943 14.1759 19.3209 14.0556 19.0307 14.0556C16.7895 14.0556 14.5486 14.0556 12.3074 14.0556C12.2761 14.0556 12.245 14.0556 12.2136 14.057C11.9537 14.0701 11.7576 14.2828 11.764 14.5438C11.7707 14.8034 11.9749 14.9916 12.2629 14.9921C13.3969 14.994 14.5309 14.9929 15.6647 14.9929ZM14.1065 17.1342C14.7268 17.1342 15.3471 17.1366 15.9677 17.1331C16.2509 17.1315 16.4455 16.9355 16.4474 16.6649C16.449 16.3964 16.2523 16.1856 15.9774 16.1848C14.7322 16.181 13.487 16.1824 12.2418 16.184C12.092 16.184 11.962 16.2425 11.8685 16.3636C11.7525 16.5142 11.7251 16.682 11.8079 16.8552C11.8942 17.0356 12.0424 17.1334 12.2452 17.1336C12.8656 17.1347 13.4859 17.1342 14.1065 17.1345V17.1342Z" fill="#FF4521"/>
<path d="M17.6384 22.8555C17.7086 22.446 17.7748 22.0358 17.8511 21.6277C17.8817 21.4644 17.9945 21.3417 18.0987 21.219C18.8627 20.3206 19.6274 19.4228 20.3916 18.5247C20.9908 17.8204 21.5908 17.117 22.1878 16.4108C22.2462 16.3416 22.2789 16.3319 22.3528 16.3966C22.6647 16.6707 22.9815 16.9395 23.3019 17.2034C23.3896 17.2756 23.3898 17.3267 23.3194 17.4091C22.7301 18.098 22.143 18.7889 21.5562 19.48C20.9319 20.2154 20.3083 20.9519 19.6842 21.6878C19.5052 21.8989 19.326 22.1102 19.1456 22.3201C19.0508 22.4307 18.9348 22.5108 18.7962 22.5596C18.4511 22.6815 18.107 22.8061 17.7624 22.9296C17.693 22.9543 17.6231 22.9793 17.6378 22.8555H17.6384Z" fill="#FF4521"/>
<path d="M24.1167 16.2684C24.1282 16.5187 23.9516 16.6682 23.7992 16.8299C23.7518 16.8803 23.7175 16.8256 23.6869 16.8001C23.4168 16.5732 23.1483 16.3442 22.8793 16.1157C22.8691 16.1071 22.8597 16.0974 22.8495 16.0886C22.6961 15.9539 22.6865 15.8099 22.8209 15.6565C23.0427 15.4034 23.3295 15.3733 23.5923 15.5803C23.715 15.6769 23.8346 15.7779 23.9503 15.8829C24.0615 15.9833 24.1202 16.1111 24.1164 16.2684H24.1167Z" fill="#FF4521"/>
</svg>
