<svg width="51" height="50" viewBox="0 0 51 50" fill="none" xmlns="http://www.w3.org/2000/svg">
<path d="M49.0952 24.991C49.0952 11.7477 38.3476 1 25.1043 1C11.861 1 1.11328 11.7477 1.11328 24.991C1.11328 38.2343 11.861 48.982 25.1043 48.982C38.3476 48.982 49.0952 38.2343 49.0952 24.991Z" fill="#FF4521" stroke="white" stroke-width="2"/>
<path d="M36.1896 23.8961C36.1896 18.883 31.1573 14.8101 24.9457 14.8101C18.734 14.8101 13.7018 18.883 13.8591 23.8961C13.8591 25.9326 14.6453 27.8127 16.0606 29.3009C16.0606 29.3009 14.6453 33.4523 15.1957 33.7656C16.0606 34.3139 20.6211 32.2773 21.5647 32.5123C23.2159 32.9039 25.0243 33.0607 26.7541 32.8257C32.1009 32.1991 36.1896 28.4392 36.1896 23.8961Z" fill="white"/>
<path fill-rule="evenodd" clip-rule="evenodd" d="M20.3561 22.6907C21.1143 22.6907 21.7346 23.2439 21.7346 23.9353C21.7346 24.6268 21.1832 25.3182 20.4939 25.3182C19.7357 25.3182 19.1153 24.765 19.1153 24.0736V24.0044C19.0464 23.3129 19.5979 22.6907 20.3561 22.6907Z" fill="#FF4521"/>
<path fill-rule="evenodd" clip-rule="evenodd" d="M24.9517 22.6907C25.7123 22.6907 26.3346 23.2439 26.3346 23.9353C26.3346 24.6268 25.7814 25.3182 25.09 25.3182C24.3293 25.3182 23.707 24.765 23.707 24.0736V24.0044C23.707 23.3129 24.2602 22.6907 24.9517 22.6907Z" fill="#FF4521"/>
<path fill-rule="evenodd" clip-rule="evenodd" d="M29.5513 22.6909C30.3119 22.6909 30.9342 23.2441 30.9342 23.9356C30.9342 24.627 30.381 25.3185 29.6896 25.3185C28.929 25.3185 28.3066 24.7653 28.3066 24.0738V24.0046C28.3066 23.3132 28.8598 22.6909 29.5513 22.6909Z" fill="#FF4521"/>
</svg>
