<svg width="51" height="50" viewBox="0 0 51 50" fill="none" xmlns="http://www.w3.org/2000/svg">
<path d="M49.0952 24.991C49.0952 11.7477 38.3476 1 25.1043 1C11.861 1 1.11328 11.7477 1.11328 24.991C1.11328 38.2343 11.861 48.982 25.1043 48.982C38.3476 48.982 49.0952 38.2343 49.0952 24.991Z" fill="#FF4521" stroke="white" stroke-width="2"/>
<path d="M15.0117 25.5069C15.0117 21.8607 15.0282 18.2146 15.0001 14.5684C14.9929 13.6439 15.7075 12.9968 16.56 12.9999C21.8285 13.0187 27.097 13.0093 32.3651 13.0093C33.2931 13.0093 33.8826 13.6027 33.8826 14.5371C33.8831 18.4665 33.8818 22.3959 33.8867 26.3253C33.8867 26.5325 33.8308 26.6887 33.6951 26.8476C31.906 28.9427 30.1236 31.0437 28.3395 33.1433C27.9925 33.5514 27.6419 33.956 27.2994 34.3681C27.0086 34.7181 26.8117 35.1172 26.7344 35.5683C26.6138 36.2731 26.5008 36.9792 26.3865 37.6854C26.3356 37.9986 26.3378 37.9995 26.0073 37.9995C23.2241 37.9995 20.4414 37.9995 17.6582 37.9995C17.2639 37.9995 16.8695 38.0009 16.4752 37.9991C15.6168 37.9946 15.0126 37.3927 15.0121 36.5344C15.0108 32.8587 15.0117 29.1826 15.0112 25.5069H15.0117ZM24.4465 21.108C25.3169 21.108 26.1873 21.108 27.0577 21.108C28.0916 21.108 29.1259 21.1103 30.1598 21.1058C30.4961 21.1045 30.7457 20.9411 30.8833 20.6346C31.0173 20.3357 30.9686 20.0479 30.7596 19.7978C30.5729 19.5745 30.317 19.519 30.0366 19.5194C26.3097 19.5217 22.5824 19.5208 18.8555 19.5208C18.7885 19.5208 18.7211 19.519 18.655 19.5275C18.091 19.5973 17.7663 20.1884 18.0284 20.6749C18.1928 20.9801 18.4567 21.1098 18.8006 21.1094C20.6826 21.1062 22.565 21.108 24.4469 21.108H24.4465ZM24.4715 15.9762C22.8495 15.9762 21.2274 15.9762 19.6049 15.9762C19.2852 15.9762 18.9641 15.9641 18.6452 15.9838C18.0713 16.0192 17.7466 16.6797 18.0557 17.1652C18.2214 17.4256 18.4567 17.5402 18.7689 17.5397C22.5489 17.5357 26.3289 17.5375 30.1089 17.537C30.1612 17.537 30.2134 17.5362 30.2648 17.5312C30.702 17.4901 31.0253 17.0497 30.936 16.6188C30.8503 16.2053 30.5564 15.9771 30.0964 15.9766C28.2211 15.9753 26.3463 15.9762 24.4711 15.9757L24.4715 15.9762ZM24.4411 24.6549V24.6562C25.7358 24.6562 27.0305 24.6566 28.3252 24.6562C28.9576 24.6562 29.59 24.6638 30.2223 24.6486C30.7082 24.6365 31.0445 24.1635 30.9253 23.6927C30.8239 23.2931 30.535 23.0927 30.0513 23.0927C26.3159 23.0927 22.581 23.0927 18.8457 23.0927C18.7935 23.0927 18.7416 23.0927 18.6894 23.0949C18.2562 23.1168 17.9293 23.4712 17.94 23.9062C17.9512 24.3389 18.2915 24.6526 18.7716 24.6535C20.6616 24.6566 22.5516 24.6549 24.4411 24.6549ZM21.8442 28.2236C22.878 28.2236 23.9119 28.2276 24.9462 28.2218C25.4183 28.2191 25.7425 27.8925 25.7456 27.4414C25.7483 26.9939 25.4205 26.6426 24.9623 26.6413C22.887 26.635 20.8116 26.6372 18.7363 26.6399C18.4866 26.6399 18.27 26.7375 18.1142 26.9393C17.9208 27.1903 17.8752 27.47 18.0132 27.7587C18.1571 28.0594 18.404 28.2223 18.7421 28.2227C19.776 28.2245 20.8098 28.2236 21.8442 28.2241V28.2236Z" fill="white"/>
<path d="M27.7306 37.7592C27.8476 37.0767 27.9579 36.393 28.0852 35.7128C28.1361 35.4407 28.3241 35.2362 28.4978 35.0317C29.7711 33.5344 31.0457 32.038 32.3194 30.5411C33.318 29.3673 34.3179 28.1949 35.3129 27.018C35.4103 26.9026 35.4648 26.8864 35.588 26.9943C36.1079 27.4512 36.6357 27.8991 37.1699 28.339C37.3159 28.4594 37.3164 28.5444 37.1989 28.6818C36.2168 29.83 35.2383 30.9814 34.2603 32.1333C33.2197 33.359 32.1805 34.5864 31.1404 35.813C30.842 36.1647 30.5433 36.5169 30.2427 36.8669C30.0846 37.0512 29.8912 37.1846 29.6603 37.266C29.0851 37.4692 28.5117 37.6768 27.9374 37.8827C27.8217 37.9238 27.7051 37.9655 27.7297 37.7592H27.7306Z" fill="white"/>
<path d="M38.5279 26.7807C38.5471 27.1978 38.2528 27.447 37.9987 27.7164C37.9196 27.8005 37.8624 27.7092 37.8115 27.6667C37.3614 27.2886 36.9139 26.9069 36.4655 26.5261C36.4485 26.5118 36.4329 26.4956 36.4159 26.4809C36.1602 26.2565 36.1442 26.0165 36.3681 25.7609C36.7379 25.3389 37.2158 25.2888 37.6539 25.6338C37.8584 25.7949 38.0576 25.9631 38.2505 26.1381C38.4359 26.3055 38.5337 26.5185 38.5274 26.7807H38.5279Z" fill="white"/>
</svg>
