<svg width="32" height="32" viewBox="0 0 32 32" fill="none" xmlns="http://www.w3.org/2000/svg">
<path d="M12.1305 17.7278C12.2059 17.6901 12.2436 17.6524 12.2813 17.6147C12.319 17.577 12.319 17.5016 12.319 17.4262V12.9026C12.319 12.8272 12.2813 12.7141 12.2436 12.6764C12.2059 12.601 12.0928 12.5633 12.0175 12.5633H9.37867C8.81322 12.6764 8.32316 12.978 7.94619 13.4681C7.56922 13.9581 7.38074 14.5236 7.38074 15.1644C7.34304 16.6346 8.28546 17.3131 8.964 17.577L10.7735 21.6483C10.8112 21.686 10.8488 21.7614 10.8865 21.7991C10.9242 21.8368 10.9996 21.8368 11.0373 21.8368H12.7714C12.8091 21.8368 12.8468 21.8368 12.9222 21.7991C12.9599 21.7614 12.9976 21.7614 13.0353 21.686C13.073 21.6483 13.073 21.6106 13.073 21.5352C13.073 21.4975 13.073 21.4221 13.073 21.3844L12.1305 17.7278Z" fill="#FF4521"/>
<path d="M19.9714 12.6765C20.0467 12.6765 20.0844 12.6388 20.1221 12.6388L22.6101 10.8293C22.6478 10.7916 22.6855 10.7539 22.7232 10.6786C22.7609 10.6032 22.7609 10.5655 22.7232 10.4901C22.7232 10.4147 22.6855 10.377 22.6478 10.3393C22.6101 10.3016 22.5347 10.2639 22.497 10.2639C22.4593 10.2639 22.4216 10.2639 22.3839 10.2639C22.3463 10.2639 22.3086 10.3016 22.2709 10.3016L19.7829 12.111C19.7452 12.111 19.7075 12.1864 19.7075 12.2241C19.6698 12.2995 19.6698 12.3749 19.7075 12.4126C19.7075 12.488 19.7829 12.5257 19.8206 12.5634C19.8583 12.6388 19.896 12.6765 19.9714 12.6765Z" fill="#FF4521"/>
<path d="M24.3068 14.6367L19.7831 14.7121C19.7077 14.7121 19.6324 14.7498 19.557 14.8251C19.5193 14.9005 19.4816 14.9759 19.4816 15.0513C19.4816 15.1267 19.5193 15.2398 19.557 15.2775C19.6324 15.3529 19.7077 15.3906 19.7831 15.3906L24.3068 15.3152C24.3445 15.3152 24.3822 15.3152 24.4199 15.2775C24.4576 15.2775 24.4953 15.2398 24.5329 15.2021C24.5706 15.1644 24.5706 15.1267 24.6083 15.089C24.6083 15.0513 24.646 15.0136 24.646 14.9759C24.646 14.9382 24.646 14.9005 24.6083 14.8628C24.6083 14.8251 24.5706 14.7875 24.5329 14.7498C24.4953 14.7121 24.4576 14.7121 24.4199 14.6744C24.3822 14.6367 24.3445 14.6367 24.3068 14.6367Z" fill="#FF4521"/>
<path d="M19.7455 17.1247C19.7078 17.087 19.6701 17.087 19.6324 17.087C19.5947 17.087 19.557 17.087 19.5193 17.087C19.4816 17.087 19.4439 17.1247 19.4062 17.1247C19.3685 17.1624 19.3308 17.1624 19.3308 17.2001C19.2931 17.2378 19.2931 17.2755 19.2931 17.3132C19.2931 17.3509 19.2931 17.3886 19.2931 17.4263C19.2931 17.464 19.3308 17.5017 19.3308 17.5394C19.3685 17.5771 19.3685 17.6148 19.4062 17.6148L21.8942 19.4242C21.9696 19.4619 22.045 19.4996 22.1204 19.4619C22.1957 19.4619 22.2711 19.3866 22.3088 19.3112C22.3465 19.2358 22.3842 19.1604 22.3465 19.0473C22.3465 18.9719 22.2711 18.8965 22.2334 18.8211L19.7455 17.1247Z" fill="#FF4521"/>
<path d="M18.652 10.1508C18.6143 10.1131 18.5766 10.0377 18.5389 10.0377C18.5012 10 18.4258 10 18.3504 10C18.275 10 18.2373 10.0377 18.1996 10.0754C17.9357 10.3393 17.7095 10.5655 17.408 10.7539C15.4854 12.2241 12.9974 12.6388 12.9974 12.6765C12.9597 12.6765 12.922 12.7142 12.8843 12.7142C12.8466 12.7519 12.8089 12.7519 12.8089 12.7896C12.7712 12.8273 12.7712 12.865 12.7712 12.9027V12.9404V17.1247C12.7712 17.1247 12.7712 17.1247 12.7712 17.1624C12.7712 17.2001 12.7712 17.2378 12.8089 17.3132C12.8089 17.3509 12.8466 17.3886 12.8843 17.4263C12.922 17.464 12.9597 17.464 12.9597 17.5017C12.9974 17.5017 13.0351 17.5017 13.0728 17.5017C14.5053 17.464 16.277 18.5572 17.4833 19.4619C17.9357 19.8012 18.2373 20.0651 18.2373 20.0651C18.275 20.1028 18.3504 20.1405 18.3881 20.1405C18.4258 20.1405 18.5012 20.1405 18.5389 20.1028C18.5766 20.0651 18.6143 20.0274 18.652 19.9897C18.6896 19.952 18.6896 19.8766 18.6896 19.8012V10.3393C18.6896 10.2639 18.6896 10.2262 18.652 10.1508Z" fill="#FF4521"/>
<circle cx="15.8905" cy="16.1898" r="15.3745" stroke="#FF4521" stroke-width="0.2"/>
</svg>
