<svg width="32" height="32" viewBox="0 0 32 32" fill="none" xmlns="http://www.w3.org/2000/svg">
<path d="M18.5463 12.9924C17.1807 13.0087 15.8712 13.5376 14.8773 14.4742C14.3784 14.9403 13.9959 15.5172 13.7609 16.1582C13.5258 16.7993 13.4447 17.4867 13.5242 18.1648C12.9674 18.0958 12.4604 18.0198 11.9505 17.9771C11.7673 17.9564 11.5821 17.9878 11.416 18.0677C10.9207 18.3473 10.4458 18.6625 9.88328 19.0145C9.98678 18.5467 10.0534 18.1373 10.1716 17.7455C10.2258 17.6316 10.2332 17.5009 10.1922 17.3815C10.1513 17.2621 10.0651 17.1635 9.95228 17.1069C8.24236 15.8999 7.52132 14.093 8.06108 12.2328C8.29412 11.4362 8.72873 10.7132 9.32289 10.1336C9.91706 9.55413 10.6507 9.1377 11.4528 8.92461C12.55 8.56029 13.7322 8.53925 14.8417 8.86431C15.9511 9.18937 16.935 9.84506 17.6621 10.7439C18.168 11.3922 18.4751 12.1732 18.5463 12.9924ZM11.9908 12.4129C11.991 12.243 11.9252 12.0796 11.8075 11.9572C11.6897 11.8347 11.529 11.7627 11.3593 11.7561C11.2751 11.7527 11.1911 11.766 11.112 11.7952C11.033 11.8244 10.9606 11.869 10.8988 11.9263C10.8371 11.9837 10.7874 12.0527 10.7525 12.1294C10.7176 12.2061 10.6983 12.2889 10.6955 12.3731C10.6923 12.4574 10.7061 12.5414 10.736 12.6203C10.7658 12.6991 10.8112 12.7712 10.8695 12.8321C10.9277 12.8931 10.9976 12.9418 11.075 12.9752C11.1524 13.0087 11.2358 13.0262 11.3201 13.0269C11.4901 13.033 11.6557 12.972 11.7811 12.8571C11.9066 12.7423 11.9819 12.5827 11.9908 12.4129ZM15.4113 11.7561C15.2411 11.7598 15.0789 11.8293 14.959 11.95C14.839 12.0707 14.7705 12.2333 14.768 12.4035C14.7698 12.4882 14.7883 12.5717 14.8225 12.6492C14.8567 12.7267 14.9058 12.7967 14.9671 12.8551C15.0284 12.9136 15.1006 12.9594 15.1797 12.9899C15.2587 13.0203 15.343 13.0349 15.4276 13.0327C15.5113 13.0316 15.5939 13.0141 15.6707 12.981C15.7475 12.948 15.8171 12.9001 15.8755 12.8402C15.9338 12.7803 15.9798 12.7095 16.0108 12.6318C16.0417 12.5541 16.0571 12.4711 16.056 12.3874C16.0549 12.3038 16.0373 12.2212 16.0043 12.1444C15.9712 12.0675 15.9234 11.9979 15.8635 11.9396C15.8035 11.8813 15.7327 11.8353 15.655 11.8043C15.5773 11.7733 15.4943 11.758 15.4107 11.7591L15.4113 11.7561Z" fill="#FF4521"/>
<path d="M21.7465 21.873C21.3407 21.6273 20.9009 21.4427 20.4413 21.325C19.9813 21.3667 19.5262 21.4518 19.0823 21.5794C18.4175 21.6632 17.7425 21.599 17.1056 21.3912C16.4686 21.1834 15.8855 20.8373 15.3981 20.3777C13.4332 18.5602 13.7139 15.7743 15.9876 14.2848C16.9923 13.6485 18.1923 13.3948 19.3686 13.5701C20.5448 13.7453 21.6188 14.3377 22.3945 15.2392C23.0024 15.9721 23.2989 16.914 23.2203 17.863C23.1417 18.8119 22.6942 19.6923 21.974 20.3151C21.5348 20.7046 21.377 21.0251 21.6582 21.5391C21.7008 21.6465 21.7305 21.7586 21.7465 21.873ZM16.6127 16.9023C16.6824 16.9025 16.7515 16.889 16.8159 16.8626C16.8804 16.8361 16.939 16.7972 16.9885 16.7481C17.0379 16.699 17.0772 16.6406 17.1041 16.5763C17.131 16.512 17.1449 16.4431 17.1452 16.3734C17.1454 16.3037 17.1319 16.2346 17.1054 16.1702C17.079 16.1057 17.0401 16.047 16.991 15.9976C16.9418 15.9482 16.8835 15.9089 16.8192 15.882C16.7549 15.8551 16.6859 15.8412 16.6162 15.8409C16.545 15.8383 16.4741 15.8501 16.4076 15.8755C16.3411 15.9009 16.2803 15.9394 16.229 15.9887C16.1776 16.0381 16.1367 16.0972 16.1087 16.1627C16.0807 16.2282 16.0662 16.2986 16.0659 16.3698C16.0657 16.441 16.0798 16.5115 16.1074 16.5772C16.1349 16.6428 16.1754 16.7023 16.2265 16.7519C16.2775 16.8016 16.3379 16.8405 16.4043 16.8664C16.4707 16.8922 16.5415 16.9044 16.6127 16.9023ZM19.9226 15.8421C19.7865 15.8432 19.6561 15.8964 19.5581 15.9909C19.4602 16.0853 19.4023 16.2138 19.3963 16.3497C19.3927 16.4203 19.4035 16.4909 19.428 16.5572C19.4525 16.6235 19.4902 16.6841 19.5388 16.7354C19.5874 16.7868 19.6459 16.8277 19.7107 16.8558C19.7756 16.8839 19.8455 16.8985 19.9162 16.8988C20.0525 16.9012 20.1843 16.8496 20.2829 16.7553C20.3814 16.661 20.4388 16.5316 20.4425 16.3953C20.4462 16.3244 20.4355 16.2535 20.4111 16.1868C20.3867 16.1201 20.349 16.0591 20.3004 16.0074C20.2518 15.9556 20.1932 15.9143 20.1282 15.8857C20.0631 15.8572 19.993 15.8422 19.922 15.8415L19.9226 15.8421Z" fill="#FF4521"/>
<circle cx="15.8905" cy="15.5985" r="15.3745" stroke="#FF4521" stroke-width="0.2"/>
</svg>
