<svg width="32" height="32" viewBox="0 0 32 32" fill="none" xmlns="http://www.w3.org/2000/svg">
<path d="M15.8429 9.59125C11.9676 9.59125 8.83176 12.1619 8.92921 15.3245C8.92921 16.607 9.42223 17.7966 10.3051 18.7366C10.3051 18.7366 9.42223 21.3538 9.76619 21.5511C10.3051 21.8992 13.1485 20.611 13.739 20.7619C14.7709 21.0114 15.8945 21.11 16.9722 20.9592C20.3029 20.5646 22.854 18.1912 22.854 15.3245C22.854 12.1619 19.7125 9.59125 15.8429 9.59125ZM13.0682 16.224C12.5982 16.224 12.2083 15.8758 12.2083 15.4406V15.3942C12.1682 14.9589 12.5064 14.5643 12.9823 14.5643C13.4581 14.5643 13.8422 14.9125 13.8422 15.3477C13.8422 15.783 13.4982 16.2182 13.0682 16.2182V16.224ZM15.9346 16.224C15.4588 16.224 15.0747 15.8758 15.0747 15.4406V15.3942C15.0747 14.9589 15.4187 14.5643 15.8486 14.5643C16.3244 14.5643 16.7085 14.9125 16.7085 15.3477C16.7085 15.783 16.3646 16.2182 15.9346 16.2182V16.224ZM18.801 16.224C18.3252 16.224 17.9411 15.8758 17.9411 15.4406V15.3942C17.9411 14.9589 18.285 14.5643 18.715 14.5643C19.1908 14.5643 19.5749 14.9125 19.5749 15.3477C19.5749 15.783 19.2309 16.2182 18.801 16.2182V16.224Z" fill="#FF4521"/>
<circle cx="15.8905" cy="15.781" r="15.3745" stroke="#FF4521" stroke-width="0.2"/>
</svg>
