<svg width="49" height="48" viewBox="0 0 49 48" fill="none" xmlns="http://www.w3.org/2000/svg">
<path d="M47.0952 23.991C47.0952 11.2945 36.8008 1 24.1043 1C11.4078 1 1.11328 11.2945 1.11328 23.991C1.11328 36.6875 11.4078 46.982 24.1043 46.982C36.8008 46.982 47.0952 36.6875 47.0952 23.991Z" fill="#FF4521" stroke="white" stroke-width="2"/>
<path d="M18.2021 28.1775C18.3394 28.1088 18.408 28.0402 18.4767 27.9716C18.5453 27.9029 18.5453 27.7657 18.5453 27.6284V19.3928C18.5453 19.2556 18.4767 19.0497 18.408 18.9811C18.3394 18.8438 18.1335 18.7752 17.9963 18.7752H13.1922C12.1627 18.9811 11.2705 19.5301 10.5842 20.4223C9.89794 21.3145 9.55479 22.3439 9.55479 23.5106C9.48616 26.1872 11.2019 27.4225 12.4372 27.9029L15.7315 35.315C15.8001 35.3836 15.8687 35.5208 15.9374 35.5895C16.006 35.6581 16.1433 35.6581 16.2119 35.6581H19.3689C19.4375 35.6581 19.5061 35.6581 19.6434 35.5895C19.712 35.5208 19.7806 35.5208 19.8493 35.3836C19.9179 35.315 19.9179 35.2463 19.9179 35.1091C19.9179 35.0404 19.9179 34.9032 19.9179 34.8345L18.2021 28.1775Z" fill="white"/>
<path d="M32.4771 18.981C32.6144 18.981 32.683 18.9124 32.7517 18.9124L37.2812 15.6182C37.3498 15.5495 37.4185 15.4809 37.4871 15.3437C37.5557 15.2064 37.5557 15.1378 37.4871 15.0005C37.4871 14.8632 37.4185 14.7946 37.3498 14.726C37.2812 14.6574 37.144 14.5887 37.0753 14.5887C37.0067 14.5887 36.9381 14.5887 36.8694 14.5887C36.8008 14.5887 36.7322 14.6574 36.6635 14.6574L32.134 17.9516C32.0654 17.9516 31.9967 18.0888 31.9967 18.1575C31.9281 18.2947 31.9281 18.432 31.9967 18.5006C31.9967 18.6379 32.134 18.7065 32.2026 18.7751C32.2712 18.9124 32.3399 18.981 32.4771 18.981Z" fill="white"/>
<path d="M40.3706 22.5493L32.135 22.6866C31.9977 22.6866 31.8605 22.7552 31.7232 22.8925C31.6546 23.0297 31.5859 23.167 31.5859 23.3042C31.5859 23.4415 31.6546 23.6474 31.7232 23.716C31.8605 23.8533 31.9977 23.9219 32.135 23.9219L40.3706 23.7847C40.4392 23.7847 40.5078 23.7847 40.5764 23.716C40.6451 23.716 40.7137 23.6474 40.7823 23.5788C40.851 23.5101 40.851 23.4415 40.9196 23.3729C40.9196 23.3042 40.9882 23.2356 40.9882 23.167C40.9882 23.0984 40.9882 23.0297 40.9196 22.9611C40.9196 22.8925 40.851 22.8238 40.7823 22.7552C40.7137 22.6866 40.6451 22.6866 40.5764 22.6179C40.5078 22.5493 40.4392 22.5493 40.3706 22.5493Z" fill="white"/>
<path d="M32.0657 27.0794C31.9971 27.0107 31.9285 27.0107 31.8599 27.0107C31.7912 27.0107 31.7226 27.0107 31.654 27.0107C31.5853 27.0107 31.5167 27.0794 31.4481 27.0794C31.3794 27.148 31.3108 27.148 31.3108 27.2166C31.2422 27.2853 31.2422 27.3539 31.2422 27.4225C31.2422 27.4911 31.2422 27.5598 31.2422 27.6284C31.2422 27.697 31.3108 27.7657 31.3108 27.8343C31.3794 27.9029 31.3794 27.9716 31.4481 27.9716L35.9776 31.2658C36.1149 31.3344 36.2522 31.403 36.3894 31.3344C36.5267 31.3344 36.6639 31.1972 36.7326 31.0599C36.8012 30.9226 36.8698 30.7854 36.8012 30.5795C36.8012 30.4422 36.6639 30.305 36.5953 30.1677L32.0657 27.0794Z" fill="white"/>
<path d="M30.0754 14.3829C30.0068 14.3143 29.9381 14.177 29.8695 14.177C29.8009 14.1084 29.6636 14.1084 29.5264 14.1084C29.3891 14.1084 29.3205 14.177 29.2518 14.2457C28.7714 14.7261 28.3596 15.1378 27.8106 15.481C24.3105 18.1576 19.7809 18.9125 19.7809 18.9811C19.7123 18.9811 19.6437 19.0497 19.575 19.0497C19.5064 19.1184 19.4378 19.1184 19.4378 19.187C19.3691 19.2556 19.3691 19.3243 19.3691 19.3929V19.4615V27.0794C19.3691 27.0794 19.3691 27.0794 19.3691 27.1481C19.3691 27.2167 19.3691 27.2853 19.4378 27.4226C19.4378 27.4912 19.5064 27.5598 19.575 27.6285C19.6437 27.6971 19.7123 27.6971 19.7123 27.7657C19.7809 27.7657 19.8495 27.7657 19.9182 27.7657C22.5261 27.6971 25.7517 29.6874 27.9479 31.3345C28.7714 31.9521 29.3205 32.4326 29.3205 32.4326C29.3891 32.5012 29.5264 32.5698 29.595 32.5698C29.6636 32.5698 29.8009 32.5698 29.8695 32.5012C29.9381 32.4326 30.0068 32.3639 30.0754 32.2953C30.144 32.2267 30.144 32.0894 30.144 31.9521V14.7261C30.144 14.5888 30.144 14.5202 30.0754 14.3829Z" fill="white"/>
</svg>
