<svg width="32" height="32" viewBox="0 0 32 32" fill="none" xmlns="http://www.w3.org/2000/svg">
<path d="M22.7618 14.5769C22.5493 14.2323 22.1185 14.06 21.6475 14.06H15.5991V12.13C15.5991 11.1018 15.2143 10.1139 14.4848 9.3844C13.7553 8.65492 12.7731 8.27008 11.7392 8.27008C10.7053 8.27008 9.72881 8.66067 8.99933 9.39015C8.26985 10.1196 7.88501 11.1076 7.88501 12.1357V14.1059C7.88501 14.2782 7.97117 14.4046 8.05733 14.5367C8.18369 14.6631 8.3158 14.709 8.48812 14.709H9.17165C9.34397 14.709 9.47033 14.6229 9.60244 14.5367C9.72881 14.4103 9.77476 14.2782 9.77476 14.1059V12.1357C9.77476 11.6188 9.98729 11.1478 10.3319 10.7629C10.6766 10.4183 11.1878 10.2058 11.7047 10.2058C12.2217 10.2058 12.6927 10.4183 13.0775 10.7629C13.4222 11.1076 13.6347 11.6188 13.6347 12.1357V14.0657H13.3762C12.9454 14.0657 12.5204 14.238 12.2217 14.5367C11.923 14.8354 11.7507 15.2662 11.7507 15.6912V21.9923C11.7507 22.4231 11.923 22.8482 12.2217 23.1469C12.5204 23.4455 12.9512 23.6179 13.3762 23.6179H21.6073C22.0381 23.6179 22.4631 23.4455 22.7618 23.1469C23.0605 22.8482 23.2328 22.4174 23.2328 21.9923V15.7372C23.2328 15.3064 23.0605 14.8813 22.7618 14.5769ZM18.3907 18.5632L17.8737 19.0802V20.3208C17.8737 20.3611 17.8335 20.407 17.7875 20.4472C17.7473 20.4874 17.7014 20.4874 17.7014 20.5334C17.6612 20.5334 17.6152 20.5736 17.575 20.5736C17.5348 20.5736 17.4889 20.5736 17.4487 20.5334C17.4084 20.5334 17.3625 20.4932 17.3625 20.4472C17.3223 20.407 17.3223 20.3611 17.2763 20.3208C17.2763 20.2806 17.2361 20.2347 17.2361 20.1945V19.0802L16.7192 18.5632C16.633 18.477 16.5928 18.3507 16.5928 18.2186C16.5928 17.9601 16.679 17.7016 16.8915 17.535C17.0638 17.3627 17.3223 17.2364 17.575 17.2364C17.8278 17.2364 18.092 17.3225 18.2585 17.535C18.4309 17.7074 18.5572 17.9658 18.5572 18.2186C18.517 18.3449 18.4711 18.477 18.3849 18.5632H18.3907Z" fill="#FF4521"/>
<circle cx="15.8905" cy="16.0073" r="15.3745" stroke="#FF4521" stroke-width="0.2"/>
</svg>
