<svg id="esi4ylsacww1" xmlns="http://www.w3.org/2000/svg" xmlns:xlink="http://www.w3.org/1999/xlink" viewBox="0 0 200 200" shape-rendering="geometricPrecision" text-rendering="geometricPrecision"><style><![CDATA[#esi4ylsacww3_to {animation: esi4ylsacww3_to__to 2300ms linear infinite normal forwards}@keyframes esi4ylsacww3_to__to { 0% {transform: translate(0px,0px)} 8.695652% {transform: translate(0px,0px);animation-timing-function: cubic-bezier(0.175000,0.885000,0.320000,1.275000)} 34.782609% {transform: translate(0px,10px);animation-timing-function: cubic-bezier(0.175000,0.885000,0.320000,1.275000)} 52.173913% {transform: translate(0px,0px)} 100% {transform: translate(0px,0px)} }#esi4ylsacww6_to {animation: esi4ylsacww6_to__to 2300ms linear infinite normal forwards}@keyframes esi4ylsacww6_to__to { 0% {transform: translate(0px,0px)} 8.695652% {transform: translate(0px,0px);animation-timing-function: cubic-bezier(0.175000,0.885000,0.320000,1.275000)} 34.782609% {transform: translate(0px,10px);animation-timing-function: cubic-bezier(0.175000,0.885000,0.320000,1.275000)} 52.173913% {transform: translate(0px,0px)} 100% {transform: translate(0px,0px)} }#esi4ylsacww9_to {animation: esi4ylsacww9_to__to 2300ms linear infinite normal forwards}@keyframes esi4ylsacww9_to__to { 0% {transform: translate(0px,0px)} 8.695652% {transform: translate(0px,0px);animation-timing-function: cubic-bezier(0.175000,0.885000,0.320000,1.275000)} 34.782609% {transform: translate(0px,10px);animation-timing-function: cubic-bezier(0.175000,0.885000,0.320000,1.275000)} 52.173913% {transform: translate(0px,0px)} 100% {transform: translate(0px,0px)} }#esi4ylsacww12_to {animation: esi4ylsacww12_to__to 2300ms linear infinite normal forwards}@keyframes esi4ylsacww12_to__to { 0% {transform: translate(0px,0px)} 4.347826% {transform: translate(0px,0px);animation-timing-function: cubic-bezier(0.175000,0.885000,0.320000,1.275000)} 30.434783% {transform: translate(0px,10px);animation-timing-function: cubic-bezier(0.175000,0.885000,0.320000,1.275000)} 39.130435% {transform: translate(0px,10px);animation-timing-function: cubic-bezier(0.175000,0.885000,0.320000,1.275000)} 56.521739% {transform: translate(0px,0px)} 100% {transform: translate(0px,0px)} }#esi4ylsacww15_to {animation: esi4ylsacww15_to__to 2300ms linear infinite normal forwards}@keyframes esi4ylsacww15_to__to { 0% {transform: translate(0px,0px)} 4.347826% {transform: translate(0px,0px);animation-timing-function: cubic-bezier(0.175000,0.885000,0.320000,1.275000)} 30.434783% {transform: translate(0px,10px);animation-timing-function: cubic-bezier(0.175000,0.885000,0.320000,1.275000)} 39.130435% {transform: translate(0px,10px);animation-timing-function: cubic-bezier(0.175000,0.885000,0.320000,1.275000)} 56.521739% {transform: translate(0px,0px)} 100% {transform: translate(0px,0px)} }#esi4ylsacww18_to {animation: esi4ylsacww18_to__to 2300ms linear infinite normal forwards}@keyframes esi4ylsacww18_to__to { 0% {transform: translate(0px,0px);animation-timing-function: cubic-bezier(0.175000,0.885000,0.320000,1.275000)} 26.086957% {transform: translate(0px,10px);animation-timing-function: cubic-bezier(0.175000,0.885000,0.320000,1.275000)} 43.478261% {transform: translate(0px,10px);animation-timing-function: cubic-bezier(0.175000,0.885000,0.320000,1.275000)} 60.869565% {transform: translate(0px,-10px);animation-timing-function: cubic-bezier(0.175000,0.885000,0.320000,1.275000)} 82.608696% {transform: translate(0px,0px)} 100% {transform: translate(0px,0px)} }#esi4ylsacww22_to {animation: esi4ylsacww22_to__to 2300ms linear infinite normal forwards}@keyframes esi4ylsacww22_to__to { 0% {transform: translate(0px,0px)} 8.695652% {transform: translate(0px,0px);animation-timing-function: cubic-bezier(0.175000,0.885000,0.320000,1.275000)} 34.782609% {transform: translate(0px,10px);animation-timing-function: cubic-bezier(0.175000,0.885000,0.320000,1.275000)} 52.173913% {transform: translate(0px,0px)} 100% {transform: translate(0px,0px)} }#esi4ylsacww25_to {animation: esi4ylsacww25_to__to 2300ms linear infinite normal forwards}@keyframes esi4ylsacww25_to__to { 0% {transform: translate(0px,0px)} 8.695652% {transform: translate(0px,0px);animation-timing-function: cubic-bezier(0.175000,0.885000,0.320000,1.275000)} 34.782609% {transform: translate(0px,10px);animation-timing-function: cubic-bezier(0.175000,0.885000,0.320000,1.275000)} 52.173913% {transform: translate(0px,0px)} 100% {transform: translate(0px,0px)} }#esi4ylsacww28_to {animation: esi4ylsacww28_to__to 2300ms linear infinite normal forwards}@keyframes esi4ylsacww28_to__to { 0% {transform: translate(0px,0px)} 8.695652% {transform: translate(0px,0px);animation-timing-function: cubic-bezier(0.175000,0.885000,0.320000,1.275000)} 34.782609% {transform: translate(0px,10px);animation-timing-function: cubic-bezier(0.175000,0.885000,0.320000,1.275000)} 52.173913% {transform: translate(0px,0px)} 100% {transform: translate(0px,0px)} }#esi4ylsacww31_to {animation: esi4ylsacww31_to__to 2300ms linear infinite normal forwards}@keyframes esi4ylsacww31_to__to { 0% {transform: translate(0px,0px)} 4.347826% {transform: translate(0px,0px);animation-timing-function: cubic-bezier(0.175000,0.885000,0.320000,1.275000)} 30.434783% {transform: translate(0px,10px);animation-timing-function: cubic-bezier(0.175000,0.885000,0.320000,1.275000)} 39.130435% {transform: translate(0px,10px);animation-timing-function: cubic-bezier(0.175000,0.885000,0.320000,1.275000)} 56.521739% {transform: translate(0px,0px)} 100% {transform: translate(0px,0px)} }#esi4ylsacww34_to {animation: esi4ylsacww34_to__to 2300ms linear infinite normal forwards}@keyframes esi4ylsacww34_to__to { 0% {transform: translate(0px,0px)} 4.347826% {transform: translate(0px,0px);animation-timing-function: cubic-bezier(0.175000,0.885000,0.320000,1.275000)} 30.434783% {transform: translate(0px,10px);animation-timing-function: cubic-bezier(0.175000,0.885000,0.320000,1.275000)} 39.130435% {transform: translate(0px,10px);animation-timing-function: cubic-bezier(0.175000,0.885000,0.320000,1.275000)} 56.521739% {transform: translate(0px,0px)} 100% {transform: translate(0px,0px)} }#esi4ylsacww37_to {animation: esi4ylsacww37_to__to 2300ms linear infinite normal forwards}@keyframes esi4ylsacww37_to__to { 0% {transform: translate(0px,0px);animation-timing-function: cubic-bezier(0.175000,0.885000,0.320000,1.275000)} 26.086957% {transform: translate(0px,10px);animation-timing-function: cubic-bezier(0.175000,0.885000,0.320000,1.275000)} 43.478261% {transform: translate(0px,10px);animation-timing-function: cubic-bezier(0.175000,0.885000,0.320000,1.275000)} 60.869565% {transform: translate(0px,-10px);animation-timing-function: cubic-bezier(0.175000,0.885000,0.320000,1.275000)} 82.608696% {transform: translate(0px,0px)} 100% {transform: translate(0px,0px)} }]]></style><defs><filter id="esi4ylsacww21-filter" x="-400%" width="600%" y="-400%" height="600%"><feGaussianBlur id="esi4ylsacww21-filter-blur-0" stdDeviation="1,1" result="result"/><feComponentTransfer id="esi4ylsacww21-filter-brightness-0" result="result"><feFuncR id="esi4ylsacww21-filter-brightness-0-R" type="linear" slope="1.200000"/><feFuncG id="esi4ylsacww21-filter-brightness-0-G" type="linear" slope="1.200000"/><feFuncB id="esi4ylsacww21-filter-brightness-0-B" type="linear" slope="1.200000"/></feComponentTransfer></filter></defs><g id="esi4ylsacww2" transform="matrix(2 0 0 2 -648.92175293000003 -96.04000092000001)"><g id="esi4ylsacww3_to" transform="translate(0,0)"><g id="esi4ylsacww3" transform="translate(0,0)"><path id="esi4ylsacww4" d="M389.010000,127.610000L417.900000,127.610000C418.560000,127.610000,419.090000,127.080000,419.090000,126.420000C419.090000,126.290000,419.070000,126.170000,419.030000,126.050000L414.160000,111.250000C414,110.760000,413.550000,110.430000,413.030000,110.430000L393.890000,110.430000C393.380000,110.430000,392.920000,110.760000,392.760000,111.250000L387.890000,126.050000C387.690000,126.670000,388.020000,127.340000,388.650000,127.550000C388.760000,127.590000,388.890000,127.610000,389.010000,127.610000ZM394.740000,112.810000L412.170000,112.810000L416.260000,125.240000L390.650000,125.240000L394.740000,112.810000Z" fill="rgb(255,90,36)" stroke="none" stroke-width="1"/><path id="esi4ylsacww5" d="M403.210000,114.530000L396.970000,114.530000C396.460000,114.530000,396.010000,114.860000,395.840000,115.340000L393.850000,121.280000C393.630000,121.900000,393.940000,122.580000,394.560000,122.800000C395.180000,123.020000,395.860000,122.710000,396.080000,122.090000C396.090000,122.070000,396.090000,122.050000,396.100000,122.040000L397.820000,116.910000L403.200000,116.910000C403.860000,116.910000,404.390000,116.380000,404.380000,115.720000C404.390000,115.070000,403.860000,114.540000,403.210000,114.530000Z" fill="rgb(255,90,36)" stroke="none" stroke-width="1"/></g></g><g id="esi4ylsacww6_to" transform="translate(0,0)"><g id="esi4ylsacww6" transform="translate(0,0)"><path id="esi4ylsacww7" d="M360.010000,127.610000L388.900000,127.610000C389.560000,127.610000,390.090000,127.080000,390.090000,126.420000C390.090000,126.290000,390.070000,126.170000,390.030000,126.050000L385.160000,111.250000C385,110.760000,384.550000,110.430000,384.030000,110.430000L364.890000,110.430000C364.380000,110.430000,363.920000,110.760000,363.760000,111.250000L358.890000,126.050000C358.690000,126.670000,359.020000,127.340000,359.650000,127.550000C359.760000,127.590000,359.890000,127.610000,360.010000,127.610000ZM365.740000,112.810000L383.170000,112.810000L387.260000,125.240000L361.650000,125.240000L365.740000,112.810000Z" fill="rgb(255,90,36)" stroke="none" stroke-width="1"/><path id="esi4ylsacww8" d="M374.210000,114.530000L367.970000,114.530000C367.460000,114.530000,367.010000,114.860000,366.840000,115.340000L364.850000,121.280000C364.630000,121.900000,364.940000,122.580000,365.560000,122.800000C366.180000,123.020000,366.860000,122.710000,367.080000,122.090000C367.090000,122.070000,367.090000,122.050000,367.100000,122.040000L368.820000,116.910000L374.200000,116.910000C374.860000,116.910000,375.390000,116.380000,375.380000,115.720000C375.390000,115.070000,374.860000,114.540000,374.210000,114.530000Z" fill="rgb(255,90,36)" stroke="none" stroke-width="1"/></g></g><g id="esi4ylsacww9_to" transform="translate(0,0)"><g id="esi4ylsacww9" transform="translate(0,0)"><path id="esi4ylsacww10" d="M331.010000,127.610000L359.900000,127.610000C360.560000,127.610000,361.090000,127.080000,361.090000,126.420000C361.090000,126.290000,361.070000,126.170000,361.030000,126.050000L356.160000,111.250000C356,110.760000,355.550000,110.430000,355.030000,110.430000L335.890000,110.430000C335.380000,110.430000,334.920000,110.760000,334.760000,111.250000L329.890000,126.050000C329.690000,126.670000,330.020000,127.340000,330.650000,127.550000C330.760000,127.590000,330.890000,127.610000,331.010000,127.610000ZM336.740000,112.810000L354.170000,112.810000L358.260000,125.240000L332.650000,125.240000L336.740000,112.810000Z" fill="rgb(255,90,36)" stroke="none" stroke-width="1"/><path id="esi4ylsacww11" d="M345.210000,114.530000L338.970000,114.530000C338.460000,114.530000,338.010000,114.860000,337.840000,115.340000L335.850000,121.280000C335.630000,121.900000,335.940000,122.580000,336.560000,122.800000C337.180000,123.020000,337.860000,122.710000,338.080000,122.090000C338.090000,122.070000,338.090000,122.050000,338.100000,122.040000L339.820000,116.910000L345.200000,116.910000C345.860000,116.910000,346.390000,116.380000,346.380000,115.720000C346.390000,115.070000,345.860000,114.540000,345.210000,114.530000Z" fill="rgb(255,90,36)" stroke="none" stroke-width="1"/></g></g><g id="esi4ylsacww12_to" transform="translate(0,0)"><g id="esi4ylsacww12" transform="translate(0,0)"><path id="esi4ylsacww13" d="M374.520000,106.610000L403.410000,106.610000C404.070000,106.610000,404.600000,106.080000,404.600000,105.420000C404.600000,105.290000,404.580000,105.170000,404.540000,105.050000L399.670000,90.250000C399.510000,89.760000,399.060000,89.430000,398.540000,89.430000L379.400000,89.430000C378.890000,89.430000,378.430000,89.760000,378.270000,90.250000L373.400000,105.050000C373.200000,105.670000,373.530000,106.340000,374.160000,106.550000C374.270000,106.590000,374.390000,106.610000,374.520000,106.610000ZM380.250000,91.810000L397.680000,91.810000L401.770000,104.240000L376.160000,104.240000L380.250000,91.810000Z" fill="rgb(255,90,36)" stroke="none" stroke-width="1"/><path id="esi4ylsacww14" d="M388.710000,93.530000L382.470000,93.530000C381.960000,93.530000,381.510000,93.860000,381.340000,94.340000L379.350000,100.280000C379.130000,100.900000,379.440000,101.580000,380.060000,101.800000C380.680000,102.020000,381.360000,101.710000,381.580000,101.090000C381.590000,101.070000,381.590000,101.050000,381.600000,101.040000L383.320000,95.910000L388.700000,95.910000C389.360000,95.910000,389.890000,95.380000,389.880000,94.720000C389.900000,94.070000,389.370000,93.540000,388.710000,93.530000Z" fill="rgb(255,90,36)" stroke="none" stroke-width="1"/></g></g><g id="esi4ylsacww15_to" transform="translate(0,0)"><g id="esi4ylsacww15" transform="translate(0,0)"><path id="esi4ylsacww16" d="M345.520000,106.610000L374.410000,106.610000C375.070000,106.610000,375.600000,106.080000,375.600000,105.420000C375.600000,105.290000,375.580000,105.170000,375.540000,105.050000L370.670000,90.250000C370.510000,89.760000,370.060000,89.430000,369.540000,89.430000L350.400000,89.430000C349.890000,89.430000,349.430000,89.760000,349.270000,90.250000L344.400000,105.050000C344.200000,105.670000,344.530000,106.340000,345.160000,106.550000C345.270000,106.590000,345.390000,106.610000,345.520000,106.610000ZM351.250000,91.810000L368.680000,91.810000L372.770000,104.240000L347.160000,104.240000L351.250000,91.810000Z" fill="rgb(255,90,36)" stroke="none" stroke-width="1"/><path id="esi4ylsacww17" d="M359.710000,93.530000L353.470000,93.530000C352.960000,93.530000,352.510000,93.860000,352.340000,94.340000L350.350000,100.280000C350.130000,100.900000,350.440000,101.580000,351.060000,101.800000C351.680000,102.020000,352.360000,101.710000,352.580000,101.090000C352.590000,101.070000,352.590000,101.050000,352.600000,101.040000L354.320000,95.910000L359.700000,95.910000C360.360000,95.910000,360.890000,95.380000,360.880000,94.720000C360.900000,94.070000,360.370000,93.540000,359.710000,93.530000Z" fill="rgb(255,90,36)" stroke="none" stroke-width="1"/></g></g><g id="esi4ylsacww18_to" transform="translate(0,0)"><g id="esi4ylsacww18" transform="translate(0,0)"><path id="esi4ylsacww19" d="M360.010000,85.610000L388.900000,85.610000C389.560000,85.610000,390.090000,85.080000,390.090000,84.420000C390.090000,84.290000,390.070000,84.170000,390.030000,84.050000L385.160000,69.250000C385,68.760000,384.550000,68.430000,384.030000,68.430000L364.890000,68.430000C364.380000,68.430000,363.920000,68.760000,363.760000,69.250000L358.890000,84.050000C358.690000,84.670000,359.020000,85.340000,359.650000,85.550000C359.760000,85.590000,359.890000,85.610000,360.010000,85.610000ZM365.740000,70.810000L383.170000,70.810000L387.260000,83.240000L361.650000,83.240000L365.740000,70.810000Z" fill="rgb(255,90,36)" stroke="none" stroke-width="1"/><path id="esi4ylsacww20" d="M374.210000,72.530000L367.970000,72.530000C367.460000,72.530000,367.010000,72.860000,366.840000,73.340000L364.850000,79.280000C364.630000,79.900000,364.940000,80.580000,365.560000,80.800000C366.180000,81.020000,366.860000,80.710000,367.080000,80.090000C367.090000,80.070000,367.090000,80.050000,367.100000,80.040000L368.820000,74.910000L374.200000,74.910000C374.860000,74.910000,375.390000,74.380000,375.380000,73.720000C375.390000,73.070000,374.860000,72.540000,374.210000,72.530000Z" fill="rgb(255,90,36)" stroke="none" stroke-width="1"/></g></g></g><g id="esi4ylsacww21" style="mix-blend-mode:soft-light" transform="matrix(2 0 0 2 -648.92175293000003 -96.04000092000001)" opacity="0" filter="url(#esi4ylsacww21-filter)"><g id="esi4ylsacww22_to" transform="translate(0,0)"><g id="esi4ylsacww22" transform="translate(0,0)"><path id="esi4ylsacww23" d="M389.010000,127.610000L417.900000,127.610000C418.560000,127.610000,419.090000,127.080000,419.090000,126.420000C419.090000,126.290000,419.070000,126.170000,419.030000,126.050000L414.160000,111.250000C414,110.760000,413.550000,110.430000,413.030000,110.430000L393.890000,110.430000C393.380000,110.430000,392.920000,110.760000,392.760000,111.250000L387.890000,126.050000C387.690000,126.670000,388.020000,127.340000,388.650000,127.550000C388.760000,127.590000,388.890000,127.610000,389.010000,127.610000ZM394.740000,112.810000L412.170000,112.810000L416.260000,125.240000L390.650000,125.240000L394.740000,112.810000Z" fill="rgb(255,90,36)" stroke="none" stroke-width="1"/><path id="esi4ylsacww24" d="M403.210000,114.530000L396.970000,114.530000C396.460000,114.530000,396.010000,114.860000,395.840000,115.340000L393.850000,121.280000C393.630000,121.900000,393.940000,122.580000,394.560000,122.800000C395.180000,123.020000,395.860000,122.710000,396.080000,122.090000C396.090000,122.070000,396.090000,122.050000,396.100000,122.040000L397.820000,116.910000L403.200000,116.910000C403.860000,116.910000,404.390000,116.380000,404.380000,115.720000C404.390000,115.070000,403.860000,114.540000,403.210000,114.530000Z" fill="rgb(255,90,36)" stroke="none" stroke-width="1"/></g></g><g id="esi4ylsacww25_to" transform="translate(0,0)"><g id="esi4ylsacww25" transform="translate(0,0)"><path id="esi4ylsacww26" d="M360.010000,127.610000L388.900000,127.610000C389.560000,127.610000,390.090000,127.080000,390.090000,126.420000C390.090000,126.290000,390.070000,126.170000,390.030000,126.050000L385.160000,111.250000C385,110.760000,384.550000,110.430000,384.030000,110.430000L364.890000,110.430000C364.380000,110.430000,363.920000,110.760000,363.760000,111.250000L358.890000,126.050000C358.690000,126.670000,359.020000,127.340000,359.650000,127.550000C359.760000,127.590000,359.890000,127.610000,360.010000,127.610000ZM365.740000,112.810000L383.170000,112.810000L387.260000,125.240000L361.650000,125.240000L365.740000,112.810000Z" fill="rgb(255,90,36)" stroke="none" stroke-width="1"/><path id="esi4ylsacww27" d="M374.210000,114.530000L367.970000,114.530000C367.460000,114.530000,367.010000,114.860000,366.840000,115.340000L364.850000,121.280000C364.630000,121.900000,364.940000,122.580000,365.560000,122.800000C366.180000,123.020000,366.860000,122.710000,367.080000,122.090000C367.090000,122.070000,367.090000,122.050000,367.100000,122.040000L368.820000,116.910000L374.200000,116.910000C374.860000,116.910000,375.390000,116.380000,375.380000,115.720000C375.390000,115.070000,374.860000,114.540000,374.210000,114.530000Z" fill="rgb(255,90,36)" stroke="none" stroke-width="1"/></g></g><g id="esi4ylsacww28_to" transform="translate(0,0)"><g id="esi4ylsacww28" transform="translate(0,0)"><path id="esi4ylsacww29" d="M331.010000,127.610000L359.900000,127.610000C360.560000,127.610000,361.090000,127.080000,361.090000,126.420000C361.090000,126.290000,361.070000,126.170000,361.030000,126.050000L356.160000,111.250000C356,110.760000,355.550000,110.430000,355.030000,110.430000L335.890000,110.430000C335.380000,110.430000,334.920000,110.760000,334.760000,111.250000L329.890000,126.050000C329.690000,126.670000,330.020000,127.340000,330.650000,127.550000C330.760000,127.590000,330.890000,127.610000,331.010000,127.610000ZM336.740000,112.810000L354.170000,112.810000L358.260000,125.240000L332.650000,125.240000L336.740000,112.810000Z" fill="rgb(255,90,36)" stroke="none" stroke-width="1"/><path id="esi4ylsacww30" d="M345.210000,114.530000L338.970000,114.530000C338.460000,114.530000,338.010000,114.860000,337.840000,115.340000L335.850000,121.280000C335.630000,121.900000,335.940000,122.580000,336.560000,122.800000C337.180000,123.020000,337.860000,122.710000,338.080000,122.090000C338.090000,122.070000,338.090000,122.050000,338.100000,122.040000L339.820000,116.910000L345.200000,116.910000C345.860000,116.910000,346.390000,116.380000,346.380000,115.720000C346.390000,115.070000,345.860000,114.540000,345.210000,114.530000Z" fill="rgb(255,90,36)" stroke="none" stroke-width="1"/></g></g><g id="esi4ylsacww31_to" transform="translate(0,0)"><g id="esi4ylsacww31" transform="translate(0,0)"><path id="esi4ylsacww32" d="M374.520000,106.610000L403.410000,106.610000C404.070000,106.610000,404.600000,106.080000,404.600000,105.420000C404.600000,105.290000,404.580000,105.170000,404.540000,105.050000L399.670000,90.250000C399.510000,89.760000,399.060000,89.430000,398.540000,89.430000L379.400000,89.430000C378.890000,89.430000,378.430000,89.760000,378.270000,90.250000L373.400000,105.050000C373.200000,105.670000,373.530000,106.340000,374.160000,106.550000C374.270000,106.590000,374.390000,106.610000,374.520000,106.610000ZM380.250000,91.810000L397.680000,91.810000L401.770000,104.240000L376.160000,104.240000L380.250000,91.810000Z" fill="rgb(255,90,36)" stroke="none" stroke-width="1"/><path id="esi4ylsacww33" d="M388.710000,93.530000L382.470000,93.530000C381.960000,93.530000,381.510000,93.860000,381.340000,94.340000L379.350000,100.280000C379.130000,100.900000,379.440000,101.580000,380.060000,101.800000C380.680000,102.020000,381.360000,101.710000,381.580000,101.090000C381.590000,101.070000,381.590000,101.050000,381.600000,101.040000L383.320000,95.910000L388.700000,95.910000C389.360000,95.910000,389.890000,95.380000,389.880000,94.720000C389.900000,94.070000,389.370000,93.540000,388.710000,93.530000Z" fill="rgb(255,90,36)" stroke="none" stroke-width="1"/></g></g><g id="esi4ylsacww34_to" transform="translate(0,0)"><g id="esi4ylsacww34" transform="translate(0,0)"><path id="esi4ylsacww35" d="M345.520000,106.610000L374.410000,106.610000C375.070000,106.610000,375.600000,106.080000,375.600000,105.420000C375.600000,105.290000,375.580000,105.170000,375.540000,105.050000L370.670000,90.250000C370.510000,89.760000,370.060000,89.430000,369.540000,89.430000L350.400000,89.430000C349.890000,89.430000,349.430000,89.760000,349.270000,90.250000L344.400000,105.050000C344.200000,105.670000,344.530000,106.340000,345.160000,106.550000C345.270000,106.590000,345.390000,106.610000,345.520000,106.610000ZM351.250000,91.810000L368.680000,91.810000L372.770000,104.240000L347.160000,104.240000L351.250000,91.810000Z" fill="rgb(255,90,36)" stroke="none" stroke-width="1"/><path id="esi4ylsacww36" d="M359.710000,93.530000L353.470000,93.530000C352.960000,93.530000,352.510000,93.860000,352.340000,94.340000L350.350000,100.280000C350.130000,100.900000,350.440000,101.580000,351.060000,101.800000C351.680000,102.020000,352.360000,101.710000,352.580000,101.090000C352.590000,101.070000,352.590000,101.050000,352.600000,101.040000L354.320000,95.910000L359.700000,95.910000C360.360000,95.910000,360.890000,95.380000,360.880000,94.720000C360.900000,94.070000,360.370000,93.540000,359.710000,93.530000Z" fill="rgb(255,90,36)" stroke="none" stroke-width="1"/></g></g><g id="esi4ylsacww37_to" transform="translate(0,0)"><g id="esi4ylsacww37" transform="translate(0,0)"><path id="esi4ylsacww38" d="M360.010000,85.610000L388.900000,85.610000C389.560000,85.610000,390.090000,85.080000,390.090000,84.420000C390.090000,84.290000,390.070000,84.170000,390.030000,84.050000L385.160000,69.250000C385,68.760000,384.550000,68.430000,384.030000,68.430000L364.890000,68.430000C364.380000,68.430000,363.920000,68.760000,363.760000,69.250000L358.890000,84.050000C358.690000,84.670000,359.020000,85.340000,359.650000,85.550000C359.760000,85.590000,359.890000,85.610000,360.010000,85.610000ZM365.740000,70.810000L383.170000,70.810000L387.260000,83.240000L361.650000,83.240000L365.740000,70.810000Z" fill="rgb(255,90,36)" stroke="none" stroke-width="1"/><path id="esi4ylsacww39" d="M374.210000,72.530000L367.970000,72.530000C367.460000,72.530000,367.010000,72.860000,366.840000,73.340000L364.850000,79.280000C364.630000,79.900000,364.940000,80.580000,365.560000,80.800000C366.180000,81.020000,366.860000,80.710000,367.080000,80.090000C367.090000,80.070000,367.090000,80.050000,367.100000,80.040000L368.820000,74.910000L374.200000,74.910000C374.860000,74.910000,375.390000,74.380000,375.380000,73.720000C375.390000,73.070000,374.860000,72.540000,374.210000,72.530000Z" fill="rgb(255,90,36)" stroke="none" stroke-width="1"/></g></g></g></svg>