<svg id="ec8wg3q2r5v91" xmlns="http://www.w3.org/2000/svg" xmlns:xlink="http://www.w3.org/1999/xlink" viewBox="50 0 200 200" shape-rendering="geometricPrecision" text-rendering="geometricPrecision"><style><![CDATA[#ec8wg3q2r5v93_ts {animation: ec8wg3q2r5v93_ts__ts 2300ms linear infinite normal forwards}@keyframes ec8wg3q2r5v93_ts__ts { 0% {transform: translate(157.698000px,99.505000px) scale(1,1)} 4.347826% {transform: translate(157.698000px,99.505000px) scale(1,1);animation-timing-function: cubic-bezier(0.680000,-0.550000,0.265000,1.550000)} 30.434783% {transform: translate(157.698000px,99.505000px) scale(0.800000,0.800000);animation-timing-function: cubic-bezier(0.680000,-0.550000,0.265000,1.550000)} 52.173913% {transform: translate(157.698000px,99.505000px) scale(0.800000,0.800000);animation-timing-function: cubic-bezier(0.680000,-0.550000,0.265000,1.550000)} 78.260870% {transform: translate(157.698000px,99.505000px) scale(1,1)} 100% {transform: translate(157.698000px,99.505000px) scale(1,1)} }#ec8wg3q2r5v910_ts {animation: ec8wg3q2r5v910_ts__ts 2300ms linear infinite normal forwards}@keyframes ec8wg3q2r5v910_ts__ts { 0% {transform: translate(157.698000px,99.505000px) scale(1,1)} 4.347826% {transform: translate(157.698000px,99.505000px) scale(1,1);animation-timing-function: cubic-bezier(0.680000,-0.550000,0.265000,1.550000)} 30.434783% {transform: translate(157.698000px,99.505000px) scale(0.800000,0.800000);animation-timing-function: cubic-bezier(0.680000,-0.550000,0.265000,1.550000)} 52.173913% {transform: translate(157.698000px,99.505000px) scale(0.800000,0.800000);animation-timing-function: cubic-bezier(0.680000,-0.550000,0.265000,1.550000)} 78.260870% {transform: translate(157.698000px,99.505000px) scale(1,1)} 100% {transform: translate(157.698000px,99.505000px) scale(1,1)} }#ec8wg3q2r5v912_ts {animation: ec8wg3q2r5v912_ts__ts 2300ms linear infinite normal forwards}@keyframes ec8wg3q2r5v912_ts__ts { 0% {transform: translate(157.698000px,99.500000px) scale(1,1)} 8.695652% {transform: translate(157.698000px,99.500000px) scale(1,1);animation-timing-function: cubic-bezier(0.680000,-0.550000,0.265000,1.550000)} 34.782609% {transform: translate(157.698000px,99.500000px) scale(0.800000,0.800000);animation-timing-function: cubic-bezier(0.680000,-0.550000,0.265000,1.550000)} 56.521739% {transform: translate(157.698000px,99.500000px) scale(0.800000,0.800000);animation-timing-function: cubic-bezier(0.680000,-0.550000,0.265000,1.550000)} 82.608696% {transform: translate(157.698000px,99.500000px) scale(1,1)} 100% {transform: translate(157.698000px,99.500000px) scale(1,1)} }#ec8wg3q2r5v923_ts {animation: ec8wg3q2r5v923_ts__ts 2300ms linear infinite normal forwards}@keyframes ec8wg3q2r5v923_ts__ts { 0% {transform: translate(157.698000px,99.500000px) scale(1,1)} 8.695652% {transform: translate(157.698000px,99.500000px) scale(1,1);animation-timing-function: cubic-bezier(0.680000,-0.550000,0.265000,1.550000)} 34.782609% {transform: translate(157.698000px,99.500000px) scale(0.800000,0.800000);animation-timing-function: cubic-bezier(0.680000,-0.550000,0.265000,1.550000)} 56.521739% {transform: translate(157.698000px,99.500000px) scale(0.800000,0.800000);animation-timing-function: cubic-bezier(0.680000,-0.550000,0.265000,1.550000)} 82.608696% {transform: translate(157.698000px,99.500000px) scale(1,1)} 100% {transform: translate(157.698000px,99.500000px) scale(1,1)} }#ec8wg3q2r5v925_ts {animation: ec8wg3q2r5v925_ts__ts 2300ms linear infinite normal forwards}@keyframes ec8wg3q2r5v925_ts__ts { 0% {transform: translate(157.698000px,99.505000px) scale(1,1);animation-timing-function: cubic-bezier(0.680000,-0.550000,0.265000,1.550000)} 26.086957% {transform: translate(157.698000px,99.505000px) scale(0.800000,0.800000);animation-timing-function: cubic-bezier(0.680000,-0.550000,0.265000,1.550000)} 47.826087% {transform: translate(157.698000px,99.505000px) scale(0.800000,0.800000);animation-timing-function: cubic-bezier(0.680000,-0.550000,0.265000,1.550000)} 73.913043% {transform: translate(157.698000px,99.505000px) scale(1,1)} 100% {transform: translate(157.698000px,99.505000px) scale(1,1)} }#ec8wg3q2r5v932_ts {animation: ec8wg3q2r5v932_ts__ts 2300ms linear infinite normal forwards}@keyframes ec8wg3q2r5v932_ts__ts { 0% {transform: translate(157.698000px,99.505000px) scale(1,1);animation-timing-function: cubic-bezier(0.680000,-0.550000,0.265000,1.550000)} 26.086957% {transform: translate(157.698000px,99.505000px) scale(0.800000,0.800000);animation-timing-function: cubic-bezier(0.680000,-0.550000,0.265000,1.550000)} 47.826087% {transform: translate(157.698000px,99.505000px) scale(0.800000,0.800000);animation-timing-function: cubic-bezier(0.680000,-0.550000,0.265000,1.550000)} 73.913043% {transform: translate(157.698000px,99.505000px) scale(1,1)} 100% {transform: translate(157.698000px,99.505000px) scale(1,1)} }#ec8wg3q2r5v935_ts {animation: ec8wg3q2r5v935_ts__ts 2300ms linear infinite normal forwards}@keyframes ec8wg3q2r5v935_ts__ts { 0% {transform: translate(157.698000px,99.505000px) scale(1,1)} 4.347826% {transform: translate(157.698000px,99.505000px) scale(1,1);animation-timing-function: cubic-bezier(0.680000,-0.550000,0.265000,1.550000)} 30.434783% {transform: translate(157.698000px,99.505000px) scale(0.800000,0.800000);animation-timing-function: cubic-bezier(0.680000,-0.550000,0.265000,1.550000)} 52.173913% {transform: translate(157.698000px,99.505000px) scale(0.800000,0.800000);animation-timing-function: cubic-bezier(0.680000,-0.550000,0.265000,1.550000)} 78.260870% {transform: translate(157.698000px,99.505000px) scale(1,1)} 100% {transform: translate(157.698000px,99.505000px) scale(1,1)} }#ec8wg3q2r5v942_ts {animation: ec8wg3q2r5v942_ts__ts 2300ms linear infinite normal forwards}@keyframes ec8wg3q2r5v942_ts__ts { 0% {transform: translate(157.698000px,99.505000px) scale(1,1)} 4.347826% {transform: translate(157.698000px,99.505000px) scale(1,1);animation-timing-function: cubic-bezier(0.680000,-0.550000,0.265000,1.550000)} 30.434783% {transform: translate(157.698000px,99.505000px) scale(0.800000,0.800000);animation-timing-function: cubic-bezier(0.680000,-0.550000,0.265000,1.550000)} 52.173913% {transform: translate(157.698000px,99.505000px) scale(0.800000,0.800000);animation-timing-function: cubic-bezier(0.680000,-0.550000,0.265000,1.550000)} 78.260870% {transform: translate(157.698000px,99.505000px) scale(1,1)} 100% {transform: translate(157.698000px,99.505000px) scale(1,1)} }#ec8wg3q2r5v944_ts {animation: ec8wg3q2r5v944_ts__ts 2300ms linear infinite normal forwards}@keyframes ec8wg3q2r5v944_ts__ts { 0% {transform: translate(157.698000px,99.500000px) scale(1,1)} 8.695652% {transform: translate(157.698000px,99.500000px) scale(1,1);animation-timing-function: cubic-bezier(0.680000,-0.550000,0.265000,1.550000)} 34.782609% {transform: translate(157.698000px,99.500000px) scale(0.800000,0.800000);animation-timing-function: cubic-bezier(0.680000,-0.550000,0.265000,1.550000)} 56.521739% {transform: translate(157.698000px,99.500000px) scale(0.800000,0.800000);animation-timing-function: cubic-bezier(0.680000,-0.550000,0.265000,1.550000)} 82.608696% {transform: translate(157.698000px,99.500000px) scale(1,1)} 100% {transform: translate(157.698000px,99.500000px) scale(1,1)} }#ec8wg3q2r5v955_ts {animation: ec8wg3q2r5v955_ts__ts 2300ms linear infinite normal forwards}@keyframes ec8wg3q2r5v955_ts__ts { 0% {transform: translate(157.698000px,99.500000px) scale(1,1)} 8.695652% {transform: translate(157.698000px,99.500000px) scale(1,1);animation-timing-function: cubic-bezier(0.680000,-0.550000,0.265000,1.550000)} 34.782609% {transform: translate(157.698000px,99.500000px) scale(0.800000,0.800000);animation-timing-function: cubic-bezier(0.680000,-0.550000,0.265000,1.550000)} 56.521739% {transform: translate(157.698000px,99.500000px) scale(0.800000,0.800000);animation-timing-function: cubic-bezier(0.680000,-0.550000,0.265000,1.550000)} 82.608696% {transform: translate(157.698000px,99.500000px) scale(1,1)} 100% {transform: translate(157.698000px,99.500000px) scale(1,1)} }#ec8wg3q2r5v957_ts {animation: ec8wg3q2r5v957_ts__ts 2300ms linear infinite normal forwards}@keyframes ec8wg3q2r5v957_ts__ts { 0% {transform: translate(157.698000px,99.505000px) scale(1,1);animation-timing-function: cubic-bezier(0.680000,-0.550000,0.265000,1.550000)} 26.086957% {transform: translate(157.698000px,99.505000px) scale(0.800000,0.800000);animation-timing-function: cubic-bezier(0.680000,-0.550000,0.265000,1.550000)} 47.826087% {transform: translate(157.698000px,99.505000px) scale(0.800000,0.800000);animation-timing-function: cubic-bezier(0.680000,-0.550000,0.265000,1.550000)} 73.913043% {transform: translate(157.698000px,99.505000px) scale(1,1)} 100% {transform: translate(157.698000px,99.505000px) scale(1,1)} }#ec8wg3q2r5v964_ts {animation: ec8wg3q2r5v964_ts__ts 2300ms linear infinite normal forwards}@keyframes ec8wg3q2r5v964_ts__ts { 0% {transform: translate(157.698000px,99.505000px) scale(1,1);animation-timing-function: cubic-bezier(0.680000,-0.550000,0.265000,1.550000)} 26.086957% {transform: translate(157.698000px,99.505000px) scale(0.800000,0.800000);animation-timing-function: cubic-bezier(0.680000,-0.550000,0.265000,1.550000)} 47.826087% {transform: translate(157.698000px,99.505000px) scale(0.800000,0.800000);animation-timing-function: cubic-bezier(0.680000,-0.550000,0.265000,1.550000)} 73.913043% {transform: translate(157.698000px,99.505000px) scale(1,1)} 100% {transform: translate(157.698000px,99.505000px) scale(1,1)} }]]></style><defs><filter id="ec8wg3q2r5v934-filter" x="-400%" width="600%" y="-400%" height="600%"><feGaussianBlur id="ec8wg3q2r5v934-filter-blur-0" stdDeviation="1,1" result="result"/><feComponentTransfer id="ec8wg3q2r5v934-filter-brightness-0" result="result"><feFuncR id="ec8wg3q2r5v934-filter-brightness-0-R" type="linear" slope="1.200000"/><feFuncG id="ec8wg3q2r5v934-filter-brightness-0-G" type="linear" slope="1.200000"/><feFuncB id="ec8wg3q2r5v934-filter-brightness-0-B" type="linear" slope="1.200000"/></feComponentTransfer></filter></defs><g id="ec8wg3q2r5v92" transform="matrix(2 0 0 2 -175.76567078000002 -96.25476074000001)"><g id="ec8wg3q2r5v93_ts" transform="translate(157.698000,99.505000) scale(1,1)"><g id="ec8wg3q2r5v93" transform="translate(-526.698000,-226.505000)"><g id="ec8wg3q2r5v94" transform="matrix(1 0 0 1 382.67000000000002 170.01100000000000)"><path id="ec8wg3q2r5v95" d="M140.090000,80.180000L136.550000,80.180000C130.510000,80.180000,127.940000,77.450000,127.940000,71.070000L127.940000,69.550000C127.940000,63.160000,130.510000,60.440000,136.550000,60.440000L140.090000,60.440000L140.090000,63.480000L136.550000,63.480000C132.700000,63.480000,130.980000,64.360000,130.980000,69.560000L130.980000,71.080000C130.980000,76.280000,132.700000,77.160000,136.550000,77.160000L140.090000,77.160000L140.090000,80.180000Z" fill="rgb(255,90,36)" stroke="none" stroke-width="1"/></g><g id="ec8wg3q2r5v96" transform="matrix(1 0 0 1 381.15100000000001 176.08699999999999)"><rect id="ec8wg3q2r5v97" width="9.110000" height="3.040000" rx="0" ry="0" transform="matrix(1 0 0 1 127.93000000000001 60.43000000000000)" fill="rgb(255,90,36)" stroke="none" stroke-width="1"/></g><g id="ec8wg3q2r5v98" transform="matrix(1 0 0 1 381.15100000000001 180.64400000000001)"><rect id="ec8wg3q2r5v99" width="9.110000" height="3.040000" rx="0" ry="0" transform="matrix(1 0 0 1 127.93000000000001 60.43000000000000)" fill="rgb(255,90,36)" stroke="none" stroke-width="1"/></g></g></g><g id="ec8wg3q2r5v910_ts" transform="translate(157.698000,99.505000) scale(1,1)"><g id="ec8wg3q2r5v910" transform="translate(211.302000,59.874000)"><path id="ec8wg3q2r5v911" d="M-220.560000,-25.550000C-231.890000,-25.560000,-241.060000,-34.750000,-241.050000,-46.070000C-241.040000,-57.400000,-231.850000,-66.570000,-220.530000,-66.560000C-218.470000,-66.560000,-216.430000,-66.250000,-214.460000,-65.640000L-215.360000,-62.740000C-224.570000,-65.610000,-234.370000,-60.460000,-237.230000,-51.250000C-240.100000,-42.040000,-234.950000,-32.240000,-225.740000,-29.380000C-216.530000,-26.510000,-206.730000,-31.660000,-203.870000,-40.870000C-203.840000,-40.970000,-203.810000,-41.070000,-203.780000,-41.170000L-200.860000,-40.320000C-203.440000,-31.590000,-211.450000,-25.580000,-220.560000,-25.550000Z" fill="rgb(255,90,36)" stroke="none" stroke-width="1"/></g></g><g id="ec8wg3q2r5v912_ts" transform="translate(157.698000,99.500000) scale(1,1)"><g id="ec8wg3q2r5v912" transform="translate(-157.698000,-99.500000)"><g id="ec8wg3q2r5v913" transform="matrix(1 0 0 1 414.56799999999998 154.82200000000000)"><path id="ec8wg3q2r5v914" d="M-236.290000,-56.670000L-240.850000,-64.270000C-240.990000,-64.510000,-241.070000,-64.780000,-241.070000,-65.050000L-241.070000,-66.570000L-238.030000,-66.570000L-238.030000,-65.470000L-233.690000,-58.240000L-236.290000,-56.670000Z" fill="rgb(255,90,36)" stroke="none" stroke-width="1"/></g><g id="ec8wg3q2r5v915" transform="matrix(1 0 0 1 419.34199999999998 154.82200000000000)"><path id="ec8wg3q2r5v916" d="M-238.460000,-56.670000L-241.060000,-58.240000L-236.720000,-65.470000L-236.720000,-66.570000L-233.680000,-66.570000L-233.680000,-65.050000C-233.680000,-64.770000,-233.750000,-64.500000,-233.900000,-64.270000L-238.460000,-56.670000Z" fill="rgb(255,90,36)" stroke="none" stroke-width="1"/></g><g id="ec8wg3q2r5v917" transform="matrix(1 0 0 1 419.12500000000000 163.93600000000001)"><rect id="ec8wg3q2r5v918" width="3.040000" height="10.630000" rx="0" ry="0" transform="matrix(1 0 0 1 -241.06999999999999 -66.56999999999999)" fill="rgb(255,90,36)" stroke="none" stroke-width="1"/></g><g id="ec8wg3q2r5v919" transform="matrix(1 0 0 1 416.08699999999999 165.45500000000001)"><rect id="ec8wg3q2r5v920" width="9.110000" height="3.040000" rx="0" ry="0" transform="matrix(1 0 0 1 -241.06999999999999 -66.56999999999999)" fill="rgb(255,90,36)" stroke="none" stroke-width="1"/></g><g id="ec8wg3q2r5v921" transform="matrix(1 0 0 1 416.08699999999999 170.01100000000000)"><rect id="ec8wg3q2r5v922" width="9.110000" height="3.040000" rx="0" ry="0" transform="matrix(1 0 0 1 -241.06999999999999 -66.56999999999999)" fill="rgb(255,90,36)" stroke="none" stroke-width="1"/></g></g></g><g id="ec8wg3q2r5v923_ts" transform="translate(157.698000,99.500000) scale(1,1)"><g id="ec8wg3q2r5v923" transform="translate(241.070000,43.170000)"><path id="ec8wg3q2r5v924" d="M-222.230000,-24.040000C-230.140000,-24.030000,-237.400000,-28.420000,-241.070000,-35.430000L-238.380000,-36.840000C-233.710000,-27.920000,-222.690000,-24.480000,-213.770000,-29.150000C-204.850000,-33.820000,-201.410000,-44.840000,-206.080000,-53.760000C-209.230000,-59.770000,-215.450000,-63.530000,-222.230000,-63.530000C-223.530000,-63.530000,-224.820000,-63.390000,-226.090000,-63.120000L-226.730000,-66.090000C-215.250000,-68.580000,-203.930000,-61.290000,-201.440000,-49.810000C-198.950000,-38.330000,-206.240000,-27.010000,-217.720000,-24.520000C-219.200000,-24.200000,-220.710000,-24.040000,-222.230000,-24.040000L-222.230000,-24.040000Z" fill="rgb(255,90,36)" stroke="none" stroke-width="1"/></g></g><g id="ec8wg3q2r5v925_ts" transform="translate(157.698000,99.505000) scale(1,1)"><g id="ec8wg3q2r5v925" transform="translate(-157.698000,-99.505000)"><g id="ec8wg3q2r5v926" transform="matrix(1 0 0 1 385.70800000000003 138.11400000000000)"><path id="ec8wg3q2r5v927" d="M-234.990000,-51.380000L-241.070000,-51.380000L-241.070000,-54.420000L-234.990000,-54.420000C-234.150000,-54.420000,-233.470000,-55.100000,-233.470000,-55.940000C-233.470000,-56.780000,-234.150000,-57.460000,-234.990000,-57.460000C-234.990000,-57.460000,-234.990000,-57.460000,-235,-57.460000L-236.520000,-57.460000C-239.040000,-57.460000,-241.080000,-59.500000,-241.080000,-62.010000C-241.080000,-64.530000,-239.040000,-66.570000,-236.530000,-66.570000C-236.530000,-66.570000,-236.530000,-66.570000,-236.520000,-66.570000L-230.440000,-66.570000L-230.440000,-63.530000L-236.520000,-63.530000C-237.360000,-63.530000,-238.040000,-62.850000,-238.040000,-62.010000C-238.040000,-61.170000,-237.360000,-60.490000,-236.520000,-60.490000C-236.520000,-60.490000,-236.520000,-60.490000,-236.510000,-60.490000L-234.990000,-60.490000C-232.470000,-60.490000,-230.430000,-58.450000,-230.430000,-55.940000C-230.430000,-53.420000,-232.470000,-51.380000,-234.990000,-51.380000C-234.990000,-51.380000,-234.990000,-51.380000,-234.990000,-51.380000Z" fill="rgb(255,90,36)" stroke="none" stroke-width="1"/></g><g id="ec8wg3q2r5v928" transform="matrix(1 0 0 1 390.26499999999999 151.78399999999999)"><rect id="ec8wg3q2r5v929" width="3.040000" height="4.560000" rx="0" ry="0" transform="matrix(1 0 0 1 -241.06999999999999 -66.56999999999999)" fill="rgb(255,90,36)" stroke="none" stroke-width="1"/></g><g id="ec8wg3q2r5v930" transform="matrix(1 0 0 1 390.26499999999999 135.07599999999999)"><rect id="ec8wg3q2r5v931" width="3.040000" height="4.560000" rx="0" ry="0" transform="matrix(1 0 0 1 -241.06999999999999 -66.56999999999999)" fill="rgb(255,90,36)" stroke="none" stroke-width="1"/></g></g></g><g id="ec8wg3q2r5v932_ts" transform="translate(157.698000,99.505000) scale(1,1)"><g id="ec8wg3q2r5v932" transform="translate(212.821000,29.495000)"><path id="ec8wg3q2r5v933" d="M-206.610000,-31.030000L-208.680000,-33.260000C-201.610000,-39.820000,-201.190000,-50.870000,-207.750000,-57.940000C-214.310000,-65.010000,-225.360000,-65.430000,-232.430000,-58.870000C-235.990000,-55.560000,-238.020000,-50.920000,-238.020000,-46.060000C-238.030000,-42.280000,-236.800000,-38.600000,-234.530000,-35.580000L-236.960000,-33.760000C-243.750000,-42.820000,-241.920000,-55.670000,-232.850000,-62.470000C-223.780000,-69.270000,-210.940000,-67.430000,-204.140000,-58.360000C-201.480000,-54.810000,-200.040000,-50.490000,-200.040000,-46.060000C-200.060000,-40.350000,-202.440000,-34.910000,-206.610000,-31.030000Z" fill="rgb(255,90,36)" stroke="none" stroke-width="1"/></g></g></g><g id="ec8wg3q2r5v934" style="mix-blend-mode:soft-light" transform="matrix(2 0 0 2 -175.76567078000002 -96.25476074000001)" opacity="0" filter="url(#ec8wg3q2r5v934-filter)"><g id="ec8wg3q2r5v935_ts" transform="translate(157.698000,99.505000) scale(1,1)"><g id="ec8wg3q2r5v935" transform="translate(-526.698000,-226.505000)"><g id="ec8wg3q2r5v936" transform="matrix(1 0 0 1 382.67000000000002 170.01100000000000)"><path id="ec8wg3q2r5v937" d="M140.090000,80.180000L136.550000,80.180000C130.510000,80.180000,127.940000,77.450000,127.940000,71.070000L127.940000,69.550000C127.940000,63.160000,130.510000,60.440000,136.550000,60.440000L140.090000,60.440000L140.090000,63.480000L136.550000,63.480000C132.700000,63.480000,130.980000,64.360000,130.980000,69.560000L130.980000,71.080000C130.980000,76.280000,132.700000,77.160000,136.550000,77.160000L140.090000,77.160000L140.090000,80.180000Z" fill="rgb(255,90,36)" stroke="none" stroke-width="1"/></g><g id="ec8wg3q2r5v938" transform="matrix(1 0 0 1 381.15100000000001 176.08699999999999)"><rect id="ec8wg3q2r5v939" width="9.110000" height="3.040000" rx="0" ry="0" transform="matrix(1 0 0 1 127.93000000000001 60.43000000000000)" fill="rgb(255,90,36)" stroke="none" stroke-width="1"/></g><g id="ec8wg3q2r5v940" transform="matrix(1 0 0 1 381.15100000000001 180.64400000000001)"><rect id="ec8wg3q2r5v941" width="9.110000" height="3.040000" rx="0" ry="0" transform="matrix(1 0 0 1 127.93000000000001 60.43000000000000)" fill="rgb(255,90,36)" stroke="none" stroke-width="1"/></g></g></g><g id="ec8wg3q2r5v942_ts" transform="translate(157.698000,99.505000) scale(1,1)"><g id="ec8wg3q2r5v942" transform="translate(211.302000,59.874000)"><path id="ec8wg3q2r5v943" d="M-220.560000,-25.550000C-231.890000,-25.560000,-241.060000,-34.750000,-241.050000,-46.070000C-241.040000,-57.400000,-231.850000,-66.570000,-220.530000,-66.560000C-218.470000,-66.560000,-216.430000,-66.250000,-214.460000,-65.640000L-215.360000,-62.740000C-224.570000,-65.610000,-234.370000,-60.460000,-237.230000,-51.250000C-240.100000,-42.040000,-234.950000,-32.240000,-225.740000,-29.380000C-216.530000,-26.510000,-206.730000,-31.660000,-203.870000,-40.870000C-203.840000,-40.970000,-203.810000,-41.070000,-203.780000,-41.170000L-200.860000,-40.320000C-203.440000,-31.590000,-211.450000,-25.580000,-220.560000,-25.550000Z" fill="rgb(255,90,36)" stroke="none" stroke-width="1"/></g></g><g id="ec8wg3q2r5v944_ts" transform="translate(157.698000,99.500000) scale(1,1)"><g id="ec8wg3q2r5v944" transform="translate(-157.698000,-99.500000)"><g id="ec8wg3q2r5v945" transform="matrix(1 0 0 1 414.56799999999998 154.82200000000000)"><path id="ec8wg3q2r5v946" d="M-236.290000,-56.670000L-240.850000,-64.270000C-240.990000,-64.510000,-241.070000,-64.780000,-241.070000,-65.050000L-241.070000,-66.570000L-238.030000,-66.570000L-238.030000,-65.470000L-233.690000,-58.240000L-236.290000,-56.670000Z" fill="rgb(255,90,36)" stroke="none" stroke-width="1"/></g><g id="ec8wg3q2r5v947" transform="matrix(1 0 0 1 419.34199999999998 154.82200000000000)"><path id="ec8wg3q2r5v948" d="M-238.460000,-56.670000L-241.060000,-58.240000L-236.720000,-65.470000L-236.720000,-66.570000L-233.680000,-66.570000L-233.680000,-65.050000C-233.680000,-64.770000,-233.750000,-64.500000,-233.900000,-64.270000L-238.460000,-56.670000Z" fill="rgb(255,90,36)" stroke="none" stroke-width="1"/></g><g id="ec8wg3q2r5v949" transform="matrix(1 0 0 1 419.12500000000000 163.93600000000001)"><rect id="ec8wg3q2r5v950" width="3.040000" height="10.630000" rx="0" ry="0" transform="matrix(1 0 0 1 -241.06999999999999 -66.56999999999999)" fill="rgb(255,90,36)" stroke="none" stroke-width="1"/></g><g id="ec8wg3q2r5v951" transform="matrix(1 0 0 1 416.08699999999999 165.45500000000001)"><rect id="ec8wg3q2r5v952" width="9.110000" height="3.040000" rx="0" ry="0" transform="matrix(1 0 0 1 -241.06999999999999 -66.56999999999999)" fill="rgb(255,90,36)" stroke="none" stroke-width="1"/></g><g id="ec8wg3q2r5v953" transform="matrix(1 0 0 1 416.08699999999999 170.01100000000000)"><rect id="ec8wg3q2r5v954" width="9.110000" height="3.040000" rx="0" ry="0" transform="matrix(1 0 0 1 -241.06999999999999 -66.56999999999999)" fill="rgb(255,90,36)" stroke="none" stroke-width="1"/></g></g></g><g id="ec8wg3q2r5v955_ts" transform="translate(157.698000,99.500000) scale(1,1)"><g id="ec8wg3q2r5v955" transform="translate(241.070000,43.170000)"><path id="ec8wg3q2r5v956" d="M-222.230000,-24.040000C-230.140000,-24.030000,-237.400000,-28.420000,-241.070000,-35.430000L-238.380000,-36.840000C-233.710000,-27.920000,-222.690000,-24.480000,-213.770000,-29.150000C-204.850000,-33.820000,-201.410000,-44.840000,-206.080000,-53.760000C-209.230000,-59.770000,-215.450000,-63.530000,-222.230000,-63.530000C-223.530000,-63.530000,-224.820000,-63.390000,-226.090000,-63.120000L-226.730000,-66.090000C-215.250000,-68.580000,-203.930000,-61.290000,-201.440000,-49.810000C-198.950000,-38.330000,-206.240000,-27.010000,-217.720000,-24.520000C-219.200000,-24.200000,-220.710000,-24.040000,-222.230000,-24.040000L-222.230000,-24.040000Z" fill="rgb(255,90,36)" stroke="none" stroke-width="1"/></g></g><g id="ec8wg3q2r5v957_ts" transform="translate(157.698000,99.505000) scale(1,1)"><g id="ec8wg3q2r5v957" transform="translate(-157.698000,-99.505000)"><g id="ec8wg3q2r5v958" transform="matrix(1 0 0 1 385.70800000000003 138.11400000000000)"><path id="ec8wg3q2r5v959" d="M-234.990000,-51.380000L-241.070000,-51.380000L-241.070000,-54.420000L-234.990000,-54.420000C-234.150000,-54.420000,-233.470000,-55.100000,-233.470000,-55.940000C-233.470000,-56.780000,-234.150000,-57.460000,-234.990000,-57.460000C-234.990000,-57.460000,-234.990000,-57.460000,-235,-57.460000L-236.520000,-57.460000C-239.040000,-57.460000,-241.080000,-59.500000,-241.080000,-62.010000C-241.080000,-64.530000,-239.040000,-66.570000,-236.530000,-66.570000C-236.530000,-66.570000,-236.530000,-66.570000,-236.520000,-66.570000L-230.440000,-66.570000L-230.440000,-63.530000L-236.520000,-63.530000C-237.360000,-63.530000,-238.040000,-62.850000,-238.040000,-62.010000C-238.040000,-61.170000,-237.360000,-60.490000,-236.520000,-60.490000C-236.520000,-60.490000,-236.520000,-60.490000,-236.510000,-60.490000L-234.990000,-60.490000C-232.470000,-60.490000,-230.430000,-58.450000,-230.430000,-55.940000C-230.430000,-53.420000,-232.470000,-51.380000,-234.990000,-51.380000C-234.990000,-51.380000,-234.990000,-51.380000,-234.990000,-51.380000Z" fill="rgb(255,90,36)" stroke="none" stroke-width="1"/></g><g id="ec8wg3q2r5v960" transform="matrix(1 0 0 1 390.26499999999999 151.78399999999999)"><rect id="ec8wg3q2r5v961" width="3.040000" height="4.560000" rx="0" ry="0" transform="matrix(1 0 0 1 -241.06999999999999 -66.56999999999999)" fill="rgb(255,90,36)" stroke="none" stroke-width="1"/></g><g id="ec8wg3q2r5v962" transform="matrix(1 0 0 1 390.26499999999999 135.07599999999999)"><rect id="ec8wg3q2r5v963" width="3.040000" height="4.560000" rx="0" ry="0" transform="matrix(1 0 0 1 -241.06999999999999 -66.56999999999999)" fill="rgb(255,90,36)" stroke="none" stroke-width="1"/></g></g></g><g id="ec8wg3q2r5v964_ts" transform="translate(157.698000,99.505000) scale(1,1)"><g id="ec8wg3q2r5v964" transform="translate(212.821000,29.495000)"><path id="ec8wg3q2r5v965" d="M-206.610000,-31.030000L-208.680000,-33.260000C-201.610000,-39.820000,-201.190000,-50.870000,-207.750000,-57.940000C-214.310000,-65.010000,-225.360000,-65.430000,-232.430000,-58.870000C-235.990000,-55.560000,-238.020000,-50.920000,-238.020000,-46.060000C-238.030000,-42.280000,-236.800000,-38.600000,-234.530000,-35.580000L-236.960000,-33.760000C-243.750000,-42.820000,-241.920000,-55.670000,-232.850000,-62.470000C-223.780000,-69.270000,-210.940000,-67.430000,-204.140000,-58.360000C-201.480000,-54.810000,-200.040000,-50.490000,-200.040000,-46.060000C-200.060000,-40.350000,-202.440000,-34.910000,-206.610000,-31.030000Z" fill="rgb(255,90,36)" stroke="none" stroke-width="1"/></g></g></g></svg>