<svg id="e5iwhwfvf9ti1" xmlns="http://www.w3.org/2000/svg" xmlns:xlink="http://www.w3.org/1999/xlink" viewBox="0 0 200 200" shape-rendering="geometricPrecision" text-rendering="geometricPrecision"><style><![CDATA[#e5iwhwfvf9ti3_to {animation: e5iwhwfvf9ti3_to__to 2700ms linear infinite normal forwards}@keyframes e5iwhwfvf9ti3_to__to { 0% {transform: translate(1051px,4px)} 11.111111% {transform: translate(1051px,4px);animation-timing-function: cubic-bezier(0.680000,-0.550000,0.265000,1.550000)} 37.037037% {transform: translate(1051px,19px);animation-timing-function: cubic-bezier(0.680000,-0.550000,0.265000,1.550000)} 59.259259% {transform: translate(1051px,19px);animation-timing-function: cubic-bezier(0.680000,-0.550000,0.265000,1.550000)} 85.185185% {transform: translate(1051px,4px)} 100% {transform: translate(1051px,4px)} }#e5iwhwfvf9ti7_to {animation: e5iwhwfvf9ti7_to__to 2700ms linear infinite normal forwards}@keyframes e5iwhwfvf9ti7_to__to { 0% {transform: translate(0px,0px)} 7.407407% {transform: translate(0px,0px);animation-timing-function: cubic-bezier(0.680000,-0.550000,0.265000,1.550000)} 33.333333% {transform: translate(0px,-15px);animation-timing-function: cubic-bezier(0.680000,-0.550000,0.265000,1.550000)} 55.555556% {transform: translate(0px,-15px);animation-timing-function: cubic-bezier(0.680000,-0.550000,0.265000,1.550000)} 81.481481% {transform: translate(0px,0px)} 100% {transform: translate(0px,0px)} }#e5iwhwfvf9ti11_to {animation: e5iwhwfvf9ti11_to__to 2700ms linear infinite normal forwards}@keyframes e5iwhwfvf9ti11_to__to { 0% {transform: translate(0px,0px)} 3.703704% {transform: translate(0px,0px);animation-timing-function: cubic-bezier(0.680000,-0.550000,0.265000,1.550000)} 29.629630% {transform: translate(0px,15px);animation-timing-function: cubic-bezier(0.680000,-0.550000,0.265000,1.550000)} 51.851852% {transform: translate(0px,15px);animation-timing-function: cubic-bezier(0.680000,-0.550000,0.265000,1.550000)} 77.777778% {transform: translate(0px,0px)} 100% {transform: translate(0px,0px)} }#e5iwhwfvf9ti15_to {animation: e5iwhwfvf9ti15_to__to 2700ms linear infinite normal forwards}@keyframes e5iwhwfvf9ti15_to__to { 0% {transform: translate(5.293000px,10.585000px);animation-timing-function: cubic-bezier(0.680000,-0.550000,0.265000,1.550000)} 25.925926% {transform: translate(5.293000px,-9.415000px);animation-timing-function: cubic-bezier(0.680000,-0.550000,0.265000,1.550000)} 48.148148% {transform: translate(5.293000px,-9.415000px);animation-timing-function: cubic-bezier(0.680000,-0.550000,0.265000,1.550000)} 74.074074% {transform: translate(5.293000px,10.585000px)} 100% {transform: translate(5.293000px,10.585000px)} }#e5iwhwfvf9ti20_to {animation: e5iwhwfvf9ti20_to__to 2700ms linear infinite normal forwards}@keyframes e5iwhwfvf9ti20_to__to { 0% {transform: translate(1051px,4px)} 11.111111% {transform: translate(1051px,4px);animation-timing-function: cubic-bezier(0.680000,-0.550000,0.265000,1.550000)} 37.037037% {transform: translate(1051px,19px);animation-timing-function: cubic-bezier(0.680000,-0.550000,0.265000,1.550000)} 55.555556% {transform: translate(1051px,19px);animation-timing-function: cubic-bezier(0.680000,-0.550000,0.265000,1.550000)} 81.481481% {transform: translate(1051px,4px)} 100% {transform: translate(1051px,4px)} }#e5iwhwfvf9ti24_to {animation: e5iwhwfvf9ti24_to__to 2700ms linear infinite normal forwards}@keyframes e5iwhwfvf9ti24_to__to { 0% {transform: translate(0px,0px)} 7.407407% {transform: translate(0px,0px);animation-timing-function: cubic-bezier(0.680000,-0.550000,0.265000,1.550000)} 33.333333% {transform: translate(0px,-15px);animation-timing-function: cubic-bezier(0.680000,-0.550000,0.265000,1.550000)} 51.851852% {transform: translate(0px,-15px);animation-timing-function: cubic-bezier(0.680000,-0.550000,0.265000,1.550000)} 77.777778% {transform: translate(0px,0px)} 100% {transform: translate(0px,0px)} }#e5iwhwfvf9ti28_to {animation: e5iwhwfvf9ti28_to__to 2700ms linear infinite normal forwards}@keyframes e5iwhwfvf9ti28_to__to { 0% {transform: translate(0px,0px)} 3.703704% {transform: translate(0px,0px);animation-timing-function: cubic-bezier(0.680000,-0.550000,0.265000,1.550000)} 29.629630% {transform: translate(0px,15px);animation-timing-function: cubic-bezier(0.680000,-0.550000,0.265000,1.550000)} 48.148148% {transform: translate(0px,15px);animation-timing-function: cubic-bezier(0.680000,-0.550000,0.265000,1.550000)} 74.074074% {transform: translate(0px,0px)} 100% {transform: translate(0px,0px)} }#e5iwhwfvf9ti32_to {animation: e5iwhwfvf9ti32_to__to 2700ms linear infinite normal forwards}@keyframes e5iwhwfvf9ti32_to__to { 0% {transform: translate(5.293000px,10.585000px);animation-timing-function: cubic-bezier(0.680000,-0.550000,0.265000,1.550000)} 25.925926% {transform: translate(5.293000px,-9.415000px);animation-timing-function: cubic-bezier(0.680000,-0.550000,0.265000,1.550000)} 44.444444% {transform: translate(5.293000px,-9.415000px);animation-timing-function: cubic-bezier(0.680000,-0.550000,0.265000,1.550000)} 70.370370% {transform: translate(5.293000px,10.585000px)} 100% {transform: translate(5.293000px,10.585000px)} }]]></style><defs><filter id="e5iwhwfvf9ti19-filter" x="-400%" width="600%" y="-400%" height="600%"><feGaussianBlur id="e5iwhwfvf9ti19-filter-blur-0" stdDeviation="1,1" result="result"/><feComponentTransfer id="e5iwhwfvf9ti19-filter-brightness-0" result="result"><feFuncR id="e5iwhwfvf9ti19-filter-brightness-0-R" type="linear" slope="1.200000"/><feFuncG id="e5iwhwfvf9ti19-filter-brightness-0-G" type="linear" slope="1.200000"/><feFuncB id="e5iwhwfvf9ti19-filter-brightness-0-B" type="linear" slope="1.200000"/></feComponentTransfer></filter></defs><g id="e5iwhwfvf9ti2" transform="matrix(2 0 0 2 -2318.72314452999990 -88.40999604000001)"><g id="e5iwhwfvf9ti3_to" transform="translate(1051,4)"><g id="e5iwhwfvf9ti3" transform="translate(0,0)"><rect id="e5iwhwfvf9ti4" width="2.650000" height="10.590000" rx="0" ry="0" transform="matrix(1 0 0 1 180.86000000000001 97.48000000000000)" fill="rgb(255,90,36)" stroke="none" stroke-width="1"/><rect id="e5iwhwfvf9ti5" width="2.650000" height="7.940000" rx="0" ry="0" transform="matrix(1 0 0 1 180.86000000000001 68.37000000000000)" fill="rgb(255,90,36)" stroke="none" stroke-width="1"/><path id="e5iwhwfvf9ti6" d="M187.480000,98.810000L176.890000,98.810000C176.160000,98.810000,175.570000,98.220000,175.570000,97.490000C175.570000,97.490000,175.570000,97.490000,175.570000,97.490000L175.570000,76.310000C175.570000,75.580000,176.160000,74.990000,176.890000,74.990000C176.890000,74.990000,176.890000,74.990000,176.890000,74.990000L187.470000,74.990000C188.200000,74.990000,188.790000,75.580000,188.790000,76.310000C188.790000,76.310000,188.790000,76.310000,188.790000,76.310000L188.790000,97.480000C188.800000,98.210000,188.210000,98.810000,187.480000,98.810000C187.480000,98.810000,187.480000,98.810000,187.480000,98.810000ZM178.220000,96.160000L186.160000,96.160000L186.160000,77.640000L178.220000,77.640000L178.220000,96.160000Z" fill="rgb(255,90,36)" stroke="none" stroke-width="1"/></g></g><g id="e5iwhwfvf9ti7_to" transform="translate(0,0)"><g id="e5iwhwfvf9ti7" transform="translate(0,0)"><path id="e5iwhwfvf9ti8" d="M1222.600000,114.720000L1212.010000,114.720000C1211.280000,114.720000,1210.690000,114.130000,1210.690000,113.400000C1210.690000,113.400000,1210.690000,113.400000,1210.690000,113.400000L1210.690000,85.610000C1210.690000,84.880000,1211.280000,84.290000,1212.010000,84.290000C1212.010000,84.290000,1212.010000,84.290000,1212.010000,84.290000L1222.600000,84.290000C1223.330000,84.290000,1223.920000,84.880000,1223.920000,85.610000C1223.920000,85.610000,1223.920000,85.610000,1223.920000,85.610000L1223.920000,113.400000C1223.920000,114.120000,1223.330000,114.720000,1222.600000,114.720000C1222.600000,114.720000,1222.600000,114.720000,1222.600000,114.720000ZM1213.340000,112.070000L1221.280000,112.070000L1221.280000,86.930000L1213.340000,86.930000L1213.340000,112.070000Z" fill="rgb(255,90,36)" stroke="none" stroke-width="1"/><rect id="e5iwhwfvf9ti9" width="2.650000" height="7.940000" rx="0" ry="0" transform="matrix(1 0 0 1 1215.98000000000002 77.67000000000000)" fill="rgb(255,90,36)" stroke="none" stroke-width="1"/><rect id="e5iwhwfvf9ti10" width="2.650000" height="10.590000" rx="0" ry="0" transform="matrix(1 0 0 1 1215.98000000000002 113.39000000000000)" fill="rgb(255,90,36)" stroke="none" stroke-width="1"/></g></g><g id="e5iwhwfvf9ti11_to" transform="translate(0,0)"><g id="e5iwhwfvf9ti11" transform="translate(0,0)"><path id="e5iwhwfvf9ti12" d="M1206.720000,102.810000L1196.130000,102.810000C1195.400000,102.810000,1194.810000,102.220000,1194.810000,101.490000L1194.810000,72.370000C1194.810000,71.640000,1195.400000,71.050000,1196.130000,71.050000L1206.710000,71.050000C1207.440000,71.050000,1208.030000,71.640000,1208.030000,72.370000L1208.030000,101.480000C1208.040000,102.210000,1207.450000,102.810000,1206.720000,102.810000ZM1197.460000,100.160000L1205.400000,100.160000L1205.400000,73.700000L1197.460000,73.700000L1197.460000,100.160000Z" fill="rgb(255,90,36)" stroke="none" stroke-width="1"/><rect id="e5iwhwfvf9ti13" width="2.650000" height="7.940000" rx="0" ry="0" transform="matrix(1 0 0 1 1200.10999999999990 64.43000000000001)" fill="rgb(255,90,36)" stroke="none" stroke-width="1"/><rect id="e5iwhwfvf9ti14" width="2.650000" height="10.590000" rx="0" ry="0" transform="matrix(1 0 0 1 1200.10999999999990 101.48000000000000)" fill="rgb(255,90,36)" stroke="none" stroke-width="1"/></g></g><g id="e5iwhwfvf9ti15_to" transform="translate(5.293000,10.585000)"><g id="e5iwhwfvf9ti15" transform="translate(0,0)"><rect id="e5iwhwfvf9ti16" width="2.650000" height="10.590000" rx="0" ry="0" transform="matrix(1 0 0 1 1178.93000000000006 64.43000000000001)" fill="rgb(255,90,36)" stroke="none" stroke-width="1"/><path id="e5iwhwfvf9ti17" d="M1185.550000,102.810000L1174.960000,102.810000C1174.230000,102.810000,1173.640000,102.220000,1173.640000,101.490000L1173.640000,75.020000C1173.640000,74.290000,1174.230000,73.700000,1174.960000,73.700000L1185.540000,73.700000C1186.270000,73.700000,1186.860000,74.290000,1186.860000,75.020000L1186.860000,101.480000C1186.870000,102.220000,1186.280000,102.810000,1185.550000,102.810000ZM1176.290000,100.160000L1184.230000,100.160000L1184.230000,76.340000L1176.290000,76.340000L1176.290000,100.160000Z" fill="rgb(255,90,36)" stroke="none" stroke-width="1"/><rect id="e5iwhwfvf9ti18" width="2.650000" height="10.590000" rx="0" ry="0" transform="matrix(1 0 0 1 1178.93000000000006 101.48000000000000)" fill="rgb(255,90,36)" stroke="none" stroke-width="1"/></g></g></g><g id="e5iwhwfvf9ti19" style="mix-blend-mode:soft-light" transform="matrix(2 0 0 2 -2318.72314452999990 -88.40999604000001)" opacity="0" filter="url(#e5iwhwfvf9ti19-filter)"><g id="e5iwhwfvf9ti20_to" transform="translate(1051,4)"><g id="e5iwhwfvf9ti20" transform="translate(0,0)"><rect id="e5iwhwfvf9ti21" width="2.650000" height="10.590000" rx="0" ry="0" transform="matrix(1 0 0 1 180.86000000000001 97.48000000000000)" fill="rgb(255,90,36)" stroke="none" stroke-width="1"/><rect id="e5iwhwfvf9ti22" width="2.650000" height="7.940000" rx="0" ry="0" transform="matrix(1 0 0 1 180.86000000000001 68.37000000000000)" fill="rgb(255,90,36)" stroke="none" stroke-width="1"/><path id="e5iwhwfvf9ti23" d="M187.480000,98.810000L176.890000,98.810000C176.160000,98.810000,175.570000,98.220000,175.570000,97.490000C175.570000,97.490000,175.570000,97.490000,175.570000,97.490000L175.570000,76.310000C175.570000,75.580000,176.160000,74.990000,176.890000,74.990000C176.890000,74.990000,176.890000,74.990000,176.890000,74.990000L187.470000,74.990000C188.200000,74.990000,188.790000,75.580000,188.790000,76.310000C188.790000,76.310000,188.790000,76.310000,188.790000,76.310000L188.790000,97.480000C188.800000,98.210000,188.210000,98.810000,187.480000,98.810000C187.480000,98.810000,187.480000,98.810000,187.480000,98.810000ZM178.220000,96.160000L186.160000,96.160000L186.160000,77.640000L178.220000,77.640000L178.220000,96.160000Z" fill="rgb(255,90,36)" stroke="none" stroke-width="1"/></g></g><g id="e5iwhwfvf9ti24_to" transform="translate(0,0)"><g id="e5iwhwfvf9ti24" transform="translate(0,0)"><path id="e5iwhwfvf9ti25" d="M1222.600000,114.720000L1212.010000,114.720000C1211.280000,114.720000,1210.690000,114.130000,1210.690000,113.400000C1210.690000,113.400000,1210.690000,113.400000,1210.690000,113.400000L1210.690000,85.610000C1210.690000,84.880000,1211.280000,84.290000,1212.010000,84.290000C1212.010000,84.290000,1212.010000,84.290000,1212.010000,84.290000L1222.600000,84.290000C1223.330000,84.290000,1223.920000,84.880000,1223.920000,85.610000C1223.920000,85.610000,1223.920000,85.610000,1223.920000,85.610000L1223.920000,113.400000C1223.920000,114.120000,1223.330000,114.720000,1222.600000,114.720000C1222.600000,114.720000,1222.600000,114.720000,1222.600000,114.720000ZM1213.340000,112.070000L1221.280000,112.070000L1221.280000,86.930000L1213.340000,86.930000L1213.340000,112.070000Z" fill="rgb(255,90,36)" stroke="none" stroke-width="1"/><rect id="e5iwhwfvf9ti26" width="2.650000" height="7.940000" rx="0" ry="0" transform="matrix(1 0 0 1 1215.98000000000002 77.67000000000000)" fill="rgb(255,90,36)" stroke="none" stroke-width="1"/><rect id="e5iwhwfvf9ti27" width="2.650000" height="10.590000" rx="0" ry="0" transform="matrix(1 0 0 1 1215.98000000000002 113.39000000000000)" fill="rgb(255,90,36)" stroke="none" stroke-width="1"/></g></g><g id="e5iwhwfvf9ti28_to" transform="translate(0,0)"><g id="e5iwhwfvf9ti28" transform="translate(0,0)"><path id="e5iwhwfvf9ti29" d="M1206.720000,102.810000L1196.130000,102.810000C1195.400000,102.810000,1194.810000,102.220000,1194.810000,101.490000L1194.810000,72.370000C1194.810000,71.640000,1195.400000,71.050000,1196.130000,71.050000L1206.710000,71.050000C1207.440000,71.050000,1208.030000,71.640000,1208.030000,72.370000L1208.030000,101.480000C1208.040000,102.210000,1207.450000,102.810000,1206.720000,102.810000ZM1197.460000,100.160000L1205.400000,100.160000L1205.400000,73.700000L1197.460000,73.700000L1197.460000,100.160000Z" fill="rgb(255,90,36)" stroke="none" stroke-width="1"/><rect id="e5iwhwfvf9ti30" width="2.650000" height="7.940000" rx="0" ry="0" transform="matrix(1 0 0 1 1200.10999999999990 64.43000000000001)" fill="rgb(255,90,36)" stroke="none" stroke-width="1"/><rect id="e5iwhwfvf9ti31" width="2.650000" height="10.590000" rx="0" ry="0" transform="matrix(1 0 0 1 1200.10999999999990 101.48000000000000)" fill="rgb(255,90,36)" stroke="none" stroke-width="1"/></g></g><g id="e5iwhwfvf9ti32_to" transform="translate(5.293000,10.585000)"><g id="e5iwhwfvf9ti32" transform="translate(0,0)"><rect id="e5iwhwfvf9ti33" width="2.650000" height="10.590000" rx="0" ry="0" transform="matrix(1 0 0 1 1178.93000000000006 64.43000000000001)" fill="rgb(255,90,36)" stroke="none" stroke-width="1"/><path id="e5iwhwfvf9ti34" d="M1185.550000,102.810000L1174.960000,102.810000C1174.230000,102.810000,1173.640000,102.220000,1173.640000,101.490000L1173.640000,75.020000C1173.640000,74.290000,1174.230000,73.700000,1174.960000,73.700000L1185.540000,73.700000C1186.270000,73.700000,1186.860000,74.290000,1186.860000,75.020000L1186.860000,101.480000C1186.870000,102.220000,1186.280000,102.810000,1185.550000,102.810000ZM1176.290000,100.160000L1184.230000,100.160000L1184.230000,76.340000L1176.290000,76.340000L1176.290000,100.160000Z" fill="rgb(255,90,36)" stroke="none" stroke-width="1"/><rect id="e5iwhwfvf9ti35" width="2.650000" height="10.590000" rx="0" ry="0" transform="matrix(1 0 0 1 1178.93000000000006 101.48000000000000)" fill="rgb(255,90,36)" stroke="none" stroke-width="1"/></g></g></g></svg>