<svg width="192" height="71" viewBox="0 0 192 71" fill="none" xmlns="http://www.w3.org/2000/svg">
<path d="M13.9906 0.0499268H178.252C185.839 0.0499268 192 6.21054 192 13.7978V56.533C192 64.1203 185.839 70.2809 178.252 70.2809H13.9906C6.40329 70.2809 0.242676 64.1203 0.242676 56.533V13.7978C0.242676 6.21054 6.40329 0.0499268 13.9906 0.0499268Z" fill="black"/>
<path d="M48.8138 28.5687C47.1926 29.736 46.0902 30.8384 45.4417 32.0057C44.8581 33.173 44.5338 34.4051 44.5338 35.7669C44.5338 36.8045 44.7284 37.7772 45.0526 38.6851C45.3768 39.5281 45.8956 40.3711 46.5441 41.2142C47.1926 41.9924 48.2302 42.7705 49.7217 43.5487C49.1381 45.2348 48.2302 46.9857 46.9981 48.7366C45.7659 50.4875 44.6635 51.7845 43.6908 52.4978C42.7181 53.2112 41.7453 53.6002 40.8374 53.6002C40.1241 53.6002 39.1514 53.3408 37.9193 52.8869L37.3356 52.6924L36.5574 52.3033C35.909 52.1087 35.1308 51.979 34.3526 51.979C33.5744 51.979 32.6017 52.1736 31.629 52.4978L30.9156 52.7572L30.0077 53.1463C29.2944 53.4057 28.5811 53.6002 27.8677 53.6002C26.3762 53.6002 24.755 52.5627 23.0041 50.4227C21.2532 48.2827 19.9562 46.013 19.0483 43.5487C18.1405 41.0845 17.6865 38.6202 17.6865 36.0911C17.6865 32.8487 18.5944 30.1899 20.4102 28.0499C22.2259 25.9099 24.755 24.8075 27.8677 24.8075C29.035 24.8075 30.0726 25.002 31.1102 25.456L31.8235 25.7154L32.5368 26.0396C33.1853 26.299 33.7041 26.4287 34.0932 26.4287C34.6768 26.4287 35.1956 26.299 35.7793 26.1045L36.752 25.7802L37.4653 25.5208C38.5678 25.0669 39.7999 24.8723 41.1617 24.8723C44.2744 24.8723 46.8035 26.1045 48.8138 28.5687ZM41.1617 14.2372C41.2265 14.6911 41.2265 15.0154 41.2265 15.2748C41.2265 16.5069 40.9023 17.8039 40.1241 19.1008C39.3459 20.3978 38.5029 21.5002 37.3356 22.2136C36.1684 22.9269 34.8714 23.316 33.5096 23.316C33.4447 22.862 33.4447 22.4729 33.4447 22.2784C33.4447 21.2408 33.769 20.1384 34.4174 18.9711C35.0659 17.8039 35.909 16.8311 37.0114 15.9881C38.1138 15.1451 39.2811 14.6263 40.7078 14.4317C40.7078 14.3669 40.9023 14.302 41.1617 14.2372Z" fill="white"/>
<path d="M69.8257 15.9378H72.4845L79.8773 33.0578H76.3754L74.7542 29.1669H67.3615L65.8051 33.0578H62.3682L69.8257 15.9378ZM73.7167 26.5081L71.0579 19.5693L68.3991 26.5081H73.7167Z" fill="white"/>
<path d="M81.4985 21.4499H84.2222V23.2009H84.287C84.6761 22.4875 85.2597 21.9687 85.9731 21.6445C86.6864 21.3202 87.4646 21.1906 88.2428 21.1906C89.1507 21.1906 89.9288 21.3202 90.6422 21.6445C91.3555 21.9687 91.9391 22.3578 92.4579 22.9415C92.9767 23.4603 93.3658 24.1087 93.6252 24.8869C93.8846 25.6003 94.0143 26.4433 94.0143 27.2863C94.0143 28.1293 93.8846 28.9075 93.6252 29.6857C93.3658 30.399 92.9767 31.0475 92.4579 31.6312C91.9391 32.15 91.3555 32.6039 90.707 32.9281C89.9937 33.2524 89.2804 33.3821 88.4373 33.3821C87.9185 33.3821 87.3998 33.3172 87.0107 33.1875C86.6216 33.0578 86.2325 32.9281 85.9082 32.7336C85.584 32.5391 85.3246 32.3445 85.0652 32.15C84.8707 31.9554 84.6761 31.7609 84.4816 31.5663H84.4167V38.57H81.4985V21.4499ZM91.0961 27.2215C91.0961 26.7675 91.0313 26.3136 90.8367 25.9245C90.6422 25.5354 90.4476 25.1463 90.1882 24.8221C89.864 24.4978 89.5398 24.2384 89.0858 24.0439C88.6967 23.8493 88.1779 23.7845 87.6591 23.7845C87.1404 23.7845 86.6216 23.8493 86.2325 24.0439C85.8434 24.2384 85.4543 24.4978 85.13 24.8221C84.8058 25.1463 84.6113 25.5354 84.4816 25.9245C84.3519 26.3136 84.2222 26.7675 84.2222 27.2215C84.2222 27.6754 84.287 28.1293 84.4816 28.5184C84.6113 28.9075 84.8707 29.2966 85.13 29.6209C85.4543 29.9451 85.7785 30.2045 86.2325 30.399C86.6216 30.5936 87.1404 30.6584 87.6591 30.6584C88.1779 30.6584 88.6967 30.5936 89.0858 30.399C89.4749 30.2045 89.864 29.9451 90.1882 29.6209C90.5125 29.2966 90.707 28.9075 90.8367 28.5184C91.0313 28.1293 91.0961 27.6754 91.0961 27.2215Z" fill="white"/>
<path d="M96.7378 21.4499H99.4614V23.2009H99.5263C99.9154 22.4875 100.499 21.9687 101.212 21.6445C101.926 21.3202 102.704 21.1906 103.482 21.1906C104.39 21.1906 105.168 21.3202 105.881 21.6445C106.595 21.9687 107.178 22.3578 107.697 22.9415C108.216 23.4603 108.605 24.1087 108.864 24.8869C109.124 25.6003 109.254 26.4433 109.254 27.2863C109.254 28.1293 109.124 28.9075 108.864 29.6857C108.605 30.399 108.216 31.0475 107.697 31.6312C107.178 32.15 106.595 32.6039 105.946 32.9281C105.233 33.2524 104.52 33.3821 103.677 33.3821C103.158 33.3821 102.639 33.3172 102.25 33.1875C101.861 33.0578 101.472 32.9281 101.147 32.7336C100.823 32.5391 100.564 32.3445 100.304 32.15C100.045 31.9554 99.9154 31.7609 99.7208 31.5663H99.656V38.57H96.7378V21.4499ZM106.335 27.2215C106.335 26.7675 106.271 26.3136 106.076 25.9245C105.946 25.5354 105.687 25.1463 105.427 24.8221C105.103 24.4978 104.779 24.2384 104.325 24.0439C103.936 23.8493 103.417 23.7845 102.898 23.7845C102.38 23.7845 101.861 23.8493 101.472 24.0439C101.083 24.2384 100.694 24.4978 100.369 24.8221C100.045 25.1463 99.8505 25.5354 99.7208 25.9245C99.5911 26.3136 99.4614 26.7675 99.4614 27.2215C99.4614 27.6754 99.5263 28.1293 99.7208 28.5184C99.8505 28.9075 100.11 29.2966 100.369 29.6209C100.694 29.9451 101.018 30.2045 101.472 30.399C101.861 30.5936 102.38 30.6584 102.898 30.6584C103.417 30.6584 103.936 30.5936 104.325 30.399C104.714 30.2045 105.103 29.9451 105.427 29.6209C105.752 29.2966 105.946 28.9075 106.076 28.5184C106.271 28.1293 106.335 27.6754 106.335 27.2215Z" fill="white"/>
<path d="M127.735 19.6342C127.411 19.1802 126.957 18.856 126.438 18.5966C125.919 18.3372 125.336 18.2723 124.752 18.2723C124.428 18.2723 124.039 18.3372 123.715 18.402C123.39 18.4669 123.066 18.5966 122.807 18.7911C122.547 18.9857 122.353 19.1802 122.158 19.5045C122.029 19.7639 121.899 20.153 121.899 20.4772C121.899 21.0608 122.093 21.5148 122.482 21.7742C122.872 22.0984 123.39 22.3578 123.974 22.5524C124.558 22.7469 125.206 23.0063 125.919 23.2008C126.633 23.3954 127.281 23.7196 127.865 24.0439C128.449 24.3681 128.967 24.8869 129.356 25.5354C129.745 26.119 129.94 26.962 129.94 27.9996C129.94 28.9075 129.745 29.7505 129.421 30.399C129.097 31.1124 128.643 31.6311 128.059 32.0851C127.476 32.539 126.827 32.8633 126.049 33.1227C125.271 33.3172 124.493 33.4469 123.65 33.4469C122.612 33.4469 121.575 33.2524 120.602 32.9281C119.629 32.6039 118.786 31.9554 118.073 31.1124L120.342 28.9075C120.732 29.4911 121.185 29.8802 121.834 30.2045C122.418 30.5287 123.066 30.6584 123.779 30.6584C124.104 30.6584 124.493 30.5936 124.817 30.5287C125.141 30.4639 125.465 30.2693 125.79 30.0748C126.114 29.8802 126.309 29.6208 126.503 29.3614C126.698 29.0372 126.762 28.713 126.762 28.3239C126.762 27.6754 126.568 27.2214 126.179 26.8972C125.79 26.573 125.271 26.2487 124.687 26.0542C124.104 25.7948 123.455 25.6002 122.742 25.4057C122.029 25.2111 121.38 24.8869 120.796 24.5627C120.213 24.1736 119.694 23.7196 119.305 23.136C118.916 22.5523 118.721 21.7093 118.721 20.7366C118.721 19.8287 118.916 19.1154 119.24 18.4669C119.564 17.8184 120.083 17.2996 120.667 16.8457C121.25 16.3917 121.899 16.1323 122.677 15.8729C123.455 15.6784 124.233 15.5487 125.012 15.5487C125.919 15.5487 126.762 15.6784 127.605 15.9378C128.449 16.1972 129.227 16.6511 129.875 17.2996L127.735 19.6342Z" fill="white"/>
<path d="M131.561 23.9142V21.4499H133.96V18.0778H136.879V21.4499H140.056V23.9142H136.879V28.9724C136.879 29.556 137.008 30.01 137.203 30.3342C137.397 30.6584 137.851 30.853 138.5 30.853C138.759 30.853 139.019 30.853 139.343 30.7881C139.667 30.7233 139.862 30.6584 140.056 30.5287V32.993C139.732 33.1227 139.408 33.2524 138.954 33.3172C138.5 33.3821 138.111 33.3821 137.786 33.3821C137.008 33.3821 136.36 33.3172 135.906 33.1227C135.387 32.9281 134.998 32.6687 134.739 32.3445C134.479 32.0203 134.285 31.5663 134.155 31.0475C134.025 30.5287 134.025 29.9451 134.025 29.2318V23.9142H131.561Z" fill="white"/>
<path d="M141.742 27.2215C141.742 26.3136 141.937 25.4706 142.261 24.6924C142.585 23.9142 143.039 23.3305 143.623 22.7469C144.206 22.1633 144.855 21.7742 145.633 21.5148C146.411 21.2554 147.254 21.0609 148.097 21.0609C148.94 21.0609 149.783 21.1905 150.562 21.5148C151.34 21.7742 151.988 22.2281 152.572 22.7469C153.156 23.2657 153.609 23.9142 153.934 24.6924C154.258 25.4706 154.453 26.2487 154.453 27.2215C154.453 28.1293 154.258 28.9724 153.934 29.7506C153.609 30.5287 153.156 31.1124 152.572 31.696C151.988 32.2796 151.34 32.6687 150.562 32.9281C149.783 33.1875 148.94 33.3821 148.097 33.3821C147.254 33.3821 146.411 33.2524 145.633 32.9281C144.855 32.6039 144.206 32.2148 143.623 31.696C143.039 31.1772 142.585 30.5287 142.261 29.7506C141.937 28.9724 141.742 28.1942 141.742 27.2215ZM144.66 27.2215C144.66 27.6754 144.725 28.1293 144.92 28.5184C145.049 28.9075 145.309 29.2966 145.568 29.6209C145.892 29.9451 146.217 30.2045 146.671 30.399C147.06 30.5936 147.579 30.6584 148.097 30.6584C148.616 30.6584 149.135 30.5936 149.524 30.399C149.913 30.2045 150.302 29.9451 150.626 29.6209C150.951 29.2966 151.145 28.9075 151.275 28.5184C151.405 28.1293 151.534 27.6754 151.534 27.2215C151.534 26.7675 151.469 26.3136 151.275 25.9245C151.145 25.5354 150.886 25.1463 150.626 24.8221C150.302 24.4978 149.978 24.2384 149.524 24.0439C149.135 23.8493 148.616 23.7845 148.097 23.7845C147.579 23.7845 147.06 23.8493 146.671 24.0439C146.282 24.2384 145.892 24.4978 145.568 24.8221C145.244 25.1463 145.049 25.5354 144.92 25.9245C144.725 26.3784 144.66 26.7675 144.66 27.2215Z" fill="white"/>
<path d="M157.047 21.45H159.965V23.2657H160.03C160.354 22.6172 160.808 22.0985 161.392 21.7094C161.975 21.3203 162.689 21.1257 163.467 21.1257C163.661 21.1257 163.791 21.1257 163.986 21.1906C164.18 21.2554 164.31 21.2554 164.504 21.3203V24.1088C164.245 24.0439 164.05 23.9791 163.791 23.9791C163.532 23.9142 163.337 23.9142 163.078 23.9142C162.429 23.9142 161.846 24.0439 161.456 24.3033C161.067 24.5627 160.743 24.8221 160.484 25.1463C160.289 25.4706 160.095 25.7948 160.03 26.1191C159.965 26.4433 159.9 26.7027 159.9 26.8324V33.0579H156.982V21.45H157.047Z" fill="white"/>
<path d="M168.33 28.2589C168.395 29.102 168.784 29.8153 169.368 30.2693C169.951 30.7232 170.665 30.9826 171.443 30.9826C172.156 30.9826 172.805 30.8529 173.259 30.5286C173.777 30.2044 174.167 29.8802 174.556 29.4262L176.631 30.9826C175.982 31.8256 175.204 32.4093 174.361 32.7983C173.518 33.1874 172.675 33.3171 171.702 33.3171C170.859 33.3171 170.016 33.1874 169.238 32.8632C168.46 32.539 167.811 32.1499 167.228 31.6311C166.644 31.1123 166.19 30.4638 165.866 29.6856C165.542 28.9074 165.347 28.1293 165.347 27.1565C165.347 26.2486 165.542 25.4056 165.866 24.6274C166.19 23.8492 166.644 23.2656 167.228 22.682C167.811 22.0983 168.46 21.7092 169.238 21.4499C170.016 21.1905 170.859 20.9959 171.702 20.9959C172.48 20.9959 173.259 21.1256 173.907 21.4499C174.556 21.7092 175.139 22.1632 175.593 22.682C176.047 23.2008 176.436 23.8492 176.696 24.6274C176.955 25.4056 177.085 26.3135 177.085 27.3511V28.1293H168.33V28.2589ZM174.296 26.1189C174.296 25.2759 174.037 24.5626 173.518 24.1086C172.999 23.5899 172.286 23.3953 171.378 23.3953C170.535 23.3953 169.822 23.6547 169.303 24.1735C168.784 24.6923 168.46 25.3408 168.395 26.1838H174.296V26.1189Z" fill="white"/>
<path d="M63.7416 44.6882V45.4922H73.4376V44.6882H63.7416ZM63.2376 52.0802V52.8842H73.9176V52.0802H63.2376ZM65.4456 46.3802C65.9016 48.0002 66.4296 50.1362 66.6096 51.5162L67.4496 51.3242C67.2456 49.9202 66.7296 47.8322 66.2376 46.2002L65.4456 46.3802ZM70.9176 46.2002C70.4976 48.0242 69.6936 50.7242 68.9976 52.2602L69.7896 52.4402C70.4616 50.9042 71.2776 48.3242 71.8296 46.3562L70.9176 46.2002ZM67.7616 42.5642C67.9896 43.1882 68.2416 43.9922 68.3376 44.5202L69.1536 44.2682C69.0456 43.7522 68.7696 42.9722 68.5296 42.3602L67.7616 42.5642ZM76.1976 45.4322V46.1642H79.9656V45.4322H76.1976ZM76.1856 43.0562V43.7762H79.6296V47.9402H76.1856V48.6722H80.4336V43.0562H76.1856ZM75.7416 53.0282C75.9936 52.8242 76.4016 52.6682 79.7736 51.4562C79.7136 51.2882 79.6296 51.0002 79.5696 50.7722L76.0536 51.9482L75.6816 52.2962L75.7416 53.0282ZM78.3816 49.6682C78.9936 50.6642 79.7136 52.0082 80.0376 52.8002L80.7456 52.4042C80.4216 51.6122 79.6896 50.3162 79.0536 49.3322L78.3816 49.6682ZM75.7416 53.0282C75.7416 52.7042 76.7016 52.2722 76.7016 52.2722V43.0562H75.8976V51.4562C75.8976 51.9122 75.5976 52.1162 75.3936 52.2122C75.5256 52.4162 75.6816 52.8002 75.7416 53.0282ZM84.7056 43.1282V50.0402C84.7056 50.1962 84.6576 50.2562 84.4776 50.2562C84.3096 50.2682 83.7336 50.2682 83.0856 50.2442C83.2056 50.4722 83.3016 50.8082 83.3376 51.0242C84.2256 51.0242 84.7656 51.0242 85.0896 50.8802C85.4016 50.7482 85.5096 50.4962 85.5096 50.0402V43.1282H84.7056ZM81.5976 43.1282V53.4122H82.4016V43.8722H85.1616V43.1282H81.5976ZM87.0576 48.7562L87.2976 49.5362C88.4616 49.2482 90.0096 48.8402 91.4856 48.4442L91.3896 47.7002C89.8176 48.1082 88.1616 48.5162 87.0576 48.7562ZM87.2016 44.7962V45.5522H91.4016V44.7962H87.2016ZM89.0016 42.4442V52.3802C89.0016 52.5482 88.9416 52.5962 88.7736 52.6082C88.6176 52.6082 88.0896 52.6202 87.5016 52.5962C87.6096 52.8122 87.7296 53.1362 87.7656 53.3402C88.5816 53.3402 89.0736 53.3282 89.3736 53.1962C89.6616 53.0762 89.7936 52.8482 89.7936 52.3802V42.4442H89.0016ZM91.5216 51.7202V52.4642H96.9816V51.7202H91.5216ZM91.8936 47.3762V48.1682H97.0296V47.3762H91.8936ZM91.6056 43.5482V44.2922H96.6096V53.3882H97.3776V43.5482H91.6056ZM109.054 47.6882V47.8202C108.802 50.9522 108.526 52.1642 108.166 52.5002C108.058 52.6202 107.938 52.6442 107.722 52.6322C107.506 52.6322 106.954 52.6322 106.366 52.5722C106.486 52.7762 106.57 53.1002 106.582 53.3162C107.17 53.3522 107.722 53.3522 108.022 53.3402C108.382 53.3162 108.598 53.2322 108.826 52.9922C109.246 52.5602 109.522 51.3122 109.81 48.0602C109.822 47.9402 109.834 47.6882 109.834 47.6882H109.054ZM103.906 43.1282V43.8722H108.358V43.1282H103.906ZM104.482 44.6762C104.398 45.8402 104.23 47.4362 104.086 48.3842H104.83C104.974 47.4722 105.142 45.9122 105.226 44.7242L104.482 44.6762ZM104.302 47.6882V48.3842H109.294V47.6882H104.302ZM103.474 50.0402V50.7722H108.106V50.0402H103.474ZM108.022 43.1282V43.2362C107.938 44.3522 107.698 46.6082 107.482 48.1562L108.238 48.2042C108.454 46.6562 108.682 44.5442 108.79 43.1522L108.238 43.0922L108.106 43.1282H108.022ZM99.1896 43.0682V43.8122H103.282V43.0682H99.1896ZM100.342 46.7522V47.4842H102.214V51.1682H100.342V51.8882H102.922V46.7522H100.342ZM100.762 43.4282C100.438 45.4562 99.8616 47.3522 98.9376 48.6002C99.0696 48.8042 99.2736 49.2482 99.3336 49.4282C100.414 48.0002 101.098 45.8522 101.518 43.5842L100.762 43.4282ZM99.9936 46.7522V52.8602H100.69V46.7522H99.9936ZM111.25 43.2962V44.1122H121.906V43.2962H111.25ZM115.918 43.9082V53.4002H116.758V43.9082H115.918ZM116.386 46.7402C117.862 47.4962 119.746 48.6362 120.682 49.3802L121.234 48.6482C120.274 47.9282 118.366 46.8362 116.914 46.1282L116.386 46.7402ZM131.41 43.0682C131.962 43.5122 132.598 44.1722 132.898 44.6042L133.486 44.1842C133.198 43.7402 132.538 43.1042 131.974 42.6842L131.41 43.0682ZM123.238 45.1442V45.8042H133.966V45.1442H123.238ZM123.862 43.4042V44.0522H129.118V43.4042H123.862ZM126.19 42.3962V45.4682H126.97V42.3962H126.19ZM129.91 42.4202C129.946 48.4202 130.666 53.3162 132.886 53.3162C133.69 53.3162 133.966 52.7522 134.11 50.9642C133.906 50.8922 133.63 50.7242 133.462 50.5562C133.39 51.9842 133.27 52.5242 132.958 52.5242C131.506 52.5242 130.666 48.2642 130.714 42.4202H129.91ZM132.682 46.4522C131.962 49.0322 130.582 51.5042 128.674 52.8722C128.866 53.0162 129.106 53.2562 129.25 53.4242C131.218 51.9122 132.61 49.3802 133.39 46.6562L132.682 46.4522ZM123.43 47.0642V47.7362H129.586V47.0642H123.43ZM126.622 48.1322V53.3522H127.378V48.1322H126.622ZM124.054 50.0162C124.054 49.8482 124.57 49.5962 124.57 49.5962V49.5842C125.206 48.6842 125.89 47.3762 126.382 46.0682L125.59 45.8522C125.23 47.0522 124.558 48.3242 124.354 48.6602C124.162 48.9962 123.994 49.2362 123.802 49.2722C123.91 49.4642 124.018 49.8482 124.054 50.0162ZM124.054 50.0162C124.162 49.9202 124.51 49.8482 125.026 49.8482H129.322L129.334 49.1522H124.534L124.054 49.3922V50.0162ZM123.37 51.4082L123.454 52.1522C125.026 51.9962 127.39 51.7562 129.61 51.5162L129.622 50.8442C127.282 51.0722 124.87 51.2882 123.37 51.4082Z" fill="white"/>
</svg>
