<svg width="423" height="112" viewBox="0 0 423 112" fill="none" xmlns="http://www.w3.org/2000/svg">
<rect width="423" height="112" rx="18" fill="black"/>
<path d="M149.134 78.744V80.218H166.91V78.744H149.134ZM148.21 92.296V93.77H167.79V92.296H148.21ZM152.258 81.846C153.094 84.816 154.062 88.732 154.392 91.262L155.932 90.91C155.558 88.336 154.612 84.508 153.71 81.516L152.258 81.846ZM162.29 81.516C161.52 84.86 160.046 89.81 158.77 92.626L160.222 92.956C161.454 90.14 162.95 85.41 163.962 81.802L162.29 81.516ZM156.504 74.85C156.922 75.994 157.384 77.468 157.56 78.436L159.056 77.974C158.858 77.028 158.352 75.598 157.912 74.476L156.504 74.85ZM171.97 80.108V81.45H178.878V80.108H171.97ZM171.948 75.752V77.072H178.262V84.706H171.948V86.048H179.736V75.752H171.948ZM171.134 94.034C171.596 93.66 172.344 93.374 178.526 91.152C178.416 90.844 178.262 90.316 178.152 89.898L171.706 92.054L171.024 92.692L171.134 94.034ZM175.974 87.874C177.096 89.7 178.416 92.164 179.01 93.616L180.308 92.89C179.714 91.438 178.372 89.062 177.206 87.258L175.974 87.874ZM171.134 94.034C171.134 93.44 172.894 92.648 172.894 92.648V75.752H171.42V91.152C171.42 91.988 170.87 92.362 170.496 92.538C170.738 92.912 171.024 93.616 171.134 94.034ZM187.568 75.884V88.556C187.568 88.842 187.48 88.952 187.15 88.952C186.842 88.974 185.786 88.974 184.598 88.93C184.818 89.348 184.994 89.964 185.06 90.36C186.688 90.36 187.678 90.36 188.272 90.096C188.844 89.854 189.042 89.392 189.042 88.556V75.884H187.568ZM181.87 75.884V94.738H183.344V77.248H188.404V75.884H181.87ZM192.232 76.192V77.688H211.768V76.192H192.232ZM200.79 77.314V94.716H202.33V77.314H200.79ZM201.648 82.506C204.354 83.892 207.808 85.982 209.524 87.346L210.536 86.004C208.776 84.684 205.278 82.682 202.616 81.384L201.648 82.506ZM229.192 75.774C230.204 76.588 231.37 77.798 231.92 78.59L232.998 77.82C232.47 77.006 231.26 75.84 230.226 75.07L229.192 75.774ZM214.21 79.58V80.79H233.878V79.58H214.21ZM215.354 76.39V77.578H224.99V76.39H215.354ZM219.622 74.542V80.174H221.052V74.542H219.622ZM226.442 74.586C226.508 85.586 227.828 94.562 231.898 94.562C233.372 94.562 233.878 93.528 234.142 90.25C233.768 90.118 233.262 89.81 232.954 89.502C232.822 92.12 232.602 93.11 232.03 93.11C229.368 93.11 227.828 85.3 227.916 74.586H226.442ZM231.524 81.978C230.204 86.708 227.674 91.24 224.176 93.748C224.528 94.012 224.968 94.452 225.232 94.76C228.84 91.988 231.392 87.346 232.822 82.352L231.524 81.978ZM214.562 83.1V84.332H225.848V83.1H214.562ZM220.414 85.058V94.628H221.8V85.058H220.414ZM215.706 88.512C215.706 88.204 216.652 87.742 216.652 87.742V87.72C217.818 86.07 219.072 83.672 219.974 81.274L218.522 80.878C217.862 83.078 216.63 85.41 216.256 86.026C215.904 86.642 215.596 87.082 215.244 87.148C215.442 87.5 215.64 88.204 215.706 88.512ZM215.706 88.512C215.904 88.336 216.542 88.204 217.488 88.204H225.364L225.386 86.928H216.586L215.706 87.368V88.512ZM214.452 91.064L214.606 92.428C217.488 92.142 221.822 91.702 225.892 91.262L225.914 90.03C221.624 90.448 217.202 90.844 214.452 91.064Z" fill="white"/>
<path d="M112.3 46.5783C109.263 48.743 107.198 50.7875 105.984 52.9522C104.891 55.117 104.283 57.402 104.283 59.9275C104.283 61.8517 104.648 63.6557 105.255 65.3394C105.862 66.9028 106.834 68.4662 108.049 70.0297C109.263 71.4728 111.206 72.916 114 74.3591C112.907 77.486 111.206 80.7331 108.899 83.9802C106.591 87.2273 104.526 89.6326 102.704 90.9555C100.883 92.2784 99.0607 93 97.3603 93C96.0243 93 94.2024 92.5189 91.8947 91.6771L90.8016 91.3163L89.3441 90.5947C88.1296 90.2339 86.6721 89.9934 85.2146 89.9934C83.7571 89.9934 81.9352 90.3542 80.1134 90.9555L78.7773 91.4366L77.0769 92.1582C75.7409 92.6392 74.4049 93 73.0688 93C70.2753 93 67.2389 91.0758 63.9595 87.1071C60.6802 83.1384 58.251 78.9292 56.5506 74.3591C54.8502 69.7891 54 65.2191 54 60.5288C54 54.5157 55.7004 49.5848 59.1012 45.6161C62.502 41.6474 67.2389 39.603 73.0688 39.603C75.2551 39.603 77.1984 39.9638 79.1417 40.8056L80.4777 41.2867L81.8138 41.888C83.0283 42.369 84 42.6096 84.7287 42.6096C85.8219 42.6096 86.7935 42.369 87.8866 42.0082L89.7085 41.4069L91.0445 40.9259C93.1093 40.084 95.417 39.7232 97.9676 39.7232C103.798 39.7232 108.534 42.0082 112.3 46.5783ZM97.9676 20C98.0891 20.8418 98.0891 21.4432 98.0891 21.9242C98.0891 24.2092 97.4818 26.6145 96.0243 29.0198C94.5668 31.425 92.9879 33.4695 90.8016 34.7924C88.6154 36.1153 86.1862 36.8369 83.6356 36.8369C83.5142 35.9951 83.5142 35.2735 83.5142 34.9127C83.5142 32.9885 84.1215 30.944 85.336 28.7792C86.5506 26.6145 88.1296 24.8105 90.1943 23.2471C92.2591 21.6837 94.4453 20.7216 97.1174 20.3608C97.1174 20.2405 97.4818 20.1203 97.9676 20Z" fill="white"/>
<path d="M161.901 20.7774H167.214L181.986 54.9858H174.989L171.749 47.2112H156.977L153.868 54.9858H147L161.901 20.7774ZM169.676 41.8985L164.363 28.0337L159.051 41.8985H169.676Z" fill="white"/>
<path d="M185.226 31.7915H190.668V35.2901H190.797C191.575 33.8647 192.741 32.8281 194.166 32.1802C195.592 31.5323 197.147 31.2732 198.702 31.2732C200.516 31.2732 202.071 31.5323 203.496 32.1802C204.921 32.8281 206.088 33.6056 207.124 34.7718C208.161 35.8084 208.938 37.1042 209.457 38.6591C209.975 40.0844 210.234 41.7689 210.234 43.4534C210.234 45.138 209.975 46.6929 209.457 48.2478C208.938 49.6732 208.161 50.9689 207.124 52.1351C206.088 53.1718 204.921 54.0788 203.626 54.7267C202.2 55.3746 200.775 55.6337 199.09 55.6337C198.054 55.6337 197.017 55.5042 196.24 55.245C195.462 54.9858 194.685 54.7267 194.037 54.338C193.389 53.9492 192.871 53.5605 192.352 53.1718C191.964 52.783 191.575 52.3943 191.186 52.0056H191.057V65.9999H185.226V31.7915ZM204.403 43.3239C204.403 42.4168 204.273 41.5098 203.885 40.7323C203.496 39.9549 203.107 39.1774 202.589 38.5295C201.941 37.8816 201.293 37.3633 200.386 36.9746C199.609 36.5858 198.572 36.4563 197.535 36.4563C196.499 36.4563 195.462 36.5858 194.685 36.9746C193.907 37.3633 193.13 37.8816 192.482 38.5295C191.834 39.1774 191.445 39.9549 191.186 40.7323C190.927 41.5098 190.668 42.4168 190.668 43.3239C190.668 44.2309 190.797 45.138 191.186 45.9154C191.445 46.6929 191.964 47.4703 192.482 48.1182C193.13 48.7661 193.778 49.2844 194.685 49.6732C195.462 50.0619 196.499 50.1915 197.535 50.1915C198.572 50.1915 199.609 50.0619 200.386 49.6732C201.164 49.2844 201.941 48.7661 202.589 48.1182C203.237 47.4703 203.626 46.6929 203.885 45.9154C204.273 45.138 204.403 44.2309 204.403 43.3239Z" fill="white"/>
<path d="M215.675 31.7915H221.118V35.2901H221.247C222.025 33.8647 223.191 32.8281 224.616 32.1802C226.041 31.5323 227.596 31.2732 229.151 31.2732C230.965 31.2732 232.52 31.5323 233.946 32.1802C235.371 32.8281 236.537 33.6056 237.574 34.7718C238.61 35.8084 239.388 37.1042 239.906 38.6591C240.425 40.0844 240.684 41.7689 240.684 43.4534C240.684 45.138 240.425 46.6929 239.906 48.2478C239.388 49.6732 238.61 50.9689 237.574 52.1351C236.537 53.1718 235.371 54.0788 234.075 54.7267C232.65 55.3746 231.225 55.6337 229.54 55.6337C228.503 55.6337 227.467 55.5042 226.689 55.245C225.912 54.9858 225.134 54.7267 224.487 54.338C223.839 53.9492 223.32 53.5605 222.802 53.1718C222.284 52.783 222.025 52.3943 221.636 52.0056H221.506V65.9999H215.675V31.7915ZM234.853 43.3239C234.853 42.4168 234.723 41.5098 234.334 40.7323C234.075 39.9549 233.557 39.1774 233.039 38.5295C232.391 37.8816 231.743 37.3633 230.836 36.9746C230.058 36.5858 229.022 36.4563 227.985 36.4563C226.949 36.4563 225.912 36.5858 225.134 36.9746C224.357 37.3633 223.58 37.8816 222.932 38.5295C222.284 39.1774 221.895 39.9549 221.636 40.7323C221.377 41.5098 221.118 42.4168 221.118 43.3239C221.118 44.2309 221.247 45.138 221.636 45.9154C221.895 46.6929 222.413 47.4703 222.932 48.1182C223.58 48.7661 224.227 49.2844 225.134 49.6732C225.912 50.0619 226.949 50.1915 227.985 50.1915C229.022 50.1915 230.058 50.0619 230.836 49.6732C231.613 49.2844 232.391 48.7661 233.039 48.1182C233.687 47.4703 234.075 46.6929 234.334 45.9154C234.723 45.138 234.853 44.2309 234.853 43.3239Z" fill="white"/>
<path d="M277.613 28.1634C276.965 27.2563 276.058 26.6085 275.022 26.0901C273.985 25.5718 272.819 25.4423 271.653 25.4423C271.005 25.4423 270.227 25.5718 269.579 25.7014C268.931 25.831 268.284 26.0901 267.765 26.4789C267.247 26.8676 266.858 27.2563 266.47 27.9042C266.21 28.4225 265.951 29.2 265.951 29.8479C265.951 31.0141 266.34 31.9211 267.117 32.4394C267.895 33.0873 268.932 33.6056 270.098 33.9944C271.264 34.3831 272.56 34.9014 273.985 35.2901C275.41 35.6789 276.706 36.3268 277.872 36.9746C279.039 37.6225 280.075 38.6592 280.853 39.9549C281.63 41.1211 282.019 42.8056 282.019 44.8789C282.019 46.693 281.63 48.3775 280.982 49.6732C280.334 51.0986 279.427 52.1352 278.261 53.0423C277.095 53.9493 275.799 54.5972 274.244 55.1155C272.689 55.5042 271.134 55.7634 269.45 55.7634C267.377 55.7634 265.303 55.3746 263.36 54.7268C261.416 54.0789 259.732 52.7831 258.306 51.0986L262.841 46.693C263.619 47.8592 264.526 48.6366 265.822 49.2845C266.988 49.9324 268.284 50.1915 269.709 50.1915C270.357 50.1915 271.134 50.062 271.782 49.9324C272.43 49.8028 273.078 49.4141 273.726 49.0254C274.374 48.6366 274.762 48.1183 275.151 47.6C275.54 46.9521 275.67 46.3042 275.67 45.5268C275.67 44.231 275.281 43.3239 274.503 42.6761C273.726 42.0282 272.689 41.3803 271.523 40.9915C270.357 40.4732 269.061 40.0845 267.636 39.6958C266.21 39.307 264.915 38.6592 263.748 38.0113C262.582 37.2338 261.546 36.3268 260.768 35.1606C259.991 33.9944 259.602 32.3099 259.602 30.3662C259.602 28.5521 259.991 27.1268 260.639 25.831C261.286 24.5352 262.323 23.4986 263.489 22.5915C264.655 21.6845 265.951 21.1662 267.506 20.6479C269.061 20.2592 270.616 20 272.171 20C273.985 20 275.67 20.2592 277.354 20.7775C279.039 21.2958 280.593 22.2028 281.889 23.4986L277.613 28.1634Z" fill="white"/>
<path d="M285.258 36.7154V31.7915H290.052V25.0534H295.883V31.7915H302.232V36.7154H295.883V46.8224C295.883 47.9886 296.142 48.8957 296.531 49.5436C296.92 50.1915 297.827 50.5802 299.123 50.5802C299.641 50.5802 300.159 50.5802 300.807 50.4506C301.455 50.321 301.844 50.1915 302.232 49.9323V54.8563C301.585 55.1154 300.937 55.3746 300.03 55.5041C299.123 55.6337 298.345 55.6337 297.697 55.6337C296.142 55.6337 294.847 55.5041 293.939 55.1154C292.903 54.7267 292.125 54.2084 291.607 53.5605C291.089 52.9126 290.7 52.0055 290.441 50.9689C290.182 49.9323 290.182 48.7661 290.182 47.3408V36.7154H285.258Z" fill="white"/>
<path d="M305.602 43.324C305.602 41.5099 305.99 39.8254 306.638 38.2704C307.286 36.7155 308.193 35.5493 309.359 34.3831C310.526 33.2169 311.821 32.4394 313.376 31.9211C314.931 31.4028 316.616 31.0141 318.3 31.0141C319.985 31.0141 321.669 31.2733 323.224 31.9211C324.779 32.4394 326.075 33.3465 327.241 34.3831C328.407 35.4197 329.314 36.7155 329.962 38.2704C330.61 39.8254 330.999 41.3803 330.999 43.324C330.999 45.138 330.61 46.8225 329.962 48.3775C329.314 49.9324 328.407 51.0986 327.241 52.2648C326.075 53.431 324.779 54.2085 323.224 54.7268C321.669 55.2451 319.985 55.6338 318.3 55.6338C316.616 55.6338 314.931 55.3747 313.376 54.7268C311.821 54.0789 310.526 53.3014 309.359 52.2648C308.193 51.2282 307.286 49.9324 306.638 48.3775C305.99 46.8225 305.602 45.2676 305.602 43.324ZM311.433 43.324C311.433 44.231 311.562 45.138 311.951 45.9155C312.21 46.693 312.728 47.4704 313.247 48.1183C313.895 48.7662 314.542 49.2845 315.449 49.6733C316.227 50.062 317.264 50.1916 318.3 50.1916C319.337 50.1916 320.373 50.062 321.151 49.6733C321.928 49.2845 322.706 48.7662 323.354 48.1183C324.002 47.4704 324.39 46.693 324.649 45.9155C324.909 45.138 325.168 44.231 325.168 43.324C325.168 42.4169 325.038 41.5099 324.649 40.7324C324.39 39.9549 323.872 39.1775 323.354 38.5296C322.706 37.8817 322.058 37.3634 321.151 36.9747C320.373 36.5859 319.337 36.4563 318.3 36.4563C317.264 36.4563 316.227 36.5859 315.449 36.9747C314.672 37.3634 313.895 37.8817 313.247 38.5296C312.599 39.1775 312.21 39.9549 311.951 40.7324C311.562 41.6395 311.433 42.4169 311.433 43.324Z" fill="white"/>
<path d="M336.183 31.7916H342.014V35.4198H342.143C342.791 34.124 343.698 33.0874 344.864 32.3099C346.031 31.5324 347.456 31.1437 349.011 31.1437C349.4 31.1437 349.659 31.1437 350.048 31.2733C350.436 31.4029 350.695 31.4029 351.084 31.5324V37.1043C350.566 36.9747 350.177 36.8451 349.659 36.8451C349.141 36.7155 348.752 36.7155 348.234 36.7155C346.938 36.7155 345.772 36.9747 344.994 37.493C344.217 38.0113 343.569 38.5296 343.05 39.1775C342.662 39.8254 342.273 40.4733 342.143 41.1212C342.014 41.7691 341.884 42.2874 341.884 42.5465V54.986H336.053V31.7916H336.183Z" fill="white"/>
<path d="M358.728 45.3972C358.858 47.0817 359.635 48.507 360.801 49.4141C361.968 50.3211 363.393 50.8394 364.948 50.8394C366.373 50.8394 367.669 50.5803 368.576 49.9324C369.613 49.2845 370.39 48.6366 371.168 47.7296L375.314 50.8394C374.018 52.5239 372.463 53.6901 370.779 54.4676C369.094 55.2451 367.41 55.5042 365.466 55.5042C363.782 55.5042 362.097 55.2451 360.542 54.5972C358.987 53.9493 357.692 53.1718 356.525 52.1352C355.359 51.0986 354.452 49.8028 353.804 48.2479C353.156 46.6929 352.768 45.138 352.768 43.1944C352.768 41.3803 353.156 39.6958 353.804 38.1408C354.452 36.5859 355.359 35.4197 356.525 34.2535C357.692 33.0873 358.987 32.3098 360.542 31.7915C362.097 31.2732 363.782 30.8845 365.466 30.8845C367.021 30.8845 368.576 31.1436 369.872 31.7915C371.168 32.3098 372.334 33.2169 373.241 34.2535C374.148 35.2901 374.925 36.5859 375.444 38.1408C375.962 39.6958 376.221 41.5098 376.221 43.5831V45.138H358.728V45.3972ZM370.649 41.1211C370.649 39.4366 370.131 38.0113 369.094 37.1042C368.058 36.0676 366.632 35.6789 364.818 35.6789C363.134 35.6789 361.708 36.1972 360.672 37.2338C359.635 38.2704 358.987 39.5662 358.858 41.2507H370.649V41.1211Z" fill="white"/>
</svg>
