<svg width="92" height="92" viewBox="0 0 92 92" fill="none" xmlns="http://www.w3.org/2000/svg">
<path fill-rule="evenodd" clip-rule="evenodd" d="M45.8547 0C71.0371 0 91.475 20.4379 91.475 45.6203C91.475 70.8027 71.0371 91.2406 45.8547 91.2406C20.6723 91.2406 0.234375 70.8027 0.234375 45.6203C0.234375 20.4379 20.6723 0 45.8547 0Z" fill="white"/>
<path d="M67.8501 43.4461C67.8501 33.4989 57.8648 25.417 45.5392 25.417C33.2135 25.417 23.2283 33.4989 23.5403 43.4461C23.5403 47.4872 25.1005 51.2176 27.9089 54.1707C27.9089 54.1707 25.1005 62.4082 26.1926 63.0299C27.9088 64.1179 36.9581 60.0767 38.8303 60.543C42.1067 61.3201 45.6952 61.6312 49.1276 61.1649C59.737 59.9215 67.8501 52.4608 67.8501 43.4461Z" fill="#FF4521"/>
<path fill-rule="evenodd" clip-rule="evenodd" d="M37.0557 41.0582C38.938 41.0582 40.4781 42.1559 40.4781 43.5279C40.4781 44.9 39.1091 46.272 37.3978 46.272C35.5155 46.272 33.9754 45.1743 33.9754 43.8023V43.6649C33.8043 42.2929 35.1733 41.0582 37.0557 41.0582Z" fill="white"/>
<path fill-rule="evenodd" clip-rule="evenodd" d="M45.5546 41.0582C47.0639 41.0582 48.2987 42.1559 48.2987 43.5279C48.2987 44.9 47.2011 46.272 45.829 46.272C44.3198 46.272 43.085 45.1743 43.085 43.8023V43.6649C43.085 42.2929 44.1826 41.0582 45.5546 41.0582Z" fill="white"/>
<path fill-rule="evenodd" clip-rule="evenodd" d="M54.6786 41.0582C56.1879 41.0582 57.4227 42.1559 57.4227 43.5279C57.4227 44.9 56.3251 46.272 54.9531 46.272C53.4438 46.272 52.209 45.1743 52.209 43.8023V43.6649C52.209 42.2929 53.3066 41.0582 54.6786 41.0582Z" fill="white"/>
</svg>
