<svg width="92" height="92" viewBox="0 0 92 92" fill="none" xmlns="http://www.w3.org/2000/svg">
<path fill-rule="evenodd" clip-rule="evenodd" d="M45.7531 0C70.9355 0 91.3734 20.4379 91.3734 45.6203C91.3734 70.8027 70.9355 91.2406 45.7531 91.2406C20.5707 91.2406 0.132812 70.8027 0.132812 45.6203C0.132812 20.4379 20.5707 0 45.7531 0Z" fill="white"/>
<path fill-rule="evenodd" clip-rule="evenodd" d="M35.9717 43.1463L40.1515 38.6783L36.8365 27.4362C35.3952 26.7155 33.6656 26.5714 32.0802 26.8597C11.0373 38.8224 50.5288 79.6112 65.6624 63.901C66.239 62.1715 66.3831 60.4419 66.3831 58.5682L56.4381 52.803L51.2495 57.9917C45.196 56.2621 40.1515 51.3617 35.9717 43.1463Z" fill="#FF4521"/>
</svg>
